<svg width="110" height="110" fill="none" xmlns="http://www.w3.org/2000/svg"><circle cx="55" cy="55" r="54" fill="#fff" stroke="#ED7E06" stroke-width="2"/><g clip-path="url(#clip0_439_3082)" stroke="#FF931E" stroke-width="1.8" stroke-linecap="round" stroke-linejoin="round"><path d="M34.544 37.783c3.457 0 6.26-.835 6.26-2.348s-2.803-3.13-6.26-3.13c-3.458 0-6.261 1.617-6.261 3.13s2.803 2.348 6.26 2.348zm-6.261 33.652v3.913c0 1.484 2.804 2.348 6.26 2.348 3.457 0 6.261-.872 6.261-2.348v-3.913"/><path d="M28.283 67.522v3.913c0 1.484 2.804 2.348 6.26 2.348 3.457 0 6.261-.872 6.261-2.348v-3.913"/><path d="M28.283 64.392v3.913c0 1.483 2.804 2.347 6.26 2.347 3.457 0 6.261-.871 6.261-2.347v-3.913"/><path d="M28.283 60.478v3.914c0 1.483 2.804 2.347 6.26 2.347 3.457 0 6.261-.872 6.261-2.347v-3.913"/><path d="M28.283 56.565v3.913c0 1.484 2.804 2.348 6.26 2.348 3.457 0 6.261-.872 6.261-2.348v-3.913"/><path d="M28.283 53.435v3.913c0 1.484 2.804 2.348 6.26 2.348 3.457 0 6.261-.872 6.261-2.348v-3.913"/><path d="M28.283 49.522v3.913c0 1.484 2.804 2.348 6.26 2.348 3.457 0 6.261-.872 6.261-2.348v-3.913"/><path d="M28.283 45.609v3.913c0 1.484 2.804 2.348 6.26 2.348 3.457 0 6.261-.872 6.261-2.348v-3.913"/><path d="M28.283 42.478v3.914c0 1.483 2.804 2.347 6.26 2.347 3.457 0 6.261-.872 6.261-2.347v-3.914"/><path d="M28.283 38.565v3.913c0 1.484 2.804 2.348 6.26 2.348 3.457 0 6.261-.872 6.261-2.348v-3.913"/><path d="M28.283 34.652v3.913c0 1.484 2.804 2.348 6.26 2.348 3.457 0 6.261-.872 6.261-2.348v-3.913m33.652 3.131c3.458 0 6.261-.835 6.261-2.348s-2.803-3.13-6.26-3.13c-3.458 0-6.261 1.617-6.261 3.13s2.803 2.348 6.26 2.348zm-6.26 33.652v3.913c0 1.484 2.804 2.348 6.26 2.348 3.457 0 6.261-.872 6.261-2.348v-3.913"/><path d="M68.196 67.522v3.913c0 1.484 2.804 2.348 6.26 2.348 3.457 0 6.261-.872 6.261-2.348v-3.913"/><path d="M68.196 64.392v3.913c0 1.483 2.804 2.347 6.26 2.347 3.457 0 6.261-.871 6.261-2.347v-3.913"/><path d="M68.196 60.478v3.914c0 1.483 2.804 2.347 6.26 2.347 3.457 0 6.261-.872 6.261-2.347v-3.913"/><path d="M68.196 56.565v3.913c0 1.484 2.804 2.348 6.26 2.348 3.457 0 6.261-.872 6.261-2.348v-3.913"/><path d="M68.196 53.435v3.913c0 1.484 2.804 2.348 6.26 2.348 3.457 0 6.261-.872 6.261-2.348v-3.913"/><path d="M68.196 49.522v3.913c0 1.484 2.804 2.348 6.26 2.348 3.457 0 6.261-.872 6.261-2.348v-3.913"/><path d="M68.196 45.609v3.913c0 1.484 2.804 2.348 6.26 2.348 3.457 0 6.261-.872 6.261-2.348v-3.913"/><path d="M68.196 42.478v3.914c0 1.483 2.804 2.347 6.26 2.347 3.457 0 6.261-.872 6.261-2.347v-3.914"/><path d="M68.196 38.565v3.913c0 1.484 2.804 2.348 6.26 2.348 3.457 0 6.261-.872 6.261-2.348v-3.913"/><path d="M68.196 34.652v3.913c0 1.484 2.804 2.348 6.26 2.348 3.457 0 6.261-.872 6.261-2.348v-3.913M62.718 44.827H46.282m11.74 4.695l4.695-4.695m-4.695-4.697l4.695 4.697M46.283 65.174h16.434M50.978 69.87l-4.695-4.696m4.695-4.696l-4.695 4.696"/></g><defs><clipPath id="clip0_439_3082"><path fill="#fff" transform="translate(27.5 31.522)" d="M0 0h54v46.956H0z"/></clipPath></defs></svg>