<svg width="110" height="110" fill="none" xmlns="http://www.w3.org/2000/svg"><circle cx="55" cy="55" r="54" fill="#fff" stroke="#ED7E06" stroke-width="2"/><g clip-path="url(#clip0_439_3120)" stroke="#FF931E" stroke-width="1.867" stroke-linecap="round" stroke-linejoin="round"><path d="M62.21 57.435s1.917 2.945 4.058 7.304c.521 1.065.52 2.373-.811 3.246-1.139.749-3.49.12-4.058-.811l-3.247-5.682m-.811 8.117c-.53.998-1.127.528-1.624.811-1.298.749-3.264 1.306-4.058 0l-2.434-4.87m12.173 1.624c-.176.765-1.11 2.135-1.623 2.434-1.25.733-2.476.437-3.246-.811l-2.435-4.87"/><path clip-rule="evenodd" d="M36.24 65.55h-6.494c-.913 0-1.466-.715-1.623-1.622-1.382-7.778-1.631-14.708-1.623-17.856 0-1.057.578-1.623 1.623-1.623h8.116c1.045 0 1.623.566 1.623 1.623v17.855c0 1.058-.578 1.624-1.623 1.624v0z"/><path d="M50.848 70.42c-.262.305-.24-.313-.812 0-1.382.766-4.291.683-5.68-1.623-1.891-3.146-3.247-6.493-3.247-6.493h-3.247"/><path clip-rule="evenodd" d="M71.138 65.55h6.493c.913 0 1.466-.715 1.623-1.622 1.382-7.781 1.631-14.715 1.623-17.856 0-1.058-.578-1.623-1.623-1.623h-8.116c-1.045 0-1.623.565-1.623 1.623v17.855c0 1.059.578 1.624 1.623 1.624v0z"/><path d="M37.862 62.304h5.681l2.435-.811c.857-.403 1.463-.812 2.435-.812h1.623m19.479-14.609l-7.305-4.87c-.835-.567-1.431-.81-2.434-.81h-3.247c-1.75 0-3.762 1.044-4.87 2.434l-5.68 7.304c-.41.51.29 1.229.811 1.623v0c1.389 1.07 3.553 1.16 4.87 0l3.246-3.246c.353-.304 1.157-.811 1.623-.811.698 0 1.278.998 1.623 1.623l7.305 13.797h4.058"/></g><defs><clipPath id="clip0_439_3120"><path fill="#fff" transform="translate(26.5 30.652)" d="M0 0h56v48.696H0z"/></clipPath></defs></svg>