<svg width="110" height="110" fill="none" xmlns="http://www.w3.org/2000/svg"><g stroke-width="2"><circle cx="55" cy="55" r="54" fill="#fff" stroke="#ED7E06"/><g stroke="#FF931E" stroke-linecap="round" stroke-linejoin="round"><path d="M49.783 40.37l3.13 2.087m3.131 4.173c1.44 0 2.087-.646 2.087-2.087 0-1.44-.647-3.13-2.087-3.13-1.441 0-3.13 1.69-3.13 3.13 0 1.441 1.689 2.087 3.13 2.087zm-6.261 1.044l3.13-2.087m7.304 2.087l-3.13-2.087m3.13-5.217l-3.13 2.087M58.13 85.24h-5.217v-4.174c0-.721.324-1.044 1.044-1.044h3.13c.72 0 1.043.323 1.043 1.043v4.174zm-3.13 0v3.13"/><path d="M70.652 88.37v-1.044c0-1.153-.757-2.087-2.087-2.087h-27.13c-1.33 0-2.087.934-2.087 2.087v1.044m32.348-27.13H38.304v7.304h33.392v-7.305zM37.26 42.456a167.808 167.808 0 011.044 18.783h33.392c0-6.745.387-13.074 1.043-18.782C73.97 31.725 65.637 22.63 55 22.63c-10.646 0-18.968 9.096-17.738 19.826v0zM55 80.022V68.543"/><path d="M33.087 68.543h5.217V54.978c0-1.976-2.155-3.13-4.174-3.13-2.018 0-3.13 1.154-3.13 3.13v11.478c0 1.318.741 2.087 2.087 2.087v0zm38.609 0h5.217c1.344 0 2.087-.77 2.087-2.087V54.978c0-1.976-1.115-3.13-3.13-3.13-2.016 0-4.174 1.154-4.174 3.13v13.565zm-11.479 4.174H55m5.217 0v1.044"/></g></g></svg>