<svg width="24" height="20" fill="none" xmlns="http://www.w3.org/2000/svg"><g clip-path="url(#clip0_439_3259)"><path fill-rule="evenodd" clip-rule="evenodd" d="M1.62 8.34C7.8 5.65 11.92 3.86 13.99 3 19.87.54 21.11.12 21.91.1c.18 0 .57.04.83.25.21.18.27.41.3.58.03.17.07.55.04.83-.32 3.36-1.7 11.5-2.4 15.25-.3 1.59-.88 2.12-1.45 2.17-1.24.11-2.17-.81-3.36-1.59-1.87-1.22-2.92-1.98-4.74-3.18-2.1-1.38-.74-2.14.46-3.38.32-.32 5.74-5.27 5.85-5.71.02-.05.02-.27-.11-.37-.12-.11-.3-.07-.44-.04-.19.04-3.16 2.01-8.94 5.92-.85.58-1.61.87-2.3.85-.76-.02-2.21-.42-3.3-.78-1.33-.41-2.39-.64-2.31-1.38.05-.39.58-.78 1.57-1.18h.01z" fill="#1E1E1E"/></g><defs><clipPath id="clip0_439_3259"><path fill="#fff" transform="translate(.04 .1)" d="M0 0h23.05v19.09H0z"/></clipPath></defs></svg>