<svg width="34" height="24" fill="none" xmlns="http://www.w3.org/2000/svg"><g clip-path="url(#clip0_439_3262)"><path d="M32.67 3.64A4.159 4.159 0 0029.73.7c-2.59-.7-13-.7-13-.7s-10.4 0-13 .7A4.159 4.159 0 00.79 3.64c-.7 2.59-.7 8.01-.7 8.01s0 5.41.7 8.01a4.159 4.159 0 002.94 2.94c2.59.7 13 .7 13 .7s10.4 0 13-.7a4.159 4.159 0 002.94-2.94c.7-2.59.7-8.01.7-8.01s0-5.41-.7-8.01z" fill="#1E1E1E"/><path d="M13.4 16.64l8.64-4.99-8.64-5v9.99z" fill="#fff"/></g><defs><clipPath id="clip0_439_3262"><path fill="#fff" transform="translate(.09)" d="M0 0h33.27v23.29H0z"/></clipPath></defs></svg>