<svg xmlns="http://www.w3.org/2000/svg" viewBox="0 0 41.31 49.28"><defs><style>.cls-1{fill:none;stroke:#ec5a24;stroke-linecap:round;stroke-linejoin:round;stroke-width:1.94px}</style></defs><g id="Слой_2" data-name="Слой 2"><g id="Подоконники"><path class="cls-1" d="M21.23 21.75v22.92l-2.64-1.73m2.64-21.19v22.92l2.63-1.73M21.23 4.43V.97M9.11 13.09h3.46m17.32 0h3.46m-20.69 8.57l2.44-2.45M27.35 6.97l2.45-2.45m-17.14 0l2.44 2.45m12.25 12.24l2.45 2.45"/><circle class="cls-1" cx="21.23" cy="13.09" r="6.12"/><path class="cls-1" d="M15.78 28.69v6.5a3.7 3.7 0 01-3.7 3.7 3.7 3.7 0 01-3.7-3.7v-6.5m24.54 0l-3.7 10.2-3.7-10.2m1.83 14.68H38.3a2.05 2.05 0 012.05 2.05v.85a2 2 0 01-2.05 2H3a2 2 0 01-2-2v-.85a2 2 0 012-2.05h11.7"/></g></g></svg>