<svg xmlns="http://www.w3.org/2000/svg" viewBox="0 0 40.29 49.82"><defs><style>.cls-1{fill:none;stroke:#ec5a24;stroke-linecap:round;stroke-linejoin:round;stroke-width:1.73px;fill-rule:evenodd}</style></defs><g id="Слой_2" data-name="Слой 2"><g id="Подоконники"><path class="cls-1" d="M23.93 12.36c1.45 9.74 11.68 16.88 11.84 25.41A11.14 11.14 0 0124.63 49a11.19 11.19 0 01-11.57-10.82c-.16-8.54 9.8-16 10.87-25.82z"/><path class="cls-1" d="M29.47 44.92a8.72 8.72 0 001.44-1.21 8.28 8.28 0 002-3.43m-17.03-4.6a10.63 10.63 0 00-.23 1.23m4.69-10.11a52.23 52.23 0 00-3.59 6.38M7.35 4.76c.86 5.81 7 10.07 7.07 15.16a6.67 6.67 0 01-6.65 6.67 6.68 6.68 0 01-6.9-6.43c-.1-5.09 5.84-9.57 6.48-15.4zM34.13.87c.65 4.34 5.22 7.53 5.29 11.35a5.07 5.07 0 01-10.14.18c-.07-3.82 4.37-7.17 4.85-11.53z"/></g></g></svg>