<svg xmlns="http://www.w3.org/2000/svg" viewBox="0 0 47.73 45.7"><defs><style>.cls-1{fill:none;stroke:#ec5a24;stroke-linecap:round;stroke-linejoin:round;stroke-width:1.73px;fill-rule:evenodd}</style></defs><g id="Слой_2" data-name="Слой 2"><g id="Подоконники"><path class="cls-1" d="M28.59 21.84l-3.67-3.68L41.45 1.63a2.6 2.6 0 013.68 0 2.6 2.6 0 010 3.67z"/><path fill="none" stroke="#ec5a24" stroke-linecap="round" stroke-linejoin="round" stroke-width="1.73" d="M16.65 19.7l11.22 11.22"/><path class="cls-1" d="M23.08 44.5c-8.17 1.84-24-11.33-22-25.72 10.73 4 18.19.22 20.91-1.6a1.74 1.74 0 012.2.21l5.52 5.51a1.72 1.72 0 01.4 1.8zM9.63 24.35a18.66 18.66 0 01-8.52-.11m8.13 4.96a17.52 17.52 0 01-6.4.67m8.64 3.47a17 17 0 01-4.88 2.52m14.48.8A18.54 18.54 0 0117 43.74m-.54-8.49a18.06 18.06 0 01-4.93 5.35m17.68 4.23c12.43-1.19 17.65-14.12 17.65-25.13m-16.8 21.49c10.24-1.57 13.69-12.45 13.7-21.49M30.82 37.34C38.54 35.4 41 26.73 41 19.7"/></g></g></svg>