<svg xmlns="http://www.w3.org/2000/svg" viewBox="0 0 33.49 66.19"><defs><linearGradient id="a" x1="19.56" y1="23.8" x2="-4.92" y2="10.76" gradientUnits="userSpaceOnUse"><stop offset="0" stop-color="#d6e5f6"/><stop offset=".06" stop-color="#cde1f4"/><stop offset=".17" stop-color="#b3d6ef"/><stop offset=".31" stop-color="#8ac4e7"/><stop offset=".47" stop-color="#51abdd"/><stop offset=".57" stop-color="#299ad5"/><stop offset=".87" stop-color="#006db5"/><stop offset=".99" stop-color="#005892"/></linearGradient><linearGradient id="b" x1="-5.45" y1="-1476.55" x2="38.77" y2="-1441.12" gradientTransform="matrix(1 -.34 0 1 0 1498.29)" gradientUnits="userSpaceOnUse"><stop offset="0" stop-color="#d6e5f6"/><stop offset=".05" stop-color="#d7e1ed"/><stop offset=".15" stop-color="#dbd7d3"/><stop offset=".26" stop-color="#e0c7aa"/><stop offset=".4" stop-color="#e8b070"/><stop offset=".55" stop-color="#f29327"/><stop offset=".57" stop-color="#f38f1e"/><stop offset=".87" stop-color="#ed5a24"/><stop offset=".99" stop-color="#e91c24"/></linearGradient></defs><g data-name="Слой 2"><path fill="url(#a)" d="M33.49 0L0 11.23V44.6L33.49 1.63V0z"/><path fill="url(#b)" d="M0 44.6v21.59l33.49-11.23V1.63L0 44.6z"/><path d="M14.81 40.4l2.36 2.91a3.92 3.92 0 01.73 3.29l-.65 2.2a3.93 3.93 0 00.75 3.29L20.34 55m-1-15.68l2.35 2.9a3.94 3.94 0 01.74 3.29l-.65 2.21a3.9 3.9 0 00.73 3.28l2.35 2.9m-1-15.66l2.36 2.9a3.92 3.92 0 01.78 3.29l-.65 2.2a4 4 0 00.74 3.3l2.35 2.9" fill="none" stroke="#fff" stroke-linecap="round" stroke-linejoin="round" stroke-width="2"/></g></svg>