<svg xmlns="http://www.w3.org/2000/svg" viewBox="0 0 52.64 72.31"><defs><linearGradient id="Sky_3" x1="49.02" y1="48.64" x2="19.92" y2="27.75" gradientUnits="userSpaceOnUse"><stop offset="0" stop-color="#d6e5f6"/><stop offset=".06" stop-color="#cde1f4"/><stop offset=".17" stop-color="#b3d6ef"/><stop offset=".31" stop-color="#8ac4e7"/><stop offset=".47" stop-color="#51abdd"/><stop offset=".57" stop-color="#299ad5"/><stop offset=".87" stop-color="#006db5"/><stop offset=".99" stop-color="#005892"/></linearGradient><style>.cls-2{fill:none;stroke:#ff1d25;stroke-linecap:round;stroke-linejoin:round;stroke-width:1.34px}</style></defs><g id="Слой_2" data-name="Слой 2"><g id="Архи"><path fill="url(#Sky_3)" d="M19.14 17.35v54.96l33.5-11.23V6.12l-33.5 11.23z"/><path class="cls-2" d="M15.52 29.6a11.35 11.35 0 1111.59-18.53M10 18.7a8.68 8.68 0 018.7-8.7"/><path class="cls-2" d="M15.9 33.89c-1.77-1-3.84-.83-6.22.43-.14-4.25-2.34-6.46-6.6-6.6q3-5.64-2.41-9 5.42-3.37 2.41-9 6.39-.21 6.6-6.6 5.64 3 9-2.41 3.38 5.42 9 2.41c.12 3.67 1.78 5.81 5 6.43a10.32 10.32 0 001.64.17"/></g></g></svg>