<svg xmlns="http://www.w3.org/2000/svg" xmlns:xlink="http://www.w3.org/1999/xlink" viewBox="0 0 46.84 70.62"><defs><linearGradient id="Sky_3" x1="32.9" y1="28.23" x2="8.43" y2="15.18" gradientUnits="userSpaceOnUse"><stop offset="0" stop-color="#d6e5f6"/><stop offset=".06" stop-color="#cde1f4"/><stop offset=".17" stop-color="#b3d6ef"/><stop offset=".31" stop-color="#8ac4e7"/><stop offset=".47" stop-color="#51abdd"/><stop offset=".57" stop-color="#299ad5"/><stop offset=".87" stop-color="#006db5"/><stop offset=".99" stop-color="#005892"/></linearGradient><linearGradient id="Sky_3-2" x1="7.89" y1="-1471.17" x2="52.12" y2="-1435.75" gradientTransform="matrix(1 -.34 0 1 0 1501.82)" xlink:href="#Sky_3"/><linearGradient id="Sky_3-3" x1="29.98" y1="26.01" x2="5.5" y2="12.97" xlink:href="#Sky_3"/><linearGradient id="Sky_3-4" x1="4.97" y1="-1474.37" x2="49.2" y2="-1438.94" gradientTransform="matrix(1 -.34 0 1 0 1501.82)" xlink:href="#Sky_3"/><linearGradient id="Sky_3-5" x1="27.06" y1="23.8" x2="2.58" y2="10.76" xlink:href="#Sky_3"/><linearGradient id="Sky_3-6" x1="2.05" y1="-1477.56" x2="46.28" y2="-1442.13" gradientTransform="matrix(1 -.34 0 1 0 1501.82)" xlink:href="#Sky_3"/><style>.cls-9{fill:#fff;stroke:#ff1d25;stroke-linecap:round;stroke-linejoin:round;stroke-width:1.02px;fill-rule:evenodd}</style></defs><g style="isolation:isolate"><g id="Слой_2" data-name="Слой 2"><g id="Матовые"><path fill="url(#Sky_3)" d="M46.84 4.43l-33.5 11.23v33.37l33.5-42.97V4.43z"/><path fill="url(#Sky_3-2)" d="M13.34 49.03v21.59l33.5-11.23V6.06l-33.5 42.97z"/><path fill="url(#Sky_3-3)" d="M43.92 2.21l-33.5 11.23v33.37l33.5-42.96V2.21z"/><path style="mix-blend-mode:screen" fill="url(#Sky_3-4)" d="M10.42 46.81v21.6l33.5-11.23V3.85l-33.5 42.96z"/><path fill="url(#Sky_3-5)" d="M40.99 0L7.5 11.23V44.6L40.99 1.63V0z"/><path style="mix-blend-mode:screen" fill="url(#Sky_3-6)" d="M7.5 44.6v21.59l33.49-11.23V1.63L7.5 44.6z"/><path d="M28.06 21.5a2.44 2.44 0 002.64 2.64 2.43 2.43 0 001 3.6 2.44 2.44 0 00-1 3.61A2.44 2.44 0 0028.06 34a2.44 2.44 0 00-3.61 1 2.43 2.43 0 00-3.6-1 2.44 2.44 0 00-2.64-2.64 2.44 2.44 0 00-1-3.61 2.43 2.43 0 001-3.6 2.44 2.44 0 002.64-2.64 2.43 2.43 0 003.6-1 2.44 2.44 0 003.61.99z" fill="#fff" stroke="#ff1d25" stroke-linecap="round" stroke-linejoin="round" stroke-width="1.02"/><path class="cls-9" d="M2.5 46.12l-1.61-1.3a1 1 0 01-.15-1.44l14.69-18.17 3.2 2.59L3.94 46a1 1 0 01-1.44.12z"/><path class="cls-9" d="M18.23 19.54a6.18 6.18 0 01-6.25.12l-1.36 1.67 12 9.71 3.89-4.81z"/></g></g></g></svg>