<svg xmlns="http://www.w3.org/2000/svg" xmlns:xlink="http://www.w3.org/1999/xlink" viewBox="0 0 33.49 66.19"><defs><linearGradient id="a" x1="19.56" y1="23.8" x2="-4.92" y2="10.76" gradientUnits="userSpaceOnUse"><stop offset="0" stop-color="#d6e5f6"/><stop offset=".06" stop-color="#cde1f4"/><stop offset=".17" stop-color="#b3d6ef"/><stop offset=".31" stop-color="#8ac4e7"/><stop offset=".47" stop-color="#51abdd"/><stop offset=".57" stop-color="#299ad5"/><stop offset=".87" stop-color="#006db5"/><stop offset=".99" stop-color="#005892"/></linearGradient><linearGradient id="b" x1="-5.45" y1="-1475.85" x2="38.77" y2="-1440.42" gradientTransform="matrix(1 -.34 0 1 0 1497.59)" xlink:href="#a"/></defs><g data-name="Слой 2"><path fill="url(#a)" d="M33.49 0L0 11.23V44.6L33.49 1.63V0z"/><path fill="url(#b)" d="M0 44.6v21.59l33.49-11.23V1.63L0 44.6z"/><path d="M2.49 9.68v49.76M3.93 9.21v49.76M5.37 8.74v49.77M6.81 8.28v49.76M8.25 7.81v49.77M9.68 7.34v49.77m1.44-50.23v49.76m1.44-50.23v49.77M14 5.95v49.76m1.44-50.23v49.76m1.44-50.23v49.77m1.44-50.23v49.76m1.44-50.23v49.77M21.2 3.61v49.77m1.44-50.23v49.76m1.44-50.23v49.77m1.44-50.23v49.76m1.44-50.23v49.76M28.4 1.28v49.77M29.84.82v49.76M31.28.35v49.77M2.49 9.84L31.28.13M2.49 11.26l28.79-9.71M2.49 12.68l28.79-9.7M2.49 14.11L31.28 4.4M2.49 15.53l28.79-9.7M2.49 16.96l28.79-9.71M2.49 18.38l28.79-9.71M2.49 19.8l28.79-9.7M2.49 21.23l28.79-9.71M2.49 22.65l28.79-9.71M2.49 24.07l28.79-9.7M2.49 25.5l28.79-9.71M2.49 26.92l28.79-9.7M2.49 28.35l28.79-9.71M2.49 29.77l28.79-9.71M2.49 31.19l28.79-9.7M2.49 32.62l28.79-9.71M2.49 34.04l28.79-9.71M2.49 35.46l28.79-9.7M2.49 36.89l28.79-9.71M2.49 38.31l28.79-9.7M2.49 39.74l28.79-9.71M2.49 41.16l28.79-9.71M2.49 42.58l28.79-9.7M2.49 44.01l28.79-9.71M2.49 45.43l28.79-9.71M2.49 46.85l28.79-9.7M2.49 48.28l28.79-9.71M2.49 49.7L31.28 40M2.49 51.13l28.79-9.71M2.49 52.55l28.79-9.71M2.49 53.97l28.79-9.7M2.49 55.4l28.79-9.71M2.49 56.82l28.79-9.71M2.49 58.24l28.79-9.7M2.49 59.67l28.79-9.71" fill="none" stroke="#fff" stroke-miterlimit="10" stroke-width=".1"/></g></svg>