<svg xmlns="http://www.w3.org/2000/svg" xmlns:xlink="http://www.w3.org/1999/xlink" viewBox="0 0 33.49 66.19"><defs><linearGradient id="a" x1="19.56" y1="23.8" x2="-4.92" y2="10.76" gradientUnits="userSpaceOnUse"><stop offset="0" stop-color="#d6e5f6"/><stop offset=".06" stop-color="#cde1f4"/><stop offset=".17" stop-color="#b3d6ef"/><stop offset=".31" stop-color="#8ac4e7"/><stop offset=".47" stop-color="#51abdd"/><stop offset=".57" stop-color="#299ad5"/><stop offset=".87" stop-color="#006db5"/><stop offset=".99" stop-color="#005892"/></linearGradient><linearGradient id="b" x1="-5.45" y1="-1476.44" x2="38.77" y2="-1441.02" gradientTransform="matrix(1 -.34 0 1 0 1498.19)" xlink:href="#a"/></defs><g data-name="Слой 2"><path fill="url(#a)" d="M33.49 0L0 11.23V44.6L33.49 1.63V0z"/><path fill="url(#b)" d="M0 44.6v21.59l33.49-11.23V1.63L0 44.6z"/><path d="M26.14 7.54l3.88 40.12M19.67 9.19l6.23 34.35m-11.05-26l9.53 29.18M11.08 31.9l9.88 16m-9.88-2.83l6.35 5.3m-6.47 2.59h7.3m2.82-.24l6.59.24m-5.06-2.95l2.24 1.42m.11-3.06l1.65 2.82m5.63-10.08v8.75m-2.34-.55v3.29M19.29 42.59c0-.93 1-1.68 2.34-1.68m4.45-2.29c0-.15.9-.27 2-.27m2.55-.13a16 16 0 002.86.13M16.14 39.6c-2.15-.08-4 2.08-4.07 4.83m.7 3.86a2.11 2.11 0 00-.91 2.8" fill="none" stroke="#fff" stroke-miterlimit="10"/></g></svg>