<svg xmlns="http://www.w3.org/2000/svg" viewBox="0 0 33.5 66.2"><defs><linearGradient id="a" x1="-23.66" y1=".74" x2="36.03" y2="48.54" gradientUnits="userSpaceOnUse"><stop offset="0" stop-color="#d6e5f6"/><stop offset=".06" stop-color="#cde1f4"/><stop offset=".17" stop-color="#b3d6ef"/><stop offset=".31" stop-color="#8ac4e7"/><stop offset=".47" stop-color="#51abdd"/><stop offset=".57" stop-color="#299ad5"/><stop offset=".87" stop-color="#006db5"/><stop offset=".99" stop-color="#005892"/></linearGradient></defs><g data-name="Слой 2"><path fill="url(#a)" d="M33.5 0v54.97L0 66.2V11.23l25.78-8.64L33.5 0z"/><path opacity=".95" fill="#886239" d="M0 24.5v11.45l12.96-12.68 1.8-11.32L0 24.5z"/><path fill="#f4a258" opacity=".95" d="M33.5 0l-7.72 2.59-11.02 9.36-1.8 11.32L33.5 3.19V0z"/><path fill="#666" opacity=".95" d="M0 49.62l10.26-9.35 1.83-11.46L0 38.12v11.5z"/><path fill="#c8c8c8" opacity=".95" d="M33.5 19.09V12.3L12.09 28.81l-1.83 11.46L33.5 19.09z"/><path fill="silver" opacity=".95" d="M0 64.95l7.11-4.84 2.4-15.09L0 52.35v12.6z"/><path fill="#e8e8e8" opacity=".95" d="M33.5 42.16V26.54L9.51 45.02l-2.4 15.09L33.5 42.16z"/></g></svg>