<svg xmlns="http://www.w3.org/2000/svg" viewBox="0 0 50.5 66.2"><defs><linearGradient id="a" x1="-6.66" y1=".74" x2="53.03" y2="48.54" gradientUnits="userSpaceOnUse"><stop offset="0" stop-color="#d6e5f6"/><stop offset=".06" stop-color="#cde1f4"/><stop offset=".17" stop-color="#b3d6ef"/><stop offset=".31" stop-color="#8ac4e7"/><stop offset=".47" stop-color="#51abdd"/><stop offset=".57" stop-color="#299ad5"/><stop offset=".87" stop-color="#006db5"/><stop offset=".99" stop-color="#005892"/></linearGradient></defs><g data-name="Слой 2"><path fill="url(#a)" d="M50.5 0v54.97L17 66.2V11.23l25.78-8.64L50.5 0z"/><path d="M5 20.9v9.67a13.72 13.72 0 005.58 10.93L17 46.25l6.42-4.75A13.72 13.72 0 0029 30.57V20.9a27.18 27.18 0 01-12-4.5 27.18 27.18 0 01-12 4.5z" stroke="red" stroke-linecap="round" stroke-linejoin="round" stroke-width="2" fill="#fff"/><path d="M33 17.16c-10.67 0-16-5.93-16-5.93s-5.33 5.93-16 5.93v13.41a17.6 17.6 0 007.2 14.14l8.8 6.52 8.8-6.52A17.6 17.6 0 0033 30.57z" fill="none" stroke="red" stroke-linecap="round" stroke-linejoin="round" stroke-width="2"/></g></svg>