<svg width="36" height="36" fill="none" xmlns="http://www.w3.org/2000/svg"><path d="M15 35c8.284 0 15-6.716 15-15 0-8.284-6.716-15-15-15C6.716 5 0 11.716 0 20c0 8.284 6.716 15 15 15z" fill="url(#paint0_linear_257_519)"/><path d="M18 33c8.284 0 15-6.716 15-15 0-8.284-6.716-15-15-15C9.716 3 3 9.716 3 18c0 8.284 6.716 15 15 15zm0-20.25v9" stroke="#404040" stroke-width="2.25" stroke-linecap="round" stroke-linejoin="round"/><path d="M13.5 18.75l4.5 4.5 4.5-4.5" stroke="#404040" stroke-width="2.25" stroke-linecap="round" stroke-linejoin="round"/><defs><linearGradient id="paint0_linear_257_519" x1="20.802" y1="7.218" x2="-47.172" y2="29.848" gradientUnits="userSpaceOnUse"><stop stop-color="#FE9C00"/><stop offset="1" stop-color="#F56900"/></linearGradient></defs></svg>