<svg xmlns="http://www.w3.org/2000/svg" viewBox="0 0 765.46 42.65"><defs><style>.cls-1{fill:#e97e06}</style></defs><g id="Слой_2" data-name="Слой 2"><g id="Слой_6" data-name="Слой 6"><path class="cls-1" d="M36.5 20.65h692.46V22H36.5z"/><path class="cls-1" d="M14.55 6.93c0 10.66 11.16 12.15 11.16 12.15v1.08c-7.23 0-7.72-5-13-5S0 21.32 0 21.32s7.42 6.13 12.7 6.13 5.78-5 13-5v1.08s-11.15 1.53-11.15 12.19A6.58 6.58 0 0021 42.65c1.45 0 8.52-1.15 8.52-7 0 0-.1-4.18-4.28-2.64 5.73 3.59 1.34 5.18 1.34 5.18s-4 .6-4-7a6.34 6.34 0 013.15-5.4l.1 3.45a1.48 1.48 0 001.49 1.3 1.41 1.41 0 001.45-1.3v-3.48a4.34 4.34 0 013.56 1.84 1.92 1.92 0 00-1.94 2 2.11 2.11 0 002.29 2.4A2.24 2.24 0 0035 29.72 6.23 6.23 0 0028.85 24v-1.75s3.33 0 3.61 1h1.37a5.18 5.18 0 004.06 1.7c2.76 0 7.07-3.62 7.07-3.62s-4.31-3.61-7.07-3.61a5.18 5.18 0 00-4.06 1.7h-1.37c-.28.94-3.61 1-3.61 1v-1.76A6.23 6.23 0 0035 12.93a2.24 2.24 0 00-2.32-2.27A2.11 2.11 0 0030.37 13a1.92 1.92 0 001.94 2.05 4.34 4.34 0 01-3.56 1.84V13.4a1.41 1.41 0 00-1.45-1.29 1.47 1.47 0 00-1.49 1.29l-.1 3.46a6.34 6.34 0 01-3.15-5.4c0-7.57 4-7 4-7s4.44 1.62-1.3 5.21C29.44 11.21 29.54 7 29.54 7c0-5.87-7.07-7-8.52-7a6.58 6.58 0 00-6.47 6.93zm736.36 28.79c0-10.66-11.16-12.15-11.16-12.15v-1.08c7.22 0 7.72 5 13 5s12.71-6.13 12.71-6.13-7.46-6.16-12.71-6.16-5.78 5-13 5v-1.12s11.16-1.49 11.16-12.15A6.58 6.58 0 00744.43 0c-1.44 0-8.52 1.15-8.52 7 0 0 .1 4.19 4.29 2.65-5.73-3.59-1.35-5.19-1.35-5.19s4-.59 4 7a6.34 6.34 0 01-3.15 5.4l-.1-3.46a1.47 1.47 0 00-1.49-1.29 1.41 1.41 0 00-1.45 1.29v3.49a4.32 4.32 0 01-3.56-1.84 1.91 1.91 0 001.98-2.05 2.11 2.11 0 00-2.31-2.34 2.23 2.23 0 00-2.31 2.27 6.23 6.23 0 006.15 5.73v1.74s-3.34 0-3.61-1h-1.37a5.21 5.21 0 00-4.06-1.7c-2.77 0-7.08 3.61-7.08 3.61s4.31 3.62 7.08 3.62a5.21 5.21 0 004.06-1.7H733c.27-.94 3.61-1 3.61-1V24a6.23 6.23 0 00-6.15 5.73 2.24 2.24 0 002.31 2.27 2.11 2.11 0 002.31-2.35 1.91 1.91 0 00-1.93-2 4.32 4.32 0 013.56-1.84v3.49a1.41 1.41 0 001.45 1.29 1.47 1.47 0 001.49-1.29l.1-3.46a6.34 6.34 0 013.15 5.4c0 7.57-4 7-4 7s-4.38-1.59 1.35-5.18c-4.19-1.54-4.29 2.64-4.29 2.64 0 5.88 7.08 7 8.52 7a6.58 6.58 0 006.43-6.98z"/></g></g></svg>