<svg xmlns="http://www.w3.org/2000/svg" viewBox="0 0 473.65 125.68"><defs><style>.cls-1,.cls-10,.cls-11,.cls-14,.cls-15,.cls-16,.cls-17,.cls-18,.cls-4,.cls-5,.cls-6,.cls-8{fill:none;stroke-miterlimit:10}.cls-1,.cls-11,.cls-14,.cls-17,.cls-5{stroke:#1e1e1b}.cls-1{stroke-width:.93px}.cls-15,.cls-16,.cls-18,.cls-4,.cls-6{stroke:#dc0663}.cls-3{fill:#dc0663}.cls-4{stroke-width:.23px}.cls-5{stroke-width:.52px}.cls-6{stroke-width:1.47px}.cls-7{fill:#fff}.cls-8{stroke:#7b7c7c;stroke-width:.93px}.cls-9{fill:#010000}.cls-10{stroke:#010000;stroke-width:.71px}.cls-11{stroke-width:.91px}.cls-14{stroke-width:1.18px}.cls-15{stroke-width:1.91px}.cls-16{stroke-width:.3px}.cls-17{stroke-width:.74px}.cls-18{stroke-width:1.91px}</style></defs><g id="Слой_2" data-name="Слой 2"><g id="ПОРТАЛЬНЫЕ_СИСТЕМЫ" data-name="ПОРТАЛЬНЫЕ СИСТЕМЫ"><path class="cls-1" d="M2.22 12.75h129.7v31.51H2.22z"/><path class="cls-1" d="M.46 11h133.2v35.01H.46z"/><path d="M67 11.87H33.72v33.26H67zm-.9 32.38H34.6v-31.5h31.5zm35.21-32.38H68.05v33.26h33.26zm-.88 32.38h-31.5v-31.5h31.5z" stroke-width="1.53" stroke="#dc0663" fill="none" stroke-miterlimit="10"/><path class="cls-3" d="M33.81 50.53h33.34v.88H33.81z"/><path class="cls-4" d="M33.81 50.53h33.34v.88H33.81z"/><path class="cls-3" d="M67.34 50.53h33.34v.88H67.34z"/><path class="cls-4" d="M67.34 50.53h33.34v.88H67.34z"/><path class="cls-5" d="M1.34 49.35h33.34v.88H1.34zm98.33 0h33.34v.88H99.67z"/><path class="cls-6" d="M84.32 56.17h10.55"/><path class="cls-3" d="M92.83 58.86l1.14-2.7-1.14-2.69 6.37 2.69-6.37 2.7z"/><path class="cls-6" d="M39.65 56.17h10.54"/><path class="cls-3" d="M41.69 58.86l-1.15-2.7 1.15-2.69-6.38 2.69 6.38 2.7z"/><path class="cls-6" d="M53.58 104.72H43.03"/><path class="cls-3" d="M51.54 102.03l1.14 2.69-1.14 2.69 6.38-2.69-6.38-2.69z"/><path class="cls-7" d="M.47 49.36h.88v2.63H.47z"/><path class="cls-5" d="M.47 49.36h.88v2.63H.47zm132.54 0h.88v2.63h-.88z"/><path class="cls-8" d="M332.23 21.25h138.49v44.28H332.23z"/><path class="cls-8" d="M329.77 18.79h143.41v49.2H329.77z"/><path class="cls-9" d="M331 19.74h28.2V66.8H331zm25.69 2.55h-23.18v42h23.14z"/><path class="cls-7" d="M358.62 66.22h-27.08V20.33h27.08zm-25.7-1.38h24.32V21.71h-24.32z"/><path class="cls-9" d="M359.18 19.74h28.24V66.8h-28.24zm25.69 2.55h-23.14v42h23.14z"/><path class="cls-7" d="M386.84 66.22h-27.08V20.33h27.08zm-25.7-1.38h24.32V21.71h-24.32z"/><path class="cls-9" d="M386.83 19.74h28.25V66.8h-28.25zm25.7 2.55h-23.15v42h23.15z"/><path class="cls-7" d="M414.49 66.22h-27.07V20.33h27.07zm-25.69-1.38h24.31V21.71H388.8z"/><path class="cls-9" d="M415.05 19.74h28.25V66.8h-28.25zm25.7 2.55H417.6v42h23.15z"/><path class="cls-7" d="M442.71 66.22h-27.07V20.33h27.07zM417 64.84h24.31V21.71H417z"/><path class="cls-9" d="M443.3 19.74h28.24V66.8H443.3zm25.7 2.55h-23.15v42H469z"/><path class="cls-7" d="M471 66.22h-27.12V20.33H471zm-25.7-1.38h24.32V21.71h-24.36z"/><path class="cls-9" d="M357.58 39.73h.7v5.08h-.7zm55.89 0h.7v5.08h-.7zm30.75 0h.7v5.08h-.7zM330.31 21.71h1.75v4.18h-1.75zm0 19.59h1.75v4.18h-1.75zm0 19.35h1.75v4.18h-1.75zm55.91-38.94h1.75v4.18h-1.75zm0 19.59h1.75v4.18h-1.75zm0 19.35h1.75v4.18h-1.75zm84.07-38.94h1.75v4.18h-1.75zm0 19.59h1.75v4.18h-1.75zm0 19.35h1.75v4.18h-1.75z"/><path class="cls-8" d="M329.77 75.22h143.41v3.88H329.77z"/><path class="cls-9" d="M329.77 75.22h1.75v3.88h-1.75zm141.66 0h1.75v3.88h-1.75z"/><path class="cls-7" transform="rotate(-69.12 345.36 82.412)" d="M344.25 68.41h2.22v28h-2.22z"/><path class="cls-10" transform="rotate(-69.12 345.36 82.412)" d="M344.25 68.41h2.22v28h-2.22z"/><path class="cls-7" transform="rotate(-20.88 373.075 82.405)" d="M359.07 81.31h28v2.22h-28z"/><path class="cls-10" transform="rotate(-20.88 373.075 82.405)" d="M359.07 81.31h28v2.22h-28z"/><path class="cls-7" transform="rotate(-69.12 345.36 82.412)" d="M344.25 68.41h2.22v28h-2.22z"/><path class="cls-10" transform="rotate(-69.12 345.36 82.412)" d="M344.25 68.41h2.22v28h-2.22z"/><path class="cls-7" transform="rotate(-20.88 373.075 82.405)" d="M359.07 81.31h28v2.22h-28z"/><path class="cls-10" transform="rotate(-20.88 373.075 82.405)" d="M359.07 81.31h28v2.22h-28z"/><path class="cls-7" transform="rotate(-69.12 401.06 82.41)" d="M399.95 68.41h2.22v28h-2.22z"/><path class="cls-10" transform="rotate(-69.12 401.06 82.41)" d="M399.95 68.41h2.22v28h-2.22z"/><path class="cls-7" transform="rotate(-20.88 428.765 82.426)" d="M414.77 81.31h28v2.22h-28z"/><path class="cls-10" transform="rotate(-20.88 428.765 82.426)" d="M414.77 81.31h28v2.22h-28z"/><path class="cls-7" transform="rotate(-20.88 457.633 82.442)" d="M443.64 81.32h28v2.22h-28z"/><path class="cls-10" transform="rotate(-20.88 457.633 82.442)" d="M443.64 81.32h28v2.22h-28z"/><path class="cls-10" d="M383.2 94.76h-20.77"/><path class="cls-9" d="M363.02 92.74l-3.5 2.02 3.5 2.02v-4.04z"/><path class="cls-10" d="M392.18 96.67h20.78"/><path class="cls-9" d="M412.37 98.69l3.5-2.02-3.5-2.02v4.04z"/><path class="cls-11" d="M36.41 64.21h61.12v30.15H36.41z"/><path class="cls-11" d="M34.73 62.53h64.48v33.49H34.73z"/><path d="M66.77 64H36.18v30.57h30.59zM66 93.77H37v-29h29z" stroke-width="1.47" stroke="#dc0663" fill="none" stroke-miterlimit="10"/><path class="cls-3" d="M35.74 99.43h31.94v.84H35.74z"/><path class="cls-4" d="M35.74 99.43h31.95v.84H35.74z"/><path d="M66.84 98.3h31.95v.84H66.84zm-31.94-.55h.84v2.52h-.84zm63.89.55h.84v2.52h-.84z" stroke-width=".57" stroke="#1e1e1b" fill="none" stroke-miterlimit="10"/><path class="cls-14" d="M198.52 2.76h79.3v39.11h-79.3z"/><path class="cls-14" d="M196.34.59h83.65v43.46h-83.65z"/><path class="cls-15" d="M237.92 2.47h-39.69v39.69h39.69zm-1 38.64h-37.64V3.52h37.59z"/><path class="cls-3" d="M197.65 48.46h41.45v1.09h-41.45z"/><path class="cls-16" d="M197.65 48.46h41.45v1.09h-41.45z"/><path class="cls-17" d="M238.01 46.99h41.45v1.09h-41.45zm-41.45-.71h1.09v3.27h-1.09z"/><path class="cls-17" d="M279.45 46.99h1.09v3.27h-1.09z"/><path class="cls-14" d="M199.06 69.63h79.3v39.11h-79.3z"/><path class="cls-14" d="M196.89 67.45h83.65v43.46h-83.65z"/><path class="cls-15" d="M239 69.34h39.69V109H239zm1 38.66h37.6V70.38H240z"/><path class="cls-3" d="M237.79 115.33h41.45v1.09h-41.45z"/><path class="cls-16" d="M237.79 115.33h41.45v1.09h-41.45z"/><path class="cls-17" d="M197.43 113.85h41.45v1.09h-41.45zm81.8-.71h1.09v3.27h-1.09zm-82.89.71h1.09v3.27h-1.09z"/><path class="cls-18" d="M209.4 54.99h13.69"/><path class="cls-3" d="M220.44 58.48l1.48-3.49-1.48-3.5 8.27 3.5-8.27 3.49z"/><path class="cls-18" d="M252.05 122.19h13.69"/><path class="cls-3" d="M254.7 125.68l-1.48-3.49 1.48-3.5-8.28 3.5 8.28 3.49z"/></g></g></svg>