<svg xmlns="http://www.w3.org/2000/svg" viewBox="0 0 98.98 98.24"><defs><clipPath id="clip-path"><path d="M44.63 86.46a41.83 41.83 0 1141.83-41.83 41.88 41.88 0 01-41.83 41.83z" fill="none"/></clipPath><style>.cls-2,.cls-53,.cls-6{fill:none}.cls-2{stroke:#000;stroke-width:.52px}.cls-53,.cls-6{stroke-width:.25px;stroke:#c7c7c7}.cls-6{stroke-width:.1px}</style></defs><g id="Слой_2" data-name="Слой 2"><g id="Москитные_сетки" data-name="Москитные сетки"><path class="cls-2" d="M51.9 41.21V11.32A1.38 1.38 0 0050.15 10L8.27 21.81M51.9 87.87V60.14m3.2 0v27.73"/><path class="cls-2" d="M11.4 17.6L49.28 6.91a4.59 4.59 0 015.82 4.41v29.89"/><path d="M51.2 17.78v-6.46a.69.69 0 00-.68-.68h-.19l-7.39 2.08-.78-4.52 6.92-2a5.51 5.51 0 011.45-.2 5.27 5.27 0 015.27 5.28v6.53z" stroke-width=".25" stroke-miterlimit="10" fill="#e1e1e1" stroke="#000"/><circle cx="44.63" cy="44.63" r="44.13" stroke="#e97e06" stroke-miterlimit="10" fill="none"/><g clip-path="url(#clip-path)"><path class="cls-6" d="M49.95 12.21v74.13"/><path stroke-width=".1" stroke="#c7c7c7" fill="none" d="M49.06 12.46v74.13"/><path stroke-width=".11" stroke="#c7c7c7" fill="none" d="M48.18 12.71v74.13m-.89-73.88v74.13m-.89-73.88v74.13"/><path stroke-width=".12" stroke="#c7c7c7" fill="none" d="M45.52 13.46v74.13m-.89-73.88v74.13m-.89-73.88v74.13"/><path stroke-width=".13" stroke="#c7c7c7" fill="none" d="M42.86 14.21v74.13m-.89-73.88v74.13m-.89-73.88v74.13"/><path stroke-width=".14" stroke="#c7c7c7" fill="none" d="M40.2 14.96v74.13m-.89-73.88v74.13m-.89-73.87v74.12m-.89-73.87v74.12"/><path stroke-width=".15" stroke="#c7c7c7" fill="none" d="M36.65 15.97v74.12m-.89-73.87v74.12m-.89-73.87V90.6"/><path stroke-width=".16" stroke="#c7c7c7" fill="none" d="M33.99 16.72v74.13m-.89-73.88V91.1m-.89-73.88v74.13"/><path stroke-width=".17" stroke="#c7c7c7" fill="none" d="M31.33 17.47V91.6m-.89-73.88v74.13m-.89-73.88V92.1"/><path stroke-width=".18" stroke="#c7c7c7" fill="none" d="M28.66 18.22v74.13m-.88-73.88V92.6m-.89-73.88v74.13"/><path stroke-width=".19" stroke="#c7c7c7" fill="none" d="M26 18.97V93.1m-.88-73.88v74.13m-.89-73.88V93.6"/><path stroke-width=".2" stroke="#c7c7c7" fill="none" d="M23.34 19.72v74.13m-.88-73.88V94.1m-.89-73.88v74.13"/><path stroke-width=".21" stroke="#c7c7c7" fill="none" d="M20.68 20.47V94.6m-.88-73.88v74.13m-.89-73.88V95.1m-.89-73.88v74.13"/><path stroke-width=".22" stroke="#c7c7c7" fill="none" d="M17.13 21.47V95.6m-.88-73.88v74.13m-.89-73.88V96.1"/><path stroke-width=".23" stroke="#c7c7c7" fill="none" d="M14.47 22.22v74.13m-.88-73.88V96.6m-.89-73.88v74.13"/><path stroke-width=".24" stroke="#c7c7c7" fill="none" d="M11.81 22.97V97.1m-.88-73.88v74.13m-.89-73.88V97.6"/><path stroke-width=".25" stroke="#c7c7c7" fill="none" d="M9.15 23.72v74.13"/><path class="cls-53" d="M8.27 23.97V98.1"/><path class="cls-6" d="M49.95 12.21L8.27 23.97"/><path stroke-width=".1" stroke="#c7c7c7" fill="none" d="M49.95 13.3L8.27 25.06m41.68-10.67L8.27 26.15"/><path stroke-width=".11" stroke="#c7c7c7" fill="none" d="M49.95 15.48L8.27 27.24m41.68-10.67L8.27 28.33m41.68-10.67L8.27 29.43m41.68-10.68L8.27 30.52"/><path stroke-width=".12" stroke="#c7c7c7" fill="none" d="M49.95 19.84L8.27 31.61m41.68-10.67L8.27 32.7m41.68-10.67L8.27 33.79m41.68-10.67L8.27 34.88m41.68-10.67L8.27 35.97"/><path stroke-width=".13" stroke="#c7c7c7" fill="none" d="M49.95 25.3L8.27 37.06m41.68-10.67L8.27 38.15m41.68-10.67L8.27 39.24m41.68-10.67L8.27 40.33"/><path stroke-width=".14" stroke="#c7c7c7" fill="none" d="M49.95 29.66L8.27 41.42m41.68-10.67L8.27 42.51m41.68-10.67L8.27 43.6m41.68-10.67L8.27 44.69m41.68-10.67L8.27 45.78"/><path stroke-width=".15" stroke="#c7c7c7" fill="none" d="M49.95 35.11L8.27 46.87M49.95 36.2L8.27 47.96m41.68-10.67L8.27 49.05m41.68-10.67L8.27 50.14"/><path stroke-width=".16" stroke="#c7c7c7" fill="none" d="M49.95 39.47L8.27 51.23m41.68-10.67L8.27 52.32m41.68-10.67L8.27 53.41m41.68-10.67L8.27 54.5m41.68-10.67L8.27 55.6"/><path stroke-width=".17" stroke="#c7c7c7" fill="none" d="M49.95 44.92L8.27 56.69m41.68-10.68L8.27 57.78m41.68-10.67L8.27 58.87M49.95 48.2L8.27 59.96"/><path stroke-width=".18" stroke="#c7c7c7" fill="none" d="M49.95 49.29L8.27 61.05m41.68-10.67L8.27 62.14m41.68-10.67L8.27 63.23m41.68-10.67L8.27 64.32m41.68-10.67L8.27 65.41"/><path stroke-width=".19" stroke="#c7c7c7" fill="none" d="M49.95 54.74L8.27 66.5m41.68-10.67L8.27 67.59m41.68-10.67L8.27 68.68m41.68-10.67L8.27 69.77M49.95 59.1L8.27 70.86"/><path stroke-width=".2" stroke="#c7c7c7" fill="none" d="M49.95 60.19L8.27 71.95m41.68-10.67L8.27 73.04m41.68-10.67L8.27 74.13m41.68-10.67L8.27 75.22"/><path stroke-width=".21" stroke="#c7c7c7" fill="none" d="M49.95 64.55L8.27 76.31m41.68-10.67L8.27 77.4m41.68-10.67L8.27 78.49m41.68-10.67L8.27 79.58m41.68-10.67L8.27 80.67"/><path stroke-width=".22" stroke="#c7c7c7" fill="none" d="M49.95 70L8.27 81.77m41.68-10.68L8.27 82.86m41.68-10.68L8.27 83.95m41.68-10.67L8.27 85.04"/><path stroke-width=".23" stroke="#c7c7c7" fill="none" d="M49.95 74.37L8.27 86.13m41.68-10.67L8.27 87.22m41.68-10.67L8.27 88.31m41.68-10.67L8.27 89.4m41.68-10.67L8.27 90.49"/><path stroke-width=".24" stroke="#c7c7c7" fill="none" d="M49.95 79.82L8.27 91.58m41.68-10.67L8.27 92.67M49.95 82L8.27 93.76m41.68-10.67L8.27 94.85"/><path stroke-width=".25" stroke="#c7c7c7" fill="none" d="M49.95 84.18L8.27 95.94m41.68-10.67L8.27 97.03"/><path class="cls-53" d="M49.95 86.36L8.27 98.12"/></g><circle cx="53.27" cy="50.67" r="7.87" stroke-linecap="round" stroke-linejoin="round" stroke-width=".57" fill="#fff" stroke="#000"/><circle cx="72.11" cy="50.67" r="7.87" fill="#a17c52" stroke-linecap="round" stroke-linejoin="round" stroke-width=".57" stroke="#000"/><circle cx="90.82" cy="50.67" r="7.87" fill="#c7c7c7" stroke-linecap="round" stroke-linejoin="round" stroke-width=".57" stroke="#000"/></g></g></svg>