<svg xmlns="http://www.w3.org/2000/svg" xmlns:xlink="http://www.w3.org/1999/xlink" viewBox="0 0 89.26 92.69"><defs><linearGradient id="Безымянный_градиент_4" x1="16.36" y1="28.17" x2="5.01" y2="52.94" gradientUnits="userSpaceOnUse"><stop offset="0" stop-color="#d5e4f5"/><stop offset=".11" stop-color="#cce0f3"/><stop offset=".3" stop-color="#b2d5ee"/><stop offset=".54" stop-color="#89c3e6"/><stop offset=".83" stop-color="#50aadb"/><stop offset="1" stop-color="#2999d4"/></linearGradient><linearGradient id="Безымянный_градиент_4-2" x1="21.2" y1="30.39" x2="9.85" y2="55.16" xlink:href="#Безымянный_градиент_4"/><clipPath id="clip-path"><path d="M44.63 86.46a41.83 41.83 0 1141.83-41.83 41.88 41.88 0 01-41.83 41.83z" fill="none"/></clipPath><style>.cls-5,.cls-54,.cls-7{fill:none}.cls-5{stroke:#000;stroke-width:.52px}.cls-54,.cls-7{stroke:#c7c7c7}.cls-7{stroke-width:.08px}.cls-54{stroke-width:.19px}</style></defs><g id="Слой_2" data-name="Слой 2"><g id="Москитные_сетки" data-name="Москитные сетки"><circle cx="44.63" cy="44.63" r="44.13" stroke="#e97e06" stroke-miterlimit="10" fill="none"/><path fill="url(#Безымянный_градиент_4)" d="M13.22 29.62l-5.5 14.36v8.46l9.55-23.96-4.05 1.14z"/><path fill="url(#Безымянный_градиент_4-2)" d="M19.34 27.89L7.72 57.92v8.45l11.62-29.15v-9.33z"/><path class="cls-5" d="M19.34 78.64V27.89L7.72 31.17"/><path class="cls-5" d="M7.72 24.5l17.76-5.01v61.79m38.99.75V8.31L32.15 17.5v67.26m-6.54-65.4l2.5 1.22v61.96M64.68 8.21l2.5 1.23v70.45"/><g clip-path="url(#clip-path)"><path class="cls-7" d="M63.24 10.26v73.88"/><path stroke-width=".08" stroke="#c7c7c7" fill="none" d="M62.6 10.44v73.88m-.63-73.7V84.5m-.63-73.7v73.88m-.64-73.7v73.88"/><path stroke-width=".09" stroke="#c7c7c7" fill="none" d="M60.07 11.16v73.88m-.63-73.7v73.88m-.64-73.7V85.4m-.63-73.7v73.88"/><path stroke-width=".1" stroke="#c7c7c7" fill="none" d="M57.54 11.88v73.88m-.64-73.7v73.88m-.63-73.7v73.88m-.63-73.7V86.3"/><path stroke-width=".11" stroke="#c7c7c7" fill="none" d="M55 12.6v73.88m-.63-73.7v73.88m-.63-73.7v73.88m-.64-73.7v73.88"/><path stroke-width=".12" stroke="#c7c7c7" fill="none" d="M52.47 13.32V87.2m-.63-73.7v73.88m-.64-73.7v73.88m-.63-73.7v73.88"/><path stroke-width=".13" stroke="#c7c7c7" fill="none" d="M49.94 14.04v73.88m-.64-73.69V88.1m-.63-73.69v73.87m-.63-73.69v73.87"/><path stroke-width=".14" stroke="#c7c7c7" fill="none" d="M47.4 14.77v73.87m-.63-73.69v73.87m-.63-73.69V89m-.64-73.69v73.87"/><path stroke-width=".15" stroke="#c7c7c7" fill="none" d="M44.87 15.49v73.87m-.63-73.69v73.87m-.64-73.69v73.87m-.63-73.69V89.9m-.64-73.69v73.87"/><path stroke-width=".16" stroke="#c7c7c7" fill="none" d="M41.7 16.39v73.87m-.63-73.69v73.87m-.64-73.69v73.87m-.63-73.69V90.8"/><path stroke-width=".17" stroke="#c7c7c7" fill="none" d="M39.17 17.11v73.87m-.64-73.69v73.87m-.63-73.69v73.87m-.63-73.69v73.87"/><path stroke-width=".18" stroke="#c7c7c7" fill="none" d="M36.63 17.83V91.7M36 18.01v73.87m-.63-73.69v73.87m-.64-73.69v73.87"/><path stroke-width=".19" stroke="#c7c7c7" fill="none" d="M34.1 18.55v73.87"/><path class="cls-54" d="M33.47 18.73V92.6"/><path class="cls-7" d="M63.24 10.26l-29.77 8.47"/><path stroke-width=".08" stroke="#c7c7c7" fill="none" d="M63.24 11.35l-29.77 8.47m29.77-7.39L33.47 20.9m29.77-7.38l-29.77 8.47m29.77-7.38l-29.77 8.46m29.77-7.38l-29.77 8.47"/><path stroke-width=".09" stroke="#c7c7c7" fill="none" d="M63.24 16.78l-29.77 8.47m29.77-7.38l-29.77 8.46m29.77-7.38l-29.77 8.47m29.77-7.38l-29.77 8.47m29.77-7.38l-29.77 8.46m29.77-7.38l-29.77 8.47"/><path stroke-width=".1" stroke="#c7c7c7" fill="none" d="M63.24 23.3l-29.77 8.47m29.77-7.38l-29.77 8.46m29.77-7.38l-29.77 8.47m29.77-7.38l-29.77 8.46m29.77-7.38l-29.77 8.47m29.77-7.38L33.47 37.2"/><path stroke-width=".11" stroke="#c7c7c7" fill="none" d="M63.24 29.82l-29.77 8.46m29.77-7.38l-29.77 8.47m29.77-7.38l-29.77 8.47m29.77-7.38l-29.77 8.46m29.77-7.38l-29.77 8.47m29.77-7.38l-29.77 8.47"/><path stroke-width=".12" stroke="#c7c7c7" fill="none" d="M63.24 36.34L33.47 44.8m29.77-7.38l-29.77 8.47m29.77-7.38l-29.77 8.47m29.77-7.39l-29.77 8.47m29.77-7.38l-29.77 8.47m29.77-7.38l-29.77 8.46"/><path stroke-width=".13" stroke="#c7c7c7" fill="none" d="M63.24 42.85l-29.77 8.47m29.77-7.38l-29.77 8.47m29.77-7.38l-29.77 8.46m29.77-7.38l-29.77 8.47m29.77-7.38l-29.77 8.47m29.77-7.38l-29.77 8.46"/><path stroke-width=".14" stroke="#c7c7c7" fill="none" d="M63.24 49.37l-29.77 8.47m29.77-7.38l-29.77 8.47m29.77-7.38l-29.77 8.46m29.77-7.38L33.47 61.1m29.77-7.38l-29.77 8.46m29.77-7.38l-29.77 8.47"/><path stroke-width=".15" stroke="#c7c7c7" fill="none" d="M63.24 55.89l-29.77 8.47m29.77-7.38l-29.77 8.46m29.77-7.38l-29.77 8.47m29.77-7.38l-29.77 8.47m29.77-7.38L33.47 68.7m29.77-7.38l-29.77 8.47"/><path stroke-width=".16" stroke="#c7c7c7" fill="none" d="M63.24 62.41l-29.77 8.47m29.77-7.38l-29.77 8.46m29.77-7.38l-29.77 8.47m29.77-7.38l-29.77 8.47m29.77-7.39l-29.77 8.47m29.77-7.38l-29.77 8.47"/><path stroke-width=".17" stroke="#c7c7c7" fill="none" d="M63.24 68.93l-29.77 8.46m29.77-7.38l-29.77 8.47m29.77-7.38l-29.77 8.47m29.77-7.38l-29.77 8.46m29.77-7.38l-29.77 8.47m29.77-7.38l-29.77 8.47"/><path stroke-width=".18" stroke="#c7c7c7" fill="none" d="M63.24 75.45l-29.77 8.46m29.77-7.38L33.47 85m29.77-7.38l-29.77 8.47m29.77-7.38l-29.77 8.46m29.77-7.38l-29.77 8.47m29.77-7.38l-29.77 8.47"/><path stroke-width=".19" stroke="#c7c7c7" fill="none" d="M63.24 81.96l-29.77 8.47m29.77-7.38l-29.77 8.47"/><path class="cls-54" d="M63.24 84.14L33.47 92.6"/></g><path class="cls-5" d="M63.17 82.03v-72l-29.72 8.46v66.27"/><ellipse class="cls-5" cx="44.63" cy="11.74" rx="2.55" ry="1.92" transform="rotate(-49.05 44.625 11.74)"/><ellipse class="cls-5" cx="49.83" cy="10.26" rx="2.55" ry="1.92" transform="rotate(-49.05 49.827 10.262)"/><path d="M81.92 41.05l-11.15-3.23v3.64l-17.29 4.72v5.26l17.29-4.72v3.64l11.15-9.31z"/></g></g></svg>