<svg xmlns="http://www.w3.org/2000/svg" viewBox="0 0 107.87 98.24"><defs><clipPath id="clip-path"><path d="M44.63 86.46a41.83 41.83 0 1141.83-41.83 41.88 41.88 0 01-41.83 41.83z" fill="none"/></clipPath><style>.cls-3,.cls-53,.cls-6{fill:none}.cls-3{stroke:#000;stroke-width:.52px}.cls-53,.cls-6{stroke-width:.25px;stroke:#c7c7c7}.cls-6{stroke-width:.1px}</style></defs><g id="Слой_2" data-name="Слой 2"><g id="Москитные_сетки" data-name="Москитные сетки"><circle cx="44.63" cy="44.63" r="44.13" stroke-miterlimit="10" stroke="#e97e06" fill="none"/><path class="cls-3" d="M51.9 87.87V11.32A1.38 1.38 0 0050.15 10L8.27 21.81"/><path class="cls-3" d="M11.4 17.6L49.28 6.91a4.59 4.59 0 015.82 4.41v76.55"/><path d="M51.2 17.78v-6.46a.69.69 0 00-.68-.68h-.19l-7.39 2.08-.78-4.52 6.92-2a5.51 5.51 0 011.45-.2 5.27 5.27 0 015.27 5.28v6.53z" stroke-width=".25" fill="#e1e1e1" stroke="#000" stroke-miterlimit="10"/><g clip-path="url(#clip-path)"><path class="cls-6" d="M49.95 12.21v74.13"/><path stroke-width=".1" stroke="#c7c7c7" fill="none" d="M49.06 12.46v74.13"/><path stroke-width=".11" stroke="#c7c7c7" fill="none" d="M48.18 12.71v74.13m-.89-73.88v74.13m-.89-73.88v74.13"/><path stroke-width=".12" stroke="#c7c7c7" fill="none" d="M45.52 13.46v74.13m-.89-73.88v74.13m-.89-73.88v74.13"/><path stroke-width=".13" stroke="#c7c7c7" fill="none" d="M42.86 14.21v74.13m-.89-73.88v74.13m-.89-73.88v74.13"/><path stroke-width=".14" stroke="#c7c7c7" fill="none" d="M40.2 14.96v74.13m-.89-73.88v74.13m-.89-73.87v74.12m-.89-73.87v74.12"/><path stroke-width=".15" stroke="#c7c7c7" fill="none" d="M36.65 15.97v74.12m-.89-73.87v74.12m-.89-73.87V90.6"/><path stroke-width=".16" stroke="#c7c7c7" fill="none" d="M33.99 16.72v74.13m-.89-73.88V91.1m-.89-73.88v74.13"/><path stroke-width=".17" stroke="#c7c7c7" fill="none" d="M31.33 17.47V91.6m-.89-73.88v74.13m-.89-73.88V92.1"/><path stroke-width=".18" stroke="#c7c7c7" fill="none" d="M28.66 18.22v74.13m-.88-73.88V92.6m-.89-73.88v74.13"/><path stroke-width=".19" stroke="#c7c7c7" fill="none" d="M26 18.97V93.1m-.88-73.88v74.13m-.89-73.88V93.6"/><path stroke-width=".2" stroke="#c7c7c7" fill="none" d="M23.34 19.72v74.13m-.88-73.88V94.1m-.89-73.88v74.13"/><path stroke-width=".21" stroke="#c7c7c7" fill="none" d="M20.68 20.47V94.6m-.88-73.88v74.13m-.89-73.88V95.1m-.89-73.88v74.13"/><path stroke-width=".22" stroke="#c7c7c7" fill="none" d="M17.13 21.47V95.6m-.88-73.88v74.13m-.89-73.88V96.1"/><path stroke-width=".23" stroke="#c7c7c7" fill="none" d="M14.47 22.22v74.13m-.88-73.88V96.6m-.89-73.88v74.13"/><path stroke-width=".24" stroke="#c7c7c7" fill="none" d="M11.81 22.97V97.1m-.88-73.88v74.13m-.89-73.88V97.6"/><path stroke-width=".25" stroke="#c7c7c7" fill="none" d="M9.15 23.72v74.13"/><path class="cls-53" d="M8.27 23.97V98.1"/><path class="cls-6" d="M49.95 12.21L8.27 23.97"/><path stroke-width=".1" stroke="#c7c7c7" fill="none" d="M49.95 13.3L8.27 25.06m41.68-10.67L8.27 26.15"/><path stroke-width=".11" stroke="#c7c7c7" fill="none" d="M49.95 15.48L8.27 27.24m41.68-10.67L8.27 28.33m41.68-10.67L8.27 29.43m41.68-10.68L8.27 30.52"/><path stroke-width=".12" stroke="#c7c7c7" fill="none" d="M49.95 19.84L8.27 31.61m41.68-10.67L8.27 32.7m41.68-10.67L8.27 33.79m41.68-10.67L8.27 34.88m41.68-10.67L8.27 35.97"/><path stroke-width=".13" stroke="#c7c7c7" fill="none" d="M49.95 25.3L8.27 37.06m41.68-10.67L8.27 38.15m41.68-10.67L8.27 39.24m41.68-10.67L8.27 40.33"/><path stroke-width=".14" stroke="#c7c7c7" fill="none" d="M49.95 29.66L8.27 41.42m41.68-10.67L8.27 42.51m41.68-10.67L8.27 43.6m41.68-10.67L8.27 44.69m41.68-10.67L8.27 45.78"/><path stroke-width=".15" stroke="#c7c7c7" fill="none" d="M49.95 35.11L8.27 46.87M49.95 36.2L8.27 47.96m41.68-10.67L8.27 49.05m41.68-10.67L8.27 50.14"/><path stroke-width=".16" stroke="#c7c7c7" fill="none" d="M49.95 39.47L8.27 51.23m41.68-10.67L8.27 52.32m41.68-10.67L8.27 53.41m41.68-10.67L8.27 54.5m41.68-10.67L8.27 55.6"/><path stroke-width=".17" stroke="#c7c7c7" fill="none" d="M49.95 44.92L8.27 56.69m41.68-10.68L8.27 57.78m41.68-10.67L8.27 58.87M49.95 48.2L8.27 59.96"/><path stroke-width=".18" stroke="#c7c7c7" fill="none" d="M49.95 49.29L8.27 61.05m41.68-10.67L8.27 62.14m41.68-10.67L8.27 63.23m41.68-10.67L8.27 64.32m41.68-10.67L8.27 65.41"/><path stroke-width=".19" stroke="#c7c7c7" fill="none" d="M49.95 54.74L8.27 66.5m41.68-10.67L8.27 67.59m41.68-10.67L8.27 68.68m41.68-10.67L8.27 69.77M49.95 59.1L8.27 70.86"/><path stroke-width=".2" stroke="#c7c7c7" fill="none" d="M49.95 60.19L8.27 71.95m41.68-10.67L8.27 73.04m41.68-10.67L8.27 74.13m41.68-10.67L8.27 75.22"/><path stroke-width=".21" stroke="#c7c7c7" fill="none" d="M49.95 64.55L8.27 76.31m41.68-10.67L8.27 77.4m41.68-10.67L8.27 78.49m41.68-10.67L8.27 79.58m41.68-10.67L8.27 80.67"/><path stroke-width=".22" stroke="#c7c7c7" fill="none" d="M49.95 70L8.27 81.77m41.68-10.68L8.27 82.86m41.68-10.68L8.27 83.95m41.68-10.67L8.27 85.04"/><path stroke-width=".23" stroke="#c7c7c7" fill="none" d="M49.95 74.37L8.27 86.13m41.68-10.67L8.27 87.22m41.68-10.67L8.27 88.31m41.68-10.67L8.27 89.4m41.68-10.67L8.27 90.49"/><path stroke-width=".24" stroke="#c7c7c7" fill="none" d="M49.95 79.82L8.27 91.58m41.68-10.67L8.27 92.67M49.95 82L8.27 93.76m41.68-10.67L8.27 94.85"/><path stroke-width=".25" stroke="#c7c7c7" fill="none" d="M49.95 84.18L8.27 95.94m41.68-10.67L8.27 97.03"/><path class="cls-53" d="M49.95 86.36L8.27 98.12"/></g><path d="M106.92 52a3.81 3.81 0 00-1.39-.81l-.86-.3a17.61 17.61 0 00.73-5.42l.3-.11a3.11 3.11 0 00-1.55-6 25 25 0 00-1.33-2.78c0-1 .09-2.22.13-3.8a3.23 3.23 0 00-.85-2.27 3.11 3.11 0 001-2.19c0-.5.07-1.73.14-3.7a3.61 3.61 0 00-1.64-3.21 3.9 3.9 0 00-3.83-.18l-11 5.41h-.09a25.32 25.32 0 00-5 0h-.17l-11-5.37a3.85 3.85 0 00-3.82 0 3.66 3.66 0 00-1.82 3.39l.42 11.56v.37a18.26 18.26 0 00-1.29 2.8 3.19 3.19 0 00-2.22.38 3.14 3.14 0 00-1.46 2.28v.69l.05.26a3.16 3.16 0 002.06 2.38l.36.13a18.1 18.1 0 00.74 5.42l-1.18.42a3.12 3.12 0 00-2 2.47v.86A3.14 3.14 0 0061.81 57a3.45 3.45 0 003 .15l1.51-.54c.36.48.74.95 1.13 1.4A3.35 3.35 0 0070 59.12h.18a3.16 3.16 0 001.41 2.38 23.35 23.35 0 0017.87 3.06 21.28 21.28 0 0012.43-8l1.83.64a3.14 3.14 0 003.74-1.31 3.08 3.08 0 00-.54-3.89zm-16.67-3.64c0 .08-.08.17-.13.26 0-.11.07-.22.1-.32a.33.33 0 01.03.06zm-12.31-.07c0 .13.08.26.13.38a1.91 1.91 0 00-.16-.32l.03-.06z" fill="#fff"/><path d="M68.55 53.16l6.88-2.44a.62.62 0 10-.31-1.2L67.94 52a13.91 13.91 0 01-1.32-7.73h.05l8.39 3a.63.63 0 10.46-1.27l-8.68-3a14.81 14.81 0 011.12-3.22 12 12 0 001-2.16 5.58 5.58 0 00.11-1.62c-.14-3.79-.27-7.56-.42-11.33h.06L80 30.15a2.91 2.91 0 001.56.32 25.25 25.25 0 014.67 0 3.24 3.24 0 001.69-.17q5.76-2.82 11.54-5.66L99.39 28a1.39 1.39 0 00.06.56.62.62 0 001.18-.28c0-.5.07-1.72.13-3.68a1.22 1.22 0 00-1.87-1.06l-11 5.41a2.3 2.3 0 01-1.21.31 22.66 22.66 0 00-4.73 0 2.4 2.4 0 01-1.32-.13l-11.19-5.55a1.37 1.37 0 00-1.44-.1 1.19 1.19 0 00-.59 1.15q.21 5.76.41 11.52a2.74 2.74 0 01-.26 1.66 16.27 16.27 0 00-1.92 4.67.06.06 0 01-.08.05l-1.72-.61c-.52-.18-1-.11-1.05.5v.06a.69.69 0 00.46.55l2.1.74a.07.07 0 010 .07 15.27 15.27 0 001.33 8.52.07.07 0 010 .1l-3.51 1.24a.61.61 0 00-.38.53c.11.72.62.67 1.17.47l3.33-1.17h.06a18.9 18.9 0 002 2.72c.71.8 1.59-.08 1-.76a18.76 18.76 0 01-1.8-2.33z"/><path d="M72.28 28.68a1.05 1.05 0 00-1.38.15 1.18 1.18 0 00-.26 1c.09 1.3.17 2.6.26 3.89a3 3 0 00.13.81 1.06 1.06 0 001.65.34 13.21 13.21 0 013.55-2.11 1.06 1.06 0 000-2zm3.06 3.09a13.09 13.09 0 00-3.11 1.88h-.09l-.25-3.68 3.39 1.78.06.02zm20.85-3.24l-.76.39c-1.24.65-2.48 1.31-3.7 2a1 1 0 00.18 1.85 12.86 12.86 0 013.49 2.06 1.07 1.07 0 001.85-.76c.09-1.32.17-2.63.26-3.95a5.51 5.51 0 000-.76 1.07 1.07 0 00-1.32-.83zM96 33.62h-.07a13.45 13.45 0 00-3.13-1.87v-.06l3.4-1.79h.06q-.11 1.82-.24 3.54a.22.22 0 00-.02.18z"/><path d="M104.7 53.59l-3.23-1.14v-.06a15.18 15.18 0 001.32-8.56.08.08 0 010-.06l2-.71c1-.35.56-1.51-.48-1.15l-1.76.62h-.06a18.51 18.51 0 00-2-4.79 2.16 2.16 0 01-.25-1.13c0-.95.09-2.23.13-3.84a.62.62 0 00-1.18-.34 1.64 1.64 0 00-.07.51c0 1-.07 2.08-.1 3.12a4 4 0 00.44 2.4 16.89 16.89 0 011.8 4.5c-2.87 1-5.75 2-8.62 3.06a.61.61 0 00.14 1.2 1.81 1.81 0 00.54-.13l8.14-2.87h.06a14 14 0 01-1.32 7.7h-.06l-7.08-2.5a.62.62 0 10-.42 1.17l6.9 2.44c-5.3 8.67-17.45 10.6-25.83 5.3-.32-.19-.6-.35-.91-.12a.63.63 0 000 1c9 5.86 22.16 3.78 27.91-5.79a.08.08 0 01.09 0l3.6 1.28a.62.62 0 00.68-1 1.48 1.48 0 00-.38-.11zM77.18 42a1.32 1.32 0 101.32-1.3 1.32 1.32 0 00-1.32 1.3z"/><path d="M88.34 42a1.33 1.33 0 101.33-1.33A1.33 1.33 0 0088.34 42zm-6.81 11.12c-.5.14-1.49-.07-1.5.72 0 1 1.75.53 2.33.31a3.44 3.44 0 001.69-1.39h.07a3.83 3.83 0 003.41 1.7.62.62 0 10-.06-1.24 2.57 2.57 0 01-2.73-2.32.08.08 0 01.05-.07 5.48 5.48 0 002.82-2.67c.61-1.17.14-2-1.11-2.18-1-.17-5.93-.6-6.18.94a2.56 2.56 0 00.68 1.86 5 5 0 002.42 2v.06a2.47 2.47 0 01-1.89 2.28zm0-5.77a.06.06 0 010-.09 13 13 0 014.9 0 .1.1 0 01.07.15 4.77 4.77 0 01-1.94 2.13c-1.18.6-2.56-1.26-2.99-2.19z"/><path d="M76.36 39.39l4.56 2.64m10.34-2.64l-4.55 2.64" stroke-miterlimit="10" stroke="#000" fill="none"/><path d="M20.89 36.87a8.78 8.78 0 00-3.19 4.21l5.74-2a28.49 28.49 0 00-5.82 7.16l2.85-1.67a18.59 18.59 0 00-3.56 6.19A3.1 3.1 0 0118 49.44 28.58 28.58 0 0014.32 55a19.24 19.24 0 012.15-6.93l-.51.47a17.08 17.08 0 01.51-4.5l1.07-2.31a22 22 0 01-2.51.53c.12-1 .28-2.59 1.1-3.23a16.53 16.53 0 014.76-2.16zm3.81 3.79l2.83-1.47a52.07 52.07 0 00-5 7l1.29-1.43-4.17 6.91L22 48.78l-.46 1A74.7 74.7 0 0028 41l-.32.28a13.19 13.19 0 002.4-4.53 1.07 1.07 0 00-1.07.21l.86-1.87c-1.11.45-2.14.65-2.76 1.71-.77 1.28-1.6 2.57-2.41 3.86zm5.38 2.28l-2.66 4.2 1.87-1.25a27.5 27.5 0 00-2.5 4.46l1.28-.91a11.65 11.65 0 01-1.55 3.92c1.82-2.29 3.54-4.66 5.13-7.12l-1.13 1 1.55-4.1-.73.4-.07-1a11.6 11.6 0 00-2.56 1.29m-2.26 13.85a3.64 3.64 0 001.32-1.08 2.37 2.37 0 01-.5 1.76l.92-1a31.53 31.53 0 01-2.85 6c1.21-3.86 4.48-6.93 5.17-10.92-.43.47-.86 1-1.33 1.41-.05-.38.17-1.08-.32-1s-.6.91-.69 1.2a12.58 12.58 0 01-1.72 3.63z"/></g></g></svg>