<svg xmlns="http://www.w3.org/2000/svg" viewBox="0 0 108.23 108.23"><defs><style>.cls-1,.cls-3{fill:none;stroke:#000;stroke-width:3px;stroke-miterlimit:10}.cls-3{stroke:red;stroke-width:3.99px}</style></defs><g id="Слой_2" data-name="Слой 2"><g id="Москитные_сетки" data-name="Москитные сетки"><circle class="cls-1" cx="54.02" cy="33.98" r="5.05"/><path class="cls-1" d="M60.75 47.44a6.83 6.83 0 10-13.28.07L49.56 64v.24a2 2 0 000 .25v16.18a4.6 4.6 0 009.19 0V64.02z"/><path d="M65.29 13.44l-8.62 16.25m-16.89.36v13.01l7.69 4.45m-5.41 37.15V67.68l7.33-4.94m16.85 21.92V67.68l-7.33-4.94m-12.22-14.3s-15.11 7.5-20.07 10.39c-1.79 1-4.32 4.67-1.87 8.06 2.21 3.07 6.66 2.31 8.19.33 3.55-4.61 13.75-18.78 13.75-18.78zm21.75-18.39v13.01l-7.69 4.45m.79.93s15.1 7.5 20.07 10.39c1.78 1 4.31 4.67 1.87 8.06-2.21 3.07-6.67 2.31-8.2.33-3.55-4.61-13.74-18.78-13.74-18.78zm-12.15 14.3h9.51" stroke-linecap="round" stroke-linejoin="round" stroke="#000" stroke-width="3" fill="none"/><path class="cls-3" d="M92.17 18.76L16.06 89.47"/><circle class="cls-3" cx="54.11" cy="54.11" r="52.12"/></g></g></svg>