<svg width="18" height="14" fill="none" xmlns="http://www.w3.org/2000/svg"><path fill-rule="evenodd" clip-rule="evenodd" d="M1.228 6.044c4.833-1.965 8.05-3.278 9.665-3.919C15.487.32 16.453.011 17.08 0c.136 0 .443.021.648.182.17.128.205.299.239.427s.057.405.023.608c-.25 2.467-1.33 8.437-1.877 11.181-.238 1.164-.693 1.56-1.137 1.591-.966.075-1.694-.598-2.626-1.164-1.467-.897-2.274-1.452-3.696-2.328-1.637-1.014-.58-1.57.364-2.477.25-.235 4.48-3.866 4.571-4.186.012-.043.012-.193-.08-.267-.09-.075-.238-.054-.34-.022-.148.022-2.468 1.474-6.982 4.347-.66.427-1.251.63-1.797.62-.591-.012-1.728-.31-2.581-.567C.762 7.625-.068 7.454 0 6.91c.046-.288.455-.566 1.228-.865z" fill="#988577"/></svg>