<svg width="97" height="109" viewBox="0 0 97 109" fill="none" xmlns="http://www.w3.org/2000/svg">
<g id="Group 1">
<g id="&#208;&#161;&#208;&#162;&#208;&#144;&#208;&#162;&#208;&#172; &#208;&#148;&#208;&#152;&#208;&#155;&#208;&#149;&#208;&#160;&#208;&#158;&#208;&#156;+&#208;&#146;&#208;&#152;&#208;&#148;&#208;&#149;&#208;&#158;">
<g id="Group">
<path id="Vector" fill-rule="evenodd" clip-rule="evenodd" d="M2 39V23C2 21.3351 3.38539 20.3127 5 20L93 1.99996C93.4385 1.96969 95.0199 1.54812 95 3.99996V18C95 19.6648 93.6146 20.6771 92 21L2 39Z" stroke="#ED7E06" stroke-width="3.89" stroke-linecap="round" stroke-linejoin="round"/>
<path id="Vector_2" d="M16 17L9 37M30 14L23 34M45 12L38 31M59 9L52 28M74 6L67 26M88 3L81 23" stroke="#ED7E06" stroke-width="3.89" stroke-linecap="round" stroke-linejoin="round"/>
<path id="Vector_3" d="M74 57L66 43" stroke="#ED7E06" stroke-width="3.89" stroke-linecap="round" stroke-linejoin="round"/>
<path id="Vector_4" d="M59 57L51 43" stroke="#ED7E06" stroke-width="3.89" stroke-linecap="round" stroke-linejoin="round"/>
<path id="Vector_5" d="M36 43L44 57" stroke="#ED7E06" stroke-width="3.89" stroke-linecap="round" stroke-linejoin="round"/>
<path id="Vector_6" d="M29 57L21 43" stroke="#ED7E06" stroke-width="3.89" stroke-linecap="round" stroke-linejoin="round"/>
<path id="Vector_7" d="M14 57L6 43" stroke="#ED7E06" stroke-width="3.89" stroke-linecap="round" stroke-linejoin="round"/>
<path id="Vector_8" d="M80 43L88 57" stroke="#ED7E06" stroke-width="3.89" stroke-linecap="round" stroke-linejoin="round"/>
<path id="Vector_9" d="M2 57H95" stroke="#ED7E06" stroke-width="3.89" stroke-linecap="round" stroke-linejoin="round"/>
<path id="Vector_10" d="M2 41H91C93.1424 41 95 42.8536 95 45V103C95 105.146 93.1424 107 91 107H6C3.8576 107 2 105.146 2 103V41Z" stroke="#ED7E06" stroke-width="3.89" stroke-linecap="round" stroke-linejoin="round"/>
<path id="Vector_11" d="M84 68H14V95H84V68Z" stroke="#ED7E06" stroke-width="3.89" stroke-linecap="round" stroke-linejoin="round"/>
</g>
</g>
<g id="&#208;&#161;&#208;&#162;&#208;&#144;&#208;&#162;&#208;&#172; &#208;&#148;&#208;&#152;&#208;&#155;&#208;&#149;&#208;&#160;&#208;&#158;&#208;&#156;+&#208;&#146;&#208;&#152;&#208;&#148;&#208;&#149;&#208;&#158;_2">
<path id="Vector_12" d="M46.9399 91.9099V70.9399L57.4299 81.4299L46.9399 91.9099Z" stroke="#ED7E06" stroke-width="3.89" stroke-linecap="round" stroke-linejoin="round"/>
</g>
</g>
</svg>
