<svg width="1920" height="1097" fill="none" xmlns="http://www.w3.org/2000/svg"><mask id="a" style="mask-type:luminance" maskUnits="userSpaceOnUse" x="0" y="0" width="1920" height="1097"><path d="M1920 0H0v1097h1920V0z" fill="#fff"/></mask><g mask="url(#a)" stroke="#F2F2F2" stroke-miterlimit="10"><path d="M927.229 4.344c-4.488 29.612-87.743 84.352-154.485 71.17-66.751-13.183-114.404-63.458-89.538-153.29" stroke-width=".5"/><path d="M942.923 25.838c-5.101 33.662-95.634 88.412-171.636 74.417C692.209 85.946 638.149 34.91 667.396-78.182" stroke-width=".55"/><path d="M958.618 47.321c-5.714 37.722-103.508 92.269-188.78 77.665-91.386-15.648-151.863-67.232-118.243-203.585" stroke-width=".6"/><path d="M974.313 68.805c-6.328 41.771-111.391 96.267-205.933 80.903-103.712-16.846-170.588-69.12-132.595-228.733" stroke-width=".65"/><path d="M990.016 90.29c-6.941 45.829-119.283 100.275-223.075 84.149-116.04-18.033-189.323-71.018-146.958-253.88" stroke-width=".7"/><path d="M1005.71 111.784c-7.553 49.879-127.183 104.304-240.227 87.397-128.365-19.201-208.047-72.905-161.31-279.027" stroke-width=".75"/><path d="M1021.41 133.267c-8.17 53.928-135.08 108.343-257.375 90.645-140.701-20.358-226.773-74.793-175.663-304.185" stroke-width=".8"/><path d="M1037.1 154.751c-8.78 57.988-142.967 112.383-274.523 93.882-153.036-21.514-245.507-76.68-190.015-329.332" stroke-width=".85"/><path d="M1052.79 176.245c-9.39 62.037-150.863 116.421-291.661 97.129-165.363-22.661-264.232-78.578-204.369-354.48" stroke-width=".9"/><path d="M1068.49 197.729c-10.01 66.096-158.76 120.471-308.819 100.377C581.973 274.298 476.714 217.64 540.95-81.521" stroke-width=".95"/><path d="M1084.18 219.213c-10.62 70.145-166.656 124.53-325.958 103.614-190.033-24.944-301.691-82.353-233.082-404.774"/><path d="M1099.88 240.707c-11.23 74.205-174.553 128.579-343.115 106.862-202.36-26.071-320.416-84.241-247.435-429.922" stroke-width="1.05"/><path d="M1115.57 262.191c-11.84 78.254-182.449 132.638-360.254 110.109-214.695-27.207-339.141-86.128-261.788-455.07" stroke-width="1.1"/><path d="M1131.27 283.675c-12.46 82.313-190.391 137.114-377.411 113.357-227.075-27.837-357.876-88.027-276.141-480.217" stroke-width="1.15"/><path d="M1146.96 305.159c-13.07 86.362-198.278 141.173-394.55 116.594C513 392.79 375.81 331.839 461.917-83.612" stroke-width="1.2"/><path d="M1162.66 326.653c-13.7 90.421-206.184 145.232-411.707 119.841-251.746-30.09-395.326-91.801-304.846-530.512" stroke-width="1.25"/><path d="M1178.35 348.137c-14.31 94.471-214.071 149.292-428.846 123.089-264.081-31.216-414.051-93.689-319.207-555.66" stroke-width="1.3"/><path d="M1194.05 369.621c-14.92 98.52-221.968 153.341-445.994 126.326C471.648 463.604 315.271 400.37 414.495-84.86" stroke-width="1.35"/><path d="M1209.75 391.115c-15.53 102.579-229.865 157.4-463.143 129.574-288.742-33.47-451.51-97.475-347.913-605.955" stroke-width="1.4"/><path d="M1225.45 412.599C1209.3 519.227 987.688 574.058 745.158 545.42 444.08 510.824 274.923 446.058 382.893-85.682" stroke-width="1.45"/><path d="M1241.14 434.083c-16.76 110.688-245.658 165.519-497.439 136.068-313.413-35.732-488.969-101.249-376.619-656.25" stroke-width="1.5"/><path d="M1256.83 455.567c-17.37 114.736-253.55 169.578-514.578 139.305-325.739-36.858-507.694-103.137-390.971-681.396" stroke-width="1.55"/><path d="M1272.53 477.061c-17.99 118.796-261.45 173.638-531.735 142.553C402.72 581.629 214.375 514.59 335.462-86.94" stroke-width="1.6"/><path d="M1288.22 498.545c-18.6 122.845-269.34 177.697-548.874 145.801-350.41-39.112-545.154-106.923-419.685-731.702" stroke-width="1.65"/><path d="M1303.92 520.029c-19.22 126.904-277.24 181.756-566.031 149.038-362.737-40.238-563.879-108.81-434.038-756.85" stroke-width="1.7"/><path d="M1319.61 541.523c-19.82 130.954-285.13 185.815-583.17 152.285-375.072-41.364-582.604-110.697-448.391-781.996" stroke-width="1.75"/><path d="M1335.31 563.007c-20.44 135.013-293.03 189.875-600.327 155.533-387.408-42.491-601.339-112.585-462.744-807.144" stroke-width="1.8"/><path d="M1351 584.491c-21.05 139.062-300.92 193.923-617.466 158.78-399.743-43.617-620.063-114.483-477.096-832.292" stroke-width="1.85"/><path d="M1366.7 605.975c-21.67 143.111-308.82 197.983-634.624 162.017-412.069-44.743-638.788-116.37-491.457-857.439" stroke-width="1.9"/><path d="M1382.39 627.469c-22.29 147.171-316.72 202.043-651.762 165.265-424.404-45.88-657.523-118.258-505.811-882.587" stroke-width="1.95"/><path d="M1398.09 648.953c-22.91 151.219-324.61 206.101-668.92 168.512C292.44 770.458 52.932 697.32 209.016-90.269" stroke-width="2"/><path d="M1413.79 670.437c-23.52 155.279-332.51 210.161-686.059 171.75C278.656 794.064 32.749 720.154 193.206-90.685" stroke-width="2.05"/><path d="M1429.48 691.931c-24.12 159.328-340.4 214.22-703.207 174.997-461.401-49.26-713.707-123.931-548.868-958.03" stroke-width="2.1"/><path d="M1445.18 713.415c-24.74 163.388-348.3 218.28-720.355 178.245C251.079 841.273-7.616 765.841 161.595-91.517" stroke-width="2.15"/><path d="M1460.87 734.899c-25.35 167.436-356.19 222.339-737.503 181.492C237.295 864.878-27.79 788.685 145.793-91.933" stroke-width="2.2"/><path d="M1476.57 756.393c-25.97 171.496-364.1 226.399-754.652 184.73-498.407-52.64-769.89-129.594-591.935-1033.472" stroke-width="2.25"/><path d="M1492.26 777.877c-26.58 175.545-371.99 230.453-771.799 187.977C209.727 912.089-68.155 834.363 114.173-92.776" stroke-width="2.3"/><path d="M1507.96 799.361c-27.2 179.605-379.88 234.519-788.948 191.224C195.943 935.693-88.329 857.206 98.372-93.191" stroke-width="2.35"/><path d="M1523.65 820.845c-27.81 183.655-387.78 238.565-806.086 194.465C182.159 959.298-108.512 880.05 82.561-93.608" stroke-width="2.4"/><path d="M1539.35 842.339c-28.42 187.701-395.68 242.621-823.244 197.711C168.375 982.893-128.694 902.894 66.76-94.024" stroke-width="2.45"/><path d="M1555.04 863.823c-29.03 191.757-403.57 246.687-840.382 200.957C154.583 1006.5-148.877 925.737 50.95-94.44" stroke-width="2.5"/><path d="M1570.74 885.306c-29.65 195.814-411.47 250.744-857.54 204.204C140.799 1030.1-169.051 948.571 35.148-94.856" stroke-width="2.55"/><path d="M1586.43 906.801c-30.26 199.869-419.36 254.799-874.678 207.439C127.015 1053.71-189.233 971.415 19.338-95.272" stroke-width="2.6"/><path d="M1602.13 928.285c-30.89 203.915-427.26 258.865-891.836 210.685C113.231 1077.31-209.416 994.259 3.528-95.688" stroke-width="2.65"/><path d="M1617.82 949.769c-31.5 207.981-435.16 262.921-908.974 213.931-609.4-62.78-938.445-146.6-721.12-1259.804" stroke-width="2.7"/><path d="M1633.52 971.252c-32.11 212.028-443.05 266.978-926.123 217.178-621.734-63.91-957.169-148.48-735.48-1284.95" stroke-width="2.75"/><path d="M1649.22 992.747c-32.72 216.083-450.95 271.043-943.272 220.423C71.879 1148.13-269.955 1062.78-43.885-96.936" stroke-width="2.8"/><path d="M1664.91 1014.23c-33.33 220.14-458.84 275.1-960.419 223.67C58.086 1171.73-290.138 1085.62-59.695-97.353" stroke-width="2.85"/><path d="M1680.61 1035.71c-33.95 224.2-466.74 279.16-977.568 226.92C44.302 1195.34-310.32 1108.47-75.496-97.769" stroke-width="2.9"/><path d="M1696.3 1057.21c-34.56 228.24-474.63 283.21-994.715 230.15C30.518 1218.94-330.494 1131.31-91.306-98.185" stroke-width="2.95"/><path d="M1712 1078.69c-35.18 232.3-482.53 287.27-1011.864 233.4C16.735 1242.55-350.677 1154.16-107.116-98.6" stroke-width="3"/></g></svg>