<svg width="122" height="86" fill="none" xmlns="http://www.w3.org/2000/svg"><path fill-rule="evenodd" clip-rule="evenodd" d="M64 18a7 7 0 017 7c0 3.86-3.14 7-7 7s-7-3.14-7-7 3.14-7 7-7z" fill="#ED7E06"/><path fill-rule="evenodd" clip-rule="evenodd" d="M26 0c22.176 5.273 42.384 5.4 63 2-1.056 2.875-2.22 5.922-3 9-17.34 2.434-29.98 2.9-49 0 1.572 5.905 2.76 11.715 3 17 6.948 3.567 13.916 6.51 23 7-.384 2.804.072 5.149 0 8-7.272-.406-15.368-3.04-23-7-.564 9.508-2.084 17.842-5 25-2.844-.537-6.12-1.296-9-2 7.2-17.633 8.292-37.31 0-59" fill="#ED7E06"/><path d="M89 53c-1.198-4.673-2.557-8.98-3-14-6.794 3.055-13.535 4.108-21 4 .072-2.84.58-5.172 1-8 7.608-.072 13.386-2.125 20-5 .132-9.968 1.777-19.182 5-28 2.936-.551 6.16-1.305 9-2-7.537 20.87-6.686 40.19 0 59-19.638 5.068-40.918 7.002-63 3 1.09-2.6 2.221-5.244 3-8 16.786 2.648 32.43 1.803 49-1" fill="#1D1E1C"/><path fill-rule="evenodd" clip-rule="evenodd" d="M11 81v-8c2.571.108 5 1.903 5 4s-2.429 3.892-5 4zm-3-8v8c-2.438-.108-5-1.796-5-4 0-2.204 2.429-3.892 5-4zM7 84c-4.092 0-7-3.214-7-7s2.908-7 7-7h1v-1h3v1h1c4.092.012 7 3.214 7 7s-2.908 7-7 7h-1v2H8v-2H7zm83-15h3v12l9-12h3v17h-3V74l-9 12h-3V69zm32 3v-3h-15v3h6v14h3V72h6zm-41-3h-7v17h3v-6h4c3.268 0 6-1.885 6-5s-2.732-6-6-6zm0 9h-4v-6h4c1.651 0 3 1.43 3 3s-1.349 3-3 3zm-18-9c4.698 0 8 3.307 8 8s-3.302 9-8 9-9-4.307-9-9 4.302-8 9-8zm0 3c2.979 0 5 1.851 5 5s-2.021 6-5 6-6-2.851-6-6 3.021-5 6-5zM32 86h4l-7-17h-3l-7 17h3l2-3h7l1 3zm-7-6l2-6 3 6h-5zm24-3c1.18-.839 2-1.49 2-3 0-2.54-2.346-5-5-5h-7v17h8c2.63 0 5-2.484 5-5 0-1.845-1.34-3.281-3-4zm-1-3c0 1.198-.76 2-2 2h-4v-4h4c1.25 0 2 .814 2 2zm-1 9h-5v-4h5c1.25 0 2 .814 2 2s-.76 2-2 2z" fill="#ED7E06"/></svg>