<svg width="130" height="43" fill="none" xmlns="http://www.w3.org/2000/svg"><path d="M20.11 20.61h-3.75v3.75h3.75v-3.75zm-5.15 0h-3.75v3.75h3.75v-3.75zm10.31-5.15h-3.75v3.75h3.75v-3.75zm-5.16 0h-3.75v3.75h3.75v-3.75zm-5.15 0h-3.75v3.75h3.75v-3.75zm-5.15 0H6.06v3.75h3.75v-3.75z" fill="#E40042"/><path d="M25.27 10.31h-3.75v3.75h3.75v-3.75zm-5.16 0h-3.75v3.75h3.75v-3.75z" fill="#585857"/><path d="M14.96 10.31h-3.75v3.75h3.75v-3.75zm-5.15 0H6.06v3.75h3.75v-3.75zm-5.16 0H.9v3.75h3.75v-3.75z" fill="#68C1BE"/><path d="M25.27 5.15h-3.75V8.9h3.75V5.15zm-5.16 0h-3.75V8.9h3.75V5.15z" fill="#585857"/><path d="M14.96 5.15h-3.75V8.9h3.75V5.15zm-5.15 0H6.06V8.9h3.75V5.15zm-5.16 0H.9V8.9h3.75V5.15z" fill="#68C1BE"/><path d="M20.11 0h-3.75v3.75h3.75V0z" fill="#585857"/><path d="M14.96 0h-3.75v3.75h3.75V0zM9.81 0H6.06v3.75h3.75V0z" fill="#68C1BE"/><path d="M129.74 14.06v23.43c0 2.34-1.41 4.68-4.22 4.68H113.1v-5.62h7.73c1.17 0 1.41-.47 1.41-1.41V33.5h-6.32c-2.81 0-4.22-2.34-4.22-4.68V14.07h7.5v13.35c0 1.17.47 1.41 1.41 1.41h1.64V14.07h7.5l-.01-.01zm-35.14 0c-2.81 0-4.22 2.34-4.22 4.68v23.42h7.5V30.45h3.04v11.71h7.5v-28.1H94.6zm6.32 11.71h-3.04v-5.62c0-1.17.47-1.4 1.41-1.4h1.64v7.02h-.01zM87.11 32.8v9.37h-7.5V30.46h-1.64c-.94 0-1.41.23-1.41 1.41v10.3h-7.5V32.8c0-2.34 1.17-4.45 3.05-4.69-1.87-.23-3.05-2.34-3.04-4.68v-9.37h7.49v11.71h1.64c.94 0 1.41-.23 1.41-1.41V14.05h7.5v9.37c0 2.34-1.17 4.45-3.05 4.68 1.87.24 3.05 2.35 3.05 4.69M60.4 25.77h4.68v4.68H60.4v6.08l5.39.01v5.63H52.91V14.06h12.88v5.62H60.4v6.09zM45.41 14.06H32.53v28.11h7.49v-7.49h5.39c2.81 0 4.22-2.34 4.22-4.68V18.76c0-2.34-1.41-4.69-4.22-4.68M43.07 28.6c0 1.17-.47 1.41-1.41 1.41h-1.64V18.77h1.64c.94 0 1.41.23 1.41 1.41v8.43-.01z" fill="#1D1E1C"/></svg>