<svg width="193" height="45" fill="none" xmlns="http://www.w3.org/2000/svg"><path fill-rule="evenodd" clip-rule="evenodd" d="M18.89 8.9a3.34 3.34 0 110 6.68 3.34 3.34 0 010-6.68z" fill="#ED7E06"/><path fill-rule="evenodd" clip-rule="evenodd" d="M1 .24c10.42 2.49 19.91 2.63 29.59 1.03-.5 1.36-.93 2.76-1.3 4.22-8.14 1.15-13.97 1.21-22.9-.16.74 2.79 1.21 5.64 1.32 8.14 3.26 1.68 6.57 2.88 10.83 3.12-.18 1.32-.3 2.65-.33 4-3.42-.19-6.92-1.23-10.51-3.11-.27 4.49-1.31 8.2-2.68 11.58-1.34-.25-2.68-.55-4.03-.88 3.39-8.33 3.9-17.7.01-27.94z" fill="#ED7E06"/><path d="M30.23 25.31c-.56-2.2-.99-4.44-1.19-6.81-3.19 1.44-6.49 2.17-10 2.12.03-1.34.13-2.67.33-4 3.58-.03 6.41-.72 9.52-2.08.06-4.69 1-9.27 2.51-13.42 1.38-.26 2.74-.55 4.07-.88-3.55 9.82-3.14 19.1 0 27.94-9.24 2.38-19.25 2.92-29.64 1.03.51-1.22.96-2.48 1.33-3.78 7.9 1.25 15.26 1.19 23.06-.13" fill="#1D1E1C"/><path fill-rule="evenodd" clip-rule="evenodd" d="M52.22 21.58v-9.87c3.21.14 5.77 2.29 5.77 4.94 0 2.65-2.55 4.8-5.77 4.93zm-4.07-9.87v9.87c-3.05-.13-5.77-2.16-5.77-4.93 0-2.77 2.55-4.8 5.77-4.94zm-.57 13.57c-5.12 0-9.26-3.87-9.26-8.64 0-4.77 4.15-8.65 9.26-8.65h.57V6.77h4.07v1.22h.57c5.12.02 9.26 3.87 9.26 8.65s-4.15 8.65-9.26 8.65h-.57v2.9h-4.07v-2.9h-.57v-.01zM151.74 6.77h4.07v14.84l10.56-14.85h4.07v21.42h-4.07V13.69l-10.56 14.49h-4.07V6.77zm41.12 3.51V6.76h-18.7v3.52h7.31v17.9h4.07v-17.9h7.32zm-52.25-3.52h-9.12v21.42h4.07v-7.2h5.05c4.21 0 7.62-3.18 7.62-7.11s-3.41-7.11-7.62-7.11zm-.13 10.71h-4.92v-7.2h4.92c2.13 0 3.86 1.61 3.86 3.6s-1.73 3.6-3.86 3.6zM117.39 6.76c5.85 0 10.59 4.79 10.59 10.71 0 5.92-4.74 10.71-10.59 10.71s-10.59-4.79-10.59-10.71c0-5.92 4.74-10.71 10.59-10.71zm0 3.5c3.71 0 6.72 3.22 6.72 7.2s-3.01 7.2-6.72 7.2-6.72-3.22-6.72-7.2 3.01-7.2 6.72-7.2zM79.28 28.18h4.37L75.06 6.76h-4.03l-8.56 21.42h4.34l1.56-3.88h9.37l1.56 3.88h-.02zm-9.51-7.39l3.27-8.14 3.27 8.14h-6.54zm30.54-3.59c1.52-1.06 2.51-2.74 2.51-4.64 0-3.2-2.78-5.79-6.2-5.79h-9.45v21.42h10.61c3.4 0 6.16-2.57 6.16-5.75 0-2.33-1.49-4.33-3.62-5.23l-.01-.01zM98.94 13c0 1.5-1.31 2.72-2.92 2.72h-4.8v-5.44h4.8c1.61 0 2.92 1.22 2.92 2.72zm-1.81 11.67h-5.91v-5.44h5.91c1.61 0 2.92 1.22 2.92 2.72 0 1.5-1.31 2.72-2.92 2.72z" fill="#ED7E06"/><path fill-rule="evenodd" clip-rule="evenodd" d="M187.75 41.95h-.8v-7.1h.8v5.78h.01l4.31-5.78h.78v7.1h-.78V36.2h-.01l-4.31 5.75zm.14-10.08l.62-.3c.18.45.37.77.56.96.18.21.47.3.85.3s.67-.1.87-.3c.18-.19.37-.51.56-.96l.61.3c-.19.54-.44.95-.76 1.24-.32.29-.74.43-1.28.43s-.95-.14-1.27-.43c-.32-.29-.58-.7-.77-1.24h.01zm-8.83 10.08h-.8v-7.1h.8v5.78h.01l4.31-5.78h.78v7.1h-.78V36.2h-.01l-4.31 5.75zm-3.39 0h-6.09v-7.1h.78v6.37h4.1v-6.37h.8v6.37h1.21v2.74h-.8v-2.01zm-12.85 0h-.8v-7.1h.8v3.63l3.7-3.63h1.07l-3.04 2.97 3.22 4.13h-.96l-2.79-3.59-1.2 1.2v2.39zm-6.4 2.64h-.84l1.1-2.7-2.89-7.04h.84l2.46 6.05h.03l2.46-6.05h.84l-4 9.74zm-7.09-3.25c.8 0 1.46-.29 1.98-.85s.78-1.27.78-2.09c0-.82-.26-1.53-.78-2.09-.52-.56-1.18-.84-1.98-.84-.76 0-1.4.29-1.93.87-.54.59-.8 1.28-.8 2.06s.26 1.47.8 2.06c.52.59 1.17.88 1.93.88zm-2.72 3.25h-.78v-9.74h.62l.04 1.62c.23-.44.61-.85 1.1-1.22.48-.37 1.11-.55 1.88-.55.98 0 1.79.36 2.45 1.09.65.73.98 1.6.98 2.61 0 1.01-.33 1.88-.98 2.61-.66.73-1.47 1.09-2.45 1.09-1.18 0-2.13-.55-2.86-1.66v4.16-.01zm-5.12-2.64h-.8v-6.37h-2.46v-.73h5.72v.73h-2.46v6.37zm-4.86-1.51l.55.55c-.77.74-1.65 1.11-2.63 1.11s-1.87-.36-2.57-1.07a3.6 3.6 0 01-1.06-2.61c0-1.03.36-1.9 1.06-2.63.7-.73 1.55-1.09 2.57-1.09 1.02 0 1.87.37 2.61 1.11l-.54.55c-.62-.59-1.31-.89-2.08-.89s-1.47.29-2.01.85c-.55.56-.83 1.27-.83 2.09 0 .82.27 1.51.83 2.08.54.56 1.21.85 2.01.85.8 0 1.47-.3 2.08-.91l.01.01zm-12.7 1.51h-.78v-7.1h.78v3.18h4.1v-3.18h.8v7.1h-.8v-3.19h-4.1v3.19zm-8.53-1.46c.54.56 1.21.85 2.01.85.8 0 1.47-.29 2.02-.85s.83-1.27.83-2.08-.28-1.53-.83-2.09c-.55-.56-1.22-.85-2.02-.85s-1.47.29-2.01.85c-.55.56-.83 1.27-.83 2.09 0 .82.27 1.51.83 2.08zm-.56.54a3.6 3.6 0 01-1.06-2.61c0-1.03.36-1.9 1.06-2.63.7-.73 1.55-1.09 2.57-1.09 1.02 0 1.9.36 2.6 1.09.7.73 1.05 1.6 1.05 2.63 0 1.03-.34 1.9-1.05 2.61-.7.72-1.57 1.07-2.6 1.07s-1.87-.36-2.57-1.07zm-7.09.92h-.8v-7.1h.8v3.63l3.7-3.63h1.07l-3.04 2.97 3.22 4.13h-.96l-2.79-3.59-1.2 1.2v2.39zm-10.8 0h-1l2.75-3.56-2.72-3.54h1l2.26 2.92 2.26-2.92h.99l-2.71 3.54 2.75 3.56h-1l-2.28-2.94-2.28 2.94h-.02zm-9.71-3.78v3.05h2.1c.59 0 1.02-.15 1.28-.44.26-.29.4-.65.4-1.09 0-.44-.14-.81-.4-1.1-.26-.29-.69-.43-1.28-.43h-2.1v.01zm2.2 3.78h-2.98v-7.1h.78v2.59h2.2c.65 0 1.21.19 1.68.58.47.39.7.95.7 1.68s-.23 1.28-.7 1.66c-.48.4-1.03.59-1.68.59zm4.82 0h-.8v-7.1h.8v7.1zm-15.51 0h-.78v-7.1h.78v3.18h4.1v-3.18h.8v7.1h-.8v-3.19h-4.1v3.19zm-8.49 0h-.78v-7.1h.78v3.18h4.1v-3.18h.8v7.1h-.8v-3.19h-4.1v3.19zm-8.53-1.46c.54.56 1.21.85 2.01.85.8 0 1.47-.29 2.02-.85s.83-1.27.83-2.08-.28-1.53-.83-2.09c-.55-.56-1.22-.85-2.02-.85s-1.47.29-2.01.85c-.55.56-.83 1.27-.83 2.09 0 .82.28 1.51.83 2.08zm-.56.54a3.6 3.6 0 01-1.06-2.61c0-1.03.36-1.9 1.06-2.63.7-.73 1.55-1.09 2.57-1.09 1.02 0 1.9.36 2.6 1.09.7.73 1.05 1.6 1.05 2.63 0 1.03-.34 1.9-1.05 2.61-.7.72-1.57 1.07-2.6 1.07s-1.87-.36-2.57-1.07zm-7.09.92h-.8v-7.1h.8v3.63l3.7-3.63h1.07l-3.04 2.97 3.22 4.13h-.96l-2.79-3.59-1.2 1.2v2.39zm-8.53-1.46c.54.56 1.21.85 2.01.85.8 0 1.47-.29 2.02-.85s.83-1.27.83-2.08-.28-1.53-.83-2.09c-.55-.56-1.22-.85-2.02-.85s-1.47.29-2.01.85c-.55.56-.83 1.27-.83 2.09 0 .82.27 1.51.83 2.08zm-.56.54a3.6 3.6 0 01-1.06-2.61c0-1.03.36-1.9 1.06-2.63.7-.73 1.55-1.09 2.57-1.09 1.02 0 1.9.36 2.6 1.09.7.73 1.05 1.6 1.05 2.63 0 1.03-.34 1.9-1.05 2.61-.7.72-1.57 1.07-2.6 1.07s-1.87-.36-2.57-1.07zm-11.19.19h4.29v-5.64h-3.25v3c0 1.05-.34 1.93-1.05 2.64h.01zm-.73 2.74h-.8v-2.74h.6c.78-.77 1.18-1.64 1.18-2.61v-3.76h4.82v6.37h1.21v2.74h-.78v-2.01h-6.23v2.01zm-7.54-3.47c.54.56 1.21.85 2.01.85.8 0 1.47-.29 2.02-.85s.83-1.27.83-2.08-.28-1.53-.83-2.09c-.55-.56-1.22-.85-2.02-.85s-1.47.29-2.01.85c-.55.56-.83 1.27-.83 2.09 0 .82.28 1.51.83 2.08zm-.56.54a3.6 3.6 0 01-1.06-2.61c0-1.03.36-1.9 1.06-2.63.7-.73 1.55-1.09 2.57-1.09 1.02 0 1.9.36 2.6 1.09.7.73 1.05 1.6 1.05 2.63 0 1.03-.34 1.9-1.05 2.61-.7.72-1.57 1.07-2.6 1.07s-1.87-.36-2.57-1.07zm-7.42-2.3v2.49h2.2c1.27 0 1.9-.4 1.9-1.2 0-.43-.15-.74-.47-.96-.32-.22-.74-.33-1.31-.33h-2.32zm0-3.15V38h2.22c1.09 0 1.64-.41 1.64-1.22s-.63-1.2-1.89-1.2h-1.97zM20 41.95h-3.23v-7.1h2.97c.67 0 1.25.15 1.73.45.48.32.73.8.73 1.44 0 .48-.12.84-.36 1.09-.23.26-.51.43-.8.51.12.04.25.08.37.15.12.07.28.15.45.28.16.12.3.3.41.54.11.23.16.5.16.78 0 .62-.23 1.09-.69 1.39-.45.32-1.05.47-1.76.47H20zm-6.69-3v-.18c-.77-.26-1.51-.4-2.24-.4-.65 0-1.17.12-1.55.37-.39.26-.58.62-.58 1.09 0 .47.16.84.51 1.1.34.28.78.41 1.35.41.83 0 1.46-.23 1.88-.7.43-.45.63-1.02.63-1.69zm.17 3l-.11-1.44c-.23.51-.58.91-1.03 1.18-.45.28-1 .41-1.62.41-.73 0-1.35-.21-1.83-.63-.5-.43-.74-.96-.74-1.64 0-.68.26-1.25.8-1.62.54-.37 1.22-.55 2.08-.55.73 0 1.5.12 2.3.39 0-1.05-.14-1.73-.41-2.08-.29-.33-.84-.5-1.68-.5-.78 0-1.54.1-2.3.29l-.18-.74c.16-.07.51-.14 1.05-.21.54-.07 1.03-.11 1.51-.11 1.11 0 1.86.25 2.24.73.37.48.56 1.35.56 2.6v3.92h-.64zM.99 41.1l.52-.58c.54.55 1.29.83 2.26.83 1.36 0 2.04-.47 2.04-1.39 0-.4-.15-.72-.44-.94-.3-.22-.72-.33-1.25-.33H2.19v-.73h1.94c.95 0 1.42-.4 1.42-1.21 0-.39-.15-.7-.45-.94-.3-.23-.76-.34-1.35-.34-.8 0-1.53.26-2.17.77l-.5-.56c.34-.3.76-.54 1.24-.72.48-.18.98-.26 1.47-.26.78 0 1.42.18 1.87.54.45.36.69.85.69 1.47 0 .87-.39 1.39-1.14 1.58.37.08.69.26.98.55.29.29.43.67.43 1.18 0 .66-.23 1.17-.72 1.53-.48.37-1.2.55-2.15.55-.51 0-1.02-.08-1.53-.26S1.3 41.41 1 41.1H.99z" fill="#8E8E8E"/></svg>