<svg xmlns="http://www.w3.org/2000/svg" viewBox="0 0 60.69 41.93"><defs><style>.cls-5,.cls-6{letter-spacing:.01em}</style></defs><g id="Слой_2" data-name="Слой 2"><g id="ФУРНИТУРА"><path d="M48.79 9.15c-12.36-6.27-24.73 6.27-37.09 0v-7c12.36 6.27 24.73-6.26 37.09 0z" stroke="#000" stroke-miterlimit="10" stroke-width=".75" fill="#1d1d1b"/><path d="M48.79 16.11c-12.36-6.26-24.73 6.27-37.09 0v-7c12.36 6.27 24.73-6.27 37.09 0z" fill="#e13434" stroke="#000" stroke-miterlimit="10" stroke-width=".75"/><path d="M48.79 23.08c-12.36-6.27-24.73 6.26-37.09 0v-7c12.36 6.27 24.73-6.27 37.09 0z" fill="#eee93c" stroke="#000" stroke-miterlimit="10" stroke-width=".75"/><text transform="translate(0 40.11)" font-size="7.31" font-family="SFUIDisplay-Thin,SFUIDisplay Thin" font-weight="200"><tspan class="cls-5">M</tspan><tspan class="cls-6" x="5.98" y="0">A</tspan><tspan x="10.5" y="0" letter-spacing=".01em">D</tspan><tspan x="15.48" y="0">E </tspan><tspan x="20.62" y="0" letter-spacing=".01em">I</tspan><tspan x="22.46" y="0">N </tspan><tspan x="28.82" y="0" letter-spacing=".02em">G</tspan><tspan x="33.65" y="0" letter-spacing="0">E</tspan><tspan x="37.28" y="0" letter-spacing=".02em">R</tspan><tspan class="cls-5" x="41.34" y="0">M</tspan><tspan class="cls-6" x="47.32" y="0">A</tspan><tspan x="51.84" y="0" letter-spacing=".01em">N</tspan><tspan x="56.73" y="0">Y</tspan></text></g></g></svg>