<svg xmlns="http://www.w3.org/2000/svg" xmlns:xlink="http://www.w3.org/1999/xlink" viewBox="0 0 60.49 47.51"><defs><linearGradient id="Sky_3" x1=".46" y1="8.42" x2="19.11" y2="8.42" gradientUnits="userSpaceOnUse"><stop offset="0" stop-color="#d5e4f5"/><stop offset=".06" stop-color="#cce0f3"/><stop offset=".17" stop-color="#b2d5ee"/><stop offset=".31" stop-color="#89c3e6"/><stop offset=".47" stop-color="#50aadb"/><stop offset=".57" stop-color="#2999d4"/><stop offset=".87" stop-color="#006db4"/><stop offset=".99" stop-color="#005891"/></linearGradient><linearGradient id="Sky_3-2" x1="53.58" y1="6.66" x2="35.84" y2="20.27" xlink:href="#Sky_3"/><linearGradient id="Sky_3-3" x1="17.85" y1="13.2" x2="48.59" y2="13.2" xlink:href="#Sky_3"/><style>.cls-15{fill:none;stroke-miterlimit:10;stroke:#fff;stroke-width:.44px}</style></defs><g id="Слой_2" data-name="Слой 2"><g id="ФУРНИТУРА"><path d="M2 13.43c1.79-2.19 3.75-4.24 5.68-6.3 1.74-1.86 3.49-3.72 5.19-5.61H.46v13.81z" fill="url(#Sky_3)"/><text transform="translate(.85 45.68)" font-size="7.31" font-family="SFUIDisplay-Thin,SFUIDisplay Thin" font-weight="200"><tspan letter-spacing=".04em">Д</tspan><tspan x="4.9" y="0" letter-spacing=".01em">Л</tspan><tspan x="9.32" y="0" letter-spacing="0">Я </tspan><tspan x="14.83" y="0" letter-spacing="0">Л</tspan><tspan x="19.21" y="0" letter-spacing=".01em">Ю</tspan><tspan x="25.62" y="0" letter-spacing="0">Б</tspan><tspan x="29.6" y="0" letter-spacing="0">Ы</tspan><tspan x="35.08" y="0" letter-spacing="0">Х </tspan><tspan x="40.8" y="0" letter-spacing=".01em">О</tspan><tspan x="45.89" y="0" letter-spacing="-.01em">К</tspan><tspan x="49.78" y="0" letter-spacing=".01em">О</tspan><tspan x="54.88" y="0">Н</tspan></text><path d="M.46 1.52h19.36V34H.46zm25.6 20.93V.73l27.56 13.12V33.2L26.06 22.45z" fill="none" stroke="#000" stroke-width=".92" stroke-miterlimit="10"/><path class="cls-15" d="M3.64 3.33L2.19 4.89m2.64-1.45L2.38 6m2.53-1.28L3.8 5.93"/><path d="M53.15 32.89C52.63 22.17 26.53 1.52 26.53 1.52l26.62 12.67z" fill="url(#Sky_3-2)"/><path fill="#fff" stroke-miterlimit="10" stroke="#000" stroke-width=".92" d="M49.86 8.08v19.36H17.38V8.08z"/><path d="M25 14.47c3.64-2.25 7.51-4.06 11.34-6H17.85v9.37A57.43 57.43 0 0025 14.47z" fill="url(#Sky_3-3)"/><path class="cls-15" d="M21.16 9.9l-1.46 1.57m2.64-1.45l-2.45 2.56m2.54-1.28l-1.11 1.2"/></g></g></svg>