<svg xmlns="http://www.w3.org/2000/svg" viewBox="0 0 65.69 50.83"><defs><style>.cls-9{letter-spacing:.01em}.cls-18{stroke:#000;stroke-miterlimit:10;stroke-width:.92px;fill:none}</style></defs><g id="Слой_2" data-name="Слой 2"><g id="ФУРНИТУРА"><text transform="translate(3.14 40.24)" font-size="7.31" font-family="SFUIDisplay-Thin,SFUIDisplay Thin" font-weight="200"><tspan letter-spacing="0">Д</tspan><tspan x="4.59" y="0" letter-spacing=".01em">О</tspan><tspan x="9.68" y="0" letter-spacing=".01em">П</tspan><tspan x="14.4" y="0">. </tspan><tspan x="17.46" y="0" letter-spacing=".02em">О</tspan><tspan x="22.63" y="0" letter-spacing="0">С</tspan><tspan x="26.89" y="0" letter-spacing=".01em">НАЩ</tspan><tspan x="42.58" y="0">Е</tspan><tspan x="46.17" y="0" letter-spacing=".01em">НИ</tspan><tspan x="55.82" y="0">Е</tspan><tspan class="cls-9" x="-3.14" y="8.77">и</tspan><tspan x=".96" y="8.77">з </tspan><tspan x="5.66" y="8.77" letter-spacing=".01em">ли</tspan><tspan x="13.54" y="8.77" letter-spacing=".01em">не</tspan><tspan x="21.37" y="8.77" letter-spacing=".01em">й</tspan><tspan x="25.48" y="8.77" letter-spacing=".02em">к</tspan><tspan x="29.1" y="8.77" letter-spacing="0">и </tspan><tspan x="34.7" y="8.77" letter-spacing=".02em">TI</tspan><tspan x="40.33" y="8.77" letter-spacing="-.05em">T</tspan><tspan class="cls-9" x="43.59" y="8.77">A</tspan><tspan x="48.11" y="8.77">N </tspan><tspan class="cls-9" x="54.47" y="8.77">A</tspan><tspan x="58.99" y="8.77">F</tspan></text><path d="M35.25 21.19v-2.85l-2.48-.82a7 7 0 00-.5-1.19L33.45 14l-2-2-2.34 1.17a7.31 7.31 0 00-1.19-.5l-.83-2.48h-2.86l-.83 2.48a7 7 0 00-1.19.5L19.86 12l-2 2L19 16.33a7.86 7.86 0 00-.5 1.19l-2.5.82v2.85l2.48.83a8.31 8.31 0 00.5 1.19l-1.17 2.34 2 2 2.35-1.17a7 7 0 001.19.5l.83 2.48h2.84l.83-2.48a7.31 7.31 0 001.19-.5l2.34 1.17 2-2-1.18-2.34a7.31 7.31 0 00.5-1.19z" stroke="#000" stroke-miterlimit="10" stroke-width=".92" fill="#fff"/><path class="cls-18" d="M34.93 10.48a5 5 0 00.85.68l.1 1.74 1.83.49 1-1.46a4.91 4.91 0 002.07-.55l1.56.78 1.34-1.34-.78-1.56a4.91 4.91 0 00.55-2.07l1.46-1-.49-1.83-1.74-.11a4.47 4.47 0 00-.68-.81 4.85 4.85 0 00-.84-.67L41 1 39.19.53 38.23 2a4.91 4.91 0 00-2.07.55l-1.56-.79-1.34 1.34.74 1.56a5.23 5.23 0 00-.55 2.08L32 7.7l.49 1.83 1.75.11a4.85 4.85 0 00.69.84z"/><text transform="matrix(.67 0 0 1 35.62 8.72)" font-size="5.38" font-family="SFUIDisplay-Heavy,SFUIDisplay Heavy" font-weight="800" letter-spacing="-.04em">T<tspan x="2.44" y="0" letter-spacing=".01em">A</tspan><tspan x="5.8" y="0" letter-spacing="0">F</tspan></text><circle class="cls-18" cx="25.65" cy="19.77" r="4.27"/><circle class="cls-18" cx="25.65" cy="19.77" r="2.13"/></g></g></svg>