<svg xmlns="http://www.w3.org/2000/svg" viewBox="0 0 49 44.13"><defs><style>.cls-2,.cls-3{letter-spacing:.01em}</style></defs><g id="Слой_2" data-name="Слой 2"><g id="TITAN_AF" data-name="TITAN AF"><text transform="translate(0 33.53)" font-size="7.31" font-family="SFUIDisplay-Thin,SFUIDisplay Thin" font-weight="200"><tspan class="cls-2">ПО</tspan><tspan class="cls-3" x="9.82" y="0">В</tspan><tspan x="13.82" y="0" letter-spacing="0">Ы</tspan><tspan class="cls-3" x="19.29" y="0">Ш</tspan><tspan x="25.52" y="0">Е</tspan><tspan x="29.11" y="0" letter-spacing=".01em">НН</tspan><tspan x="38.72" y="0" letter-spacing="0">Ы</tspan><tspan x="44.19" y="0">Й</tspan><tspan letter-spacing="-.01em"><tspan x="7.98" y="8.77">К</tspan><tspan x="11.87" y="8.77" letter-spacing="0">ОМ</tspan><tspan x="22.81" y="8.77" letter-spacing=".02em">Ф</tspan><tspan class="cls-2" x="28.25" y="8.77">О</tspan><tspan x="33.34" y="8.77" letter-spacing=".02em">Р</tspan><tspan x="37.38" y="8.77" letter-spacing="0">Т</tspan></tspan></text><path d="M18 19.08a6 6 0 002.46 1.52c2.31.29 3.64 0 7.26-3.54a22.42 22.42 0 001.6-1.73.33.33 0 00-.19-.54l-2.48-.86 4.15-1a1.11 1.11 0 00.77-.47C32.63 8.07 36.15 3.2 39 .78c-3.91-1.11-9.38.78-14.25 4.4a1.07 1.07 0 00-.45.76l-1.46 3.22-.28-1.62a.33.33 0 00-.56-.18c-.54.48-1.06 1-1.55 1.46-3.76 3.79-3.85 6.92-3.38 8.56a2.57 2.57 0 00.89 1.7M32.53 4a73.09 73.09 0 00-17.48 18.54" fill="none" stroke="#000" stroke-miterlimit="10" stroke-width=".92" fill-rule="evenodd"/></g></g></svg>