<svg xmlns="http://www.w3.org/2000/svg" viewBox="0 0 80.65 43.6"><defs><style>.cls-6{letter-spacing:0}.cls-10{letter-spacing:.03em}.cls-25{fill:none;stroke:#000;stroke-miterlimit:10;stroke-width:.92px}</style></defs><g id="Слой_2" data-name="Слой 2"><g id="TITAN_AF" data-name="TITAN AF"><text transform="translate(0 33)" font-size="7.31" font-family="SFUIDisplay-Thin,SFUIDisplay Thin" font-weight="200"><tspan letter-spacing="-.04em">Р</tspan><tspan x="3.56" y="0" letter-spacing="-.01em">А</tspan><tspan x="7.94" y="0" letter-spacing="0">С</tspan><tspan x="12.2" y="0" letter-spacing=".01em">ШИ</tspan><tspan class="cls-6" x="23.27" y="0">Р</tspan><tspan x="27.15" y="0" letter-spacing="0">Е</tspan><tspan x="30.74" y="0" letter-spacing=".01em">Н</tspan><tspan x="35.54" y="0" letter-spacing=".01em">Н</tspan><tspan class="cls-10" x="40.36" y="0">А</tspan><tspan x="45.08" y="0">Я </tspan><tspan class="cls-6" x="50.6" y="0">Б</tspan><tspan x="54.58" y="0" letter-spacing=".02em">А</tspan><tspan x="59.23" y="0" letter-spacing=".01em">З</tspan><tspan x="62.9" y="0" letter-spacing=".01em">О</tspan><tspan x="67.99" y="0">В</tspan><tspan class="cls-10" x="71.95" y="0">А</tspan><tspan x="76.68" y="0">Я</tspan><tspan x="13.64" y="8.77" letter-spacing="-.01em">К</tspan><tspan x="17.53" y="8.77" letter-spacing="0">О</tspan><tspan x="22.58" y="8.77" letter-spacing=".01em">М</tspan><tspan x="28.5" y="8.77" letter-spacing=".02em">П</tspan><tspan x="33.32" y="8.77" letter-spacing="0">Л</tspan><tspan x="37.69" y="8.77">Е</tspan><tspan x="41.29" y="8.77" letter-spacing=".04em">К</tspan><tspan x="45.58" y="8.77" letter-spacing="-.05em">Т</tspan><tspan x="48.84" y="8.77" letter-spacing=".01em">А</tspan><tspan x="53.36" y="8.77" letter-spacing="0">Ц</tspan><tspan x="58.15" y="8.77" letter-spacing=".01em">И</tspan><tspan x="63.04" y="8.77" letter-spacing="0">Я</tspan></text><circle class="cls-25" cx="43.74" cy="3.78" r="3.32"/><circle class="cls-25" cx="43.74" cy="17.07" r="3.32"/><circle class="cls-25" cx="32.67" cy="10.43" r="3.32"/><path class="cls-25" d="M40.91 5.48L35.5 8.73m5.38 6.63l-5.36-3.22"/></g></g></svg>