<svg xmlns="http://www.w3.org/2000/svg" viewBox="0 0 273.19 30.29"><path d="M154.63 23.4a1.43 1.43 0 01-1.24-1.56v-4.05h17.69V12.5h-17.7V8.59A1.42 1.42 0 01154.62 7h18l-1.16-5.06a1 1 0 00-.88-.7h-27.74a.62.62 0 00-.24 0 4.31 4.31 0 00-3.69 4.54v18.7c0 2.54 1.63 4.6 3.66 4.6h28a1 1 0 00.88-.7l1.12-4.84v-.24l-.24.05zM53.9 1.44H39.44v28.12h14.48zm175.42 0v-.05h-14.47V29.5h14.45zm-25.15-.16v19.55a4.45 4.45 0 00.07.51c-.56-.52-9.69-20.06-9.69-20.06h-15.49a1.85 1.85 0 00-1.82 1.88V29.2h5.66V9.85a4.51 4.51 0 00-.08-.52c.55.51 9.68 19.81 9.68 19.81h15.57a1.84 1.84 0 001.81-1.87v-26h-5.7zM75.58 23.54A1.42 1.42 0 0174.34 22v-4.05H92v-5.31H74.32V8.73a1.42 1.42 0 011.24-1.55h18l-1.15-5.09a1 1 0 00-.88-.7H63.79a.85.85 0 00-.25.05A4.3 4.3 0 0059.86 6v18.7c0 2.53 1.63 4.59 3.66 4.59h28a.94.94 0 00.89-.69l1.11-4.84v-.24l-.24.05zM28.93 12.48c-3.78-.51-13.48-.38-13.48-.38h.09a2.31 2.31 0 01-1.34-.68 3 3 0 01-.57-1.76 3.11 3.11 0 01.58-1.81 2.48 2.48 0 011.39-.79 19.93 19.93 0 016.17-.34c4 .13 9.17.62 11.34.77l.77-5.24c-.06-.33-.16-.48-.89-.66l-1.79-.33a98.45 98.45 0 00-13.73-1c-5.82 0-7.15.07-10.86.85A8.36 8.36 0 002 3.75a10.19 10.19 0 00-2 6 10.3 10.3 0 001.94 5.95 7.7 7.7 0 004.59 2.12c4.24.14 13.5.5 13.5.5h.11a2.35 2.35 0 011.34.67 3.1 3.1 0 01.58 1.77 3 3 0 01-.59 1.8 2.44 2.44 0 01-1.39.8H20a72.77 72.77 0 01-7.3.21c-4.23-.1-9.36-.52-11.53-.67l-.92 5.43a1 1 0 00.89.66l1.67.23a114.61 114.61 0 0014.6 1.07c5.33 0 8.66-.25 11.52-1a9.49 9.49 0 004.39-3 9.91 9.91 0 001.85-5.67 9.68 9.68 0 00-1.88-5.78 7.49 7.49 0 00-4.36-2.36zm106 .13h-17.08v4.66h3.37v6.56s-1.43.63-5.36.16a6 6 0 01-3.31-1.63 7.08 7.08 0 01-1.42-1.79 12.42 12.42 0 01-.83-5.26c.08-2.46.57-4.36 1.32-5.31 1-1.28 1.72-2 4.67-2.75a27.83 27.83 0 016.18-.48c4 0 7.42.35 9.6.5l.79-5.27c-.06-.34-.16-.48-.89-.66L130.22 1A76.37 76.37 0 00118 0c-5.81 0-11.94.61-14.09 1.57a12.45 12.45 0 00-6.38 6.07 21.77 21.77 0 00-1.47 7.56 18.87 18.87 0 001.23 7.53 10 10 0 006.09 5.46 51.18 51.18 0 0014.07 1.93c6 .11 14.14-1.06 16.81-1.38a4.28 4.28 0 00.7-.11V12.79zM260.39 2.05a1.21 1.21 0 00-1.09-.62h-14.72a1.18 1.18 0 00-1.09.65l-12 27.37-.09.13h6.66v-.12l2.48-5.68h14.68l2.66 5.65v.15h15.15l.1-.1zm-7.6 16.56h-10.11a1.17 1.17 0 00.09-.14c1.64-3.77 4.73-10.93 4.73-10.93.06-.18.11-.29.14-.36a2.66 2.66 0 00.12.37s5 11 5.09 11.06z" fill="#0076af" fill-rule="evenodd" data-name="Слой 2"/></svg>