<svg width="55" height="57" fill="none" xmlns="http://www.w3.org/2000/svg"><path d="M46.674 55.696v-1.565m3.13-5.478h-7.043V11.87c0-1.007.594-1.565 1.565-1.565h3.913c.971 0 1.565.558 1.565 1.565v36.782zm-2.348 5.478H45.11l-2.348-5.478h7.043l-2.348 5.478zm2.348-31.304h-7.043m10.956 3.913V14.217h-3.913M37.283 51.783h-36m28.957-3.13H1.282m36.001-32.87h-36m36-5.478h-36v45.391h36V10.305z" stroke="#ED7E06" stroke-width="1.8" stroke-linecap="round" stroke-linejoin="round"/><path d="M37.283 41.609l-7.044 7.043V41.61h7.044zm-28.957-18l1.565 1.565 3.13-4.695m4.696 2.348H30.24M8.326 32.218l1.565 1.565 3.13-4.696m4.696 3.131H30.24m-12.599 9.005h7.215" stroke="#ED7E06" stroke-width="1.8" stroke-linecap="round" stroke-linejoin="round"/></svg>