<svg width="110" height="110" fill="none" xmlns="http://www.w3.org/2000/svg"><circle cx="55" cy="55" r="54" fill="#fff" stroke="#ED7E06" stroke-width="2"/><g stroke="#FF931E" stroke-width="2" stroke-linecap="round" stroke-linejoin="round"><path d="M64.459 66.355c-.84 3.386.767 6.466 1.897 6.638 6.879 1.052 11.85 2.753 15.173 5.69 1.652 1.463 1.19 4.292-.948 4.742-5.013 1.042-14.125 2.845-25.606 2.845-11.48 0-20.714-1.803-25.605-2.845-2.147-.46-2.62-3.298-.948-4.742 3.35-2.898 8.5-4.523 15.173-5.69 1.13-.201 1.91-3.358.949-6.638"/><path d="M40.75 37.904c-1.545.484-.948 2.845-.948 2.845.318 1.805.64 2.14.948 3.793-.562.58-1.897 1.515-1.897 2.845 0 2.024.57 5.48 2.846 6.639.206 4.456 3.793 11.38 3.793 11.38 4.009 3.687 7.037 5.69 8.535 5.69h3.794c.552 0 4.636-2.602 7.586-5.69 0 0 3.588-6.924 3.794-11.38 2.276-1.255 2.845-4.615 2.845-6.639 0-1.33-1.335-2.265-1.897-2.845.309-1.663.63-1.988.948-3.793 0 0 1.075-2.845-.948-2.845m-4.742 34.14c-.782 1.878-4.673 5.69-10.431 5.69-5.76 0-9.972-3.917-10.432-5.69m11.38-38.882L31.267 28.42l24.657-4.741 23.708 4.741-23.708 4.742z"/><path d="M70.15 31.266v6.638c0 .75-8.387 2.845-15.174 2.845-6.788 0-15.174-2.096-15.174-2.845v-6.638m39.831-2.846V39.8M49.285 54.974c2.357 0 3.794-2.385 3.794-4.742s-1.437-3.793-3.794-3.793c-2.356 0-4.741 1.436-4.741 3.793s2.385 4.742 4.741 4.742zm13.277 0c2.357 0 3.794-2.385 3.794-4.742s-1.437-3.793-3.794-3.793-4.741 1.436-4.741 3.793 2.384 4.742 4.741 4.742zm-9.483-6.638h4.742m7.586 0l4.742-3.794m-25.605 3.794l-4.742-3.794M57.82 62.561h-4.74"/></g></svg>