<svg width="110" height="110" fill="none" xmlns="http://www.w3.org/2000/svg"><circle cx="55" cy="55" r="54" fill="#fff" stroke="#ED7E06" stroke-width="2"/><g stroke="#FF931E" stroke-linecap="round" stroke-linejoin="round"><path d="M55 23.842v7.58m32 24.42h-7.579m-48.842 0H23m9.263-22.737l5.053 5.053m40.421-5.053l-5.053 5.053M42.368 26.369l2.527 6.736M84.474 43.21l-6.737 2.527M25.526 43.21l6.737 2.527M66.79 26.369l-2.527 6.736" stroke-width="2.029"/><path d="M47.421 70.158H62.58v1.684c0 2.013-1.356 3.368-3.368 3.368H50.79c-2.013 0-3.369-1.355-3.369-3.368v-1.684 0zm13.474 5.052v5.053c0 3.39-2.636 5.895-5.895 5.895-3.259 0-5.895-2.506-5.895-5.895V75.21m.842 6.737h10.106M49.105 78.58h11.79m-13.474-8.422a17.655 17.655 0 01-10.105-16c0-9.766 7.916-17.684 17.684-17.684 9.769 0 17.684 7.918 17.684 17.684 0 7.072-4.1 13.18-10.105 16M43.21 45.737c2.253-3.142 5.84-5.377 10.106-5.895M40.684 52.474c.146-1.163.43-2.3.842-3.368m27.79 7.578c-.623 3.729-2.774 7.044-5.895 9.263" stroke-width="1.684"/></g></svg>