<svg xmlns="http://www.w3.org/2000/svg" viewBox="0 0 128.59 128.59"><defs><style>.cls-3{fill:none;stroke-linecap:round;stroke-linejoin:round;stroke:#eb7e06;stroke-width:1.74px}</style></defs><g id="Слой_2" data-name="Слой 2"><g id="СТАТЬ_ДИЛЕРОМ_ВИДЕО" data-name="СТАТЬ ДИЛЕРОМ+ВИДЕО"><circle cx="64.29" cy="64.29" r="64.29" fill="#fff4f1"/><path d="M18.67 34.73v55.12m-6.48-55.12v55.12m12.96-55.12v55.12m61.61-45.56v-9.56H31.64v55.12h42.94M31.64 59.44h35.17M59.2 35.32v24.12" stroke-width="3.24" stroke="#eb7e06" fill="none" stroke-linecap="round" stroke-linejoin="round"/><path class="cls-3" d="M107.71 77.85a20.91 20.91 0 001.72-8.3V64m0-8.23v-2c-12.21 0-18.31-7-18.31-7s-6.1 7-18.31 7v15.78a20.91 20.91 0 008.25 16.64l10.06 7.67 10.07-7.67a21.09 21.09 0 002.7-2.46"/><path class="cls-3" d="M104.86 75.55a17.22 17.22 0 001.08-6v-3.34m0-8.21v-.89a29.52 29.52 0 01-14.82-5.65 29.48 29.48 0 01-14.82 5.61v12.48a17.52 17.52 0 006.87 13.86l8 6.06 7.95-6.06a16.38 16.38 0 002.1-1.89"/><path stroke-dasharray="0 3.36" stroke="#d91c5c" stroke-width="1.74" fill="none" stroke-linecap="round" stroke-linejoin="round" d="M108.56 83.02L94.17 71.38"/><path stroke-dasharray="0 3.48" stroke="#d91c5c" stroke-width="1.74" fill="none" stroke-linecap="round" stroke-linejoin="round" d="M95.81 68.47l19.12-12.05"/><path stroke-dasharray="0 3.36" stroke-width="1.74" stroke="#eb7e06" fill="none" stroke-linecap="round" stroke-linejoin="round" d="M108.56 83.02L94.17 71.38"/><path stroke-dasharray="0 3.48" stroke-width="1.74" stroke="#eb7e06" fill="none" stroke-linecap="round" stroke-linejoin="round" d="M95.81 68.47l19.12-12.05"/><path d="M114.66 90.37a1.75 1.75 0 111.74-1.74 1.74 1.74 0 01-1.74 1.74z" fill-rule="evenodd" stroke-width="1.74" stroke="#eb7e06" fill="none" stroke-linecap="round" stroke-linejoin="round"/></g></g></svg>