<svg xmlns="http://www.w3.org/2000/svg" viewBox="0 0 128.59 128.59"><defs><linearGradient id="a" x1="63.97" y1="59.95" x2="37.15" y2="29.07" gradientUnits="userSpaceOnUse"><stop offset="0" stop-color="#cadef2"/><stop offset=".06" stop-color="#c1daf0"/><stop offset=".17" stop-color="#a7d0ec"/><stop offset=".31" stop-color="#7ec0e5"/><stop offset=".47" stop-color="#45a9dc"/><stop offset=".57" stop-color="#1e9ad5"/><stop offset=".87" stop-color="#0075bc"/><stop offset=".99" stop-color="#005b95"/></linearGradient></defs><g data-name="Слой 2"><g data-name="СТАТЬ ДИЛЕРОМ+ВИДЕО"><circle cx="64.29" cy="64.29" r="64.29" fill="#fff4f1"/><path fill="#29a9e0" d="M81.15 36.73L64.29 49.96 49.67 61.44 36.73 71.59v18.9l37.02-29.05 18.1-14.2V36.73h-10.7z"/><path fill="url(#a)" d="M36.73 36.73v34.86l12.94-10.15 14.62-11.48 16.86-13.23H36.73z"/><path d="M36.74 36.74h55.12v55.12H36.74zm61.6 0v55.11m-61.6-30.41h55.11M64.29 37.32v24.12m-40.52-24.7v55.11m-6.49-55.11v55.11m12.97-55.11v55.11m74.57-55.11v55.11m6.49-55.11v55.11" fill="none" stroke="#eb7e06" stroke-linecap="round" stroke-linejoin="round" stroke-width="3.24"/></g></g></svg>