<svg xmlns="http://www.w3.org/2000/svg" viewBox="0 0 128.59 129.09"><defs><style>.cls-1{fill:#fff4f1}.cls-2{fill:none;stroke:#eb7e06;stroke-linecap:round;stroke-linejoin:round;stroke-width:3.02px}</style></defs><g id="Слой_2" data-name="Слой 2"><g id="СТАТЬ_ДИЛЕРОМ_ВИДЕО" data-name="СТАТЬ ДИЛЕРОМ+ВИДЕО"><circle class="cls-1" cx="64.29" cy="64.29" r="64.29"/><circle class="cls-2" cx="40.22" cy="59.27" r="7.52"/><circle class="cls-2" cx="64.29" cy="59.27" r="7.52"/><circle class="cls-2" cx="88.37" cy="59.27" r="7.52"/><rect class="cls-2" x="20.65" y="30.68" width="87.28" height="69.22" rx="3.01"/><path class="cls-2" d="M71.82 59.27h9.03m-33.11 0h9.03M35.7 75.83h9.03m15.05 0h9.03m15.05 0h9.03m-52.67.26v7.57m24.07-7.57v7.57m24.08-7.57v17"/><circle class="cls-1" cx="64.29" cy="64.79" r="64.29"/><circle class="cls-2" cx="40.22" cy="59.77" r="7.52"/><circle class="cls-2" cx="64.29" cy="59.77" r="7.52"/><circle class="cls-2" cx="88.37" cy="59.77" r="7.52"/><rect class="cls-2" x="20.65" y="31.18" width="87.28" height="69.22" rx="3.01"/><path class="cls-2" d="M71.82 59.77h9.03m-33.11 0h9.03M35.7 76.33h9.03m15.05 0h9.03m15.05 0h9.03m-52.67.26v7.57m24.07-7.57v7.57m24.08-7.57v17"/></g></g></svg>