<svg xmlns="http://www.w3.org/2000/svg" viewBox="0 0 128.59 129.09"><defs><style>.cls-1,.cls-2{fill:none;stroke:#eb7e06;stroke-linecap:round;stroke-linejoin:round;stroke-width:2.76px}.cls-2{stroke-dasharray:0 5.52}.cls-3{fill:#fff4f1}</style></defs><g id="Слой_2" data-name="Слой 2"><g id="СТАТЬ_ДИЛЕРОМ_ВИДЕО" data-name="СТАТЬ ДИЛЕРОМ+ВИДЕО"><circle class="cls-1" cx="89.11" cy="75.32" r="1.38"/><path class="cls-1" d="M85 82.22a2.76 2.76 0 01-2.76-2.76v-8.27A2.76 2.76 0 0185 68.43h13.76V51.88a5.51 5.51 0 00-5.51-5.51H32.58a5.52 5.52 0 01-5.51-5.52v57.91a5.52 5.52 0 005.51 5.52h60.67a5.51 5.51 0 005.51-5.52V82.22z"/><rect class="cls-1" x="82.22" y="68.43" width="19.3" height="13.79" rx="2.76"/><path class="cls-2" d="M93.25 57.4v-2.76m-5.52-2.76H35.34m57.91 41.37v2.76m-5.52 2.75H35.34"/><path class="cls-1" d="M32.58 35.34a5.52 5.52 0 000 11h2.88l19.28-11zm55.15 0h-7.28l6.43 11h6.37v-5.49a5.52 5.52 0 00-5.52-5.51zm-7.2 11.03l-5.77-9.91a5.52 5.52 0 01-7.51-2l-20.8 11.9z"/><path class="cls-1" d="M86.88 46.37L74.02 24.31 35.46 46.37h51.42z"/><circle class="cls-3" cx="64.29" cy="64.29" r="64.29"/><circle class="cls-1" cx="89.11" cy="75.32" r="1.38"/><path class="cls-1" d="M85 82.22a2.76 2.76 0 01-2.76-2.76v-8.27A2.76 2.76 0 0185 68.43h13.76V51.88a5.51 5.51 0 00-5.51-5.51H32.58a5.52 5.52 0 01-5.51-5.52v57.91a5.52 5.52 0 005.51 5.52h60.67a5.51 5.51 0 005.51-5.52V82.22z"/><rect class="cls-1" x="82.22" y="68.43" width="19.3" height="13.79" rx="2.76"/><path class="cls-2" d="M93.25 57.4v-2.76m-5.52-2.76H35.34m57.91 41.37v2.76m-5.52 2.75H35.34"/><path class="cls-1" d="M32.58 35.34a5.52 5.52 0 000 11h2.88l19.28-11zm55.15 0h-7.28l6.43 11h6.37v-5.49a5.52 5.52 0 00-5.52-5.51zm-7.2 11.03l-5.77-9.91a5.52 5.52 0 01-7.51-2l-20.8 11.9z"/><path class="cls-1" d="M86.88 46.37L74.02 24.31 35.46 46.37h51.42z"/><circle class="cls-3" cx="64.29" cy="64.29" r="64.29"/><circle class="cls-1" cx="89.11" cy="75.32" r="1.38"/><path class="cls-1" d="M85 82.22a2.76 2.76 0 01-2.76-2.76v-8.27A2.76 2.76 0 0185 68.43h13.76V51.88a5.51 5.51 0 00-5.51-5.51H32.58a5.52 5.52 0 01-5.51-5.52v57.91a5.52 5.52 0 005.51 5.52h60.67a5.51 5.51 0 005.51-5.52V82.22z"/><rect class="cls-1" x="82.22" y="68.43" width="19.3" height="13.79" rx="2.76"/><path class="cls-2" d="M93.25 57.4v-2.76m-5.52-2.76H35.34m57.91 41.37v2.76m-5.52 2.75H35.34"/><path class="cls-1" d="M32.58 35.34a5.52 5.52 0 000 11h2.88l19.28-11zm55.15 0h-7.28l6.43 11h6.37v-5.49a5.52 5.52 0 00-5.52-5.51zm-7.2 11.03l-5.77-9.91a5.52 5.52 0 01-7.51-2l-20.8 11.9z"/><path class="cls-1" d="M86.88 46.37L74.02 24.31 35.46 46.37h51.42z"/><circle class="cls-1" cx="89.11" cy="75.82" r="1.38"/><path class="cls-1" d="M85 82.72A2.76 2.76 0 0182.22 80v-8.31A2.76 2.76 0 0185 68.93h13.76V52.38a5.51 5.51 0 00-5.51-5.51H32.58a5.52 5.52 0 01-5.51-5.52v57.91a5.52 5.52 0 005.51 5.52h60.67a5.51 5.51 0 005.51-5.52V82.72z"/><rect class="cls-1" x="82.22" y="68.93" width="19.3" height="13.79" rx="2.76"/><path class="cls-2" d="M93.25 57.9v-2.76m-5.52-2.76H35.34m57.91 41.37v2.76m-5.52 2.75H35.34"/><path class="cls-1" d="M32.58 35.84a5.52 5.52 0 000 11h2.88l19.28-11zm55.15 0h-7.28l6.43 11h6.37v-5.49a5.52 5.52 0 00-5.52-5.51zm-7.2 11.03L74.76 37a5.52 5.52 0 01-7.51-2l-20.8 11.9z"/><path class="cls-1" d="M86.88 46.87L74.02 24.81 35.46 46.87h51.42z"/><circle class="cls-3" cx="64.29" cy="64.79" r="64.29"/><circle class="cls-1" cx="89.11" cy="75.82" r="1.38"/><path class="cls-1" d="M85 82.72A2.76 2.76 0 0182.22 80v-8.31A2.76 2.76 0 0185 68.93h13.76V52.38a5.51 5.51 0 00-5.51-5.51H32.58a5.52 5.52 0 01-5.51-5.52v57.91a5.52 5.52 0 005.51 5.52h60.67a5.51 5.51 0 005.51-5.52V82.72z"/><rect class="cls-1" x="82.22" y="68.93" width="19.3" height="13.79" rx="2.76"/><path class="cls-2" d="M93.25 57.9v-2.76m-5.52-2.76H35.34m57.91 41.37v2.76m-5.52 2.75H35.34"/><path class="cls-1" d="M32.58 35.84a5.52 5.52 0 000 11h2.88l19.28-11zm55.15 0h-7.28l6.43 11h6.37v-5.49a5.52 5.52 0 00-5.52-5.51zm-7.2 11.03L74.76 37a5.52 5.52 0 01-7.51-2l-20.8 11.9z"/><path class="cls-1" d="M86.88 46.87L74.02 24.81 35.46 46.87h51.42z"/><circle class="cls-3" cx="64.29" cy="64.79" r="64.29"/><circle class="cls-1" cx="89.11" cy="75.82" r="1.38"/><path class="cls-1" d="M85 82.72A2.76 2.76 0 0182.22 80v-8.31A2.76 2.76 0 0185 68.93h13.76V52.38a5.51 5.51 0 00-5.51-5.51H32.58a5.52 5.52 0 01-5.51-5.52v57.91a5.52 5.52 0 005.51 5.52h60.67a5.51 5.51 0 005.51-5.52V82.72z"/><rect class="cls-1" x="82.22" y="68.93" width="19.3" height="13.79" rx="2.76"/><path class="cls-2" d="M93.25 57.9v-2.76m-5.52-2.76H35.34m57.91 41.37v2.76m-5.52 2.75H35.34"/><path class="cls-1" d="M32.58 35.84a5.52 5.52 0 000 11h2.88l19.28-11zm55.15 0h-7.28l6.43 11h6.37v-5.49a5.52 5.52 0 00-5.52-5.51zm-7.2 11.03L74.76 37a5.52 5.52 0 01-7.51-2l-20.8 11.9z"/><path class="cls-1" d="M86.88 46.87L74.02 24.81 35.46 46.87h51.42z"/></g></g></svg>