<svg xmlns="http://www.w3.org/2000/svg" viewBox="0 0 128.59 129.09"><defs><style>.cls-1{fill:#fff4f1}.cls-2,.cls-3,.cls-4{fill:none;stroke:#eb7e06;stroke-linejoin:round}.cls-2,.cls-3{stroke-linecap:round}.cls-2{stroke-width:1.23px}.cls-3,.cls-4{stroke-width:2.57px}</style></defs><g id="Слой_2" data-name="Слой 2"><g id="СТАТЬ_ДИЛЕРОМ_ВИДЕО" data-name="СТАТЬ ДИЛЕРОМ+ВИДЕО"><circle class="cls-1" cx="64.29" cy="64.29" r="64.29"/><path class="cls-2" d="M39.2 92.77v9.5m11.07-9.5v9.5M47 69.59c2.09-1 3.51-.42 4.28 1.77q3.47-.21 3.27 3.27 3.27 1.14 1.76 4.27 2.59 2.31 0 4.62 1.51 3.14-1.76 4.27.19 3.46-3.27 3.27c-.77 2.19-2.19 2.78-4.28 1.77q-2.31 2.6-4.62 0c-2.08 1-3.51.42-4.27-1.77q-3.46.19-3.27-3.27-3.29-1.14-1.77-4.27-2.59-2.31 0-4.62-1.51-3.14 1.77-4.27-.2-3.48 3.27-3.27c.76-2.19 2.19-2.78 4.27-1.77q2.35-2.59 4.62 0z"/><path class="cls-2" d="M51.32 91.06c-.77 2.19-2.19 2.78-4.28 1.77q-2.31 2.6-4.62 0c-2.08 1-3.51.42-4.27-1.77a4.75 4.75 0 01-1.41-.06v13l8-5.54 8 5.54V91a4.78 4.78 0 01-1.42.06z"/><path class="cls-3" d="M35.12 66.12V40.03h33.4l12.84 12.85v46.24H59.31"/><path class="cls-3" d="M68.52 40.03v12.85h12.84"/><path class="cls-4" d="M85.21 83.7h11.56V37.46L83.93 24.62h-33.4v11.56"/><path class="cls-3" d="M83.93 24.62v12.84h12.84"/><circle class="cls-1" cx="64.29" cy="64.29" r="64.29"/><path class="cls-2" d="M39.2 92.77v9.5m11.07-9.5v9.5M47 69.59c2.09-1 3.51-.42 4.28 1.77q3.47-.21 3.27 3.27 3.27 1.14 1.76 4.27 2.59 2.31 0 4.62 1.51 3.14-1.76 4.27.19 3.46-3.27 3.27c-.77 2.19-2.19 2.78-4.28 1.77q-2.31 2.6-4.62 0c-2.08 1-3.51.42-4.27-1.77q-3.46.19-3.27-3.27-3.29-1.14-1.77-4.27-2.59-2.31 0-4.62-1.51-3.14 1.77-4.27-.2-3.48 3.27-3.27c.76-2.19 2.19-2.78 4.27-1.77q2.35-2.59 4.62 0z"/><path class="cls-2" d="M51.32 91.06c-.77 2.19-2.19 2.78-4.28 1.77q-2.31 2.6-4.62 0c-2.08 1-3.51.42-4.27-1.77a4.75 4.75 0 01-1.41-.06v13l8-5.54 8 5.54V91a4.78 4.78 0 01-1.42.06z"/><path class="cls-3" d="M35.12 66.12V40.03h33.4l12.84 12.85v46.24H59.31"/><path class="cls-3" d="M68.52 40.03v12.85h12.84"/><path class="cls-4" d="M85.21 83.7h11.56V37.46L83.93 24.62h-33.4v11.56"/><path class="cls-3" d="M83.93 24.62v12.84h12.84"/><circle class="cls-1" cx="64.29" cy="64.29" r="64.29"/><path class="cls-2" d="M39.2 92.77v9.5m11.07-9.5v9.5M47 69.59c2.09-1 3.51-.42 4.28 1.77q3.47-.21 3.27 3.27 3.27 1.14 1.76 4.27 2.59 2.31 0 4.62 1.51 3.14-1.76 4.27.19 3.46-3.27 3.27c-.77 2.19-2.19 2.78-4.28 1.77q-2.31 2.6-4.62 0c-2.08 1-3.51.42-4.27-1.77q-3.46.19-3.27-3.27-3.29-1.14-1.77-4.27-2.59-2.31 0-4.62-1.51-3.14 1.77-4.27-.2-3.48 3.27-3.27c.76-2.19 2.19-2.78 4.27-1.77q2.35-2.59 4.62 0z"/><path class="cls-2" d="M51.32 91.06c-.77 2.19-2.19 2.78-4.28 1.77q-2.31 2.6-4.62 0c-2.08 1-3.51.42-4.27-1.77a4.75 4.75 0 01-1.41-.06v13l8-5.54 8 5.54V91a4.78 4.78 0 01-1.42.06z"/><path class="cls-3" d="M35.12 66.12V40.03h33.4l12.84 12.85v46.24H59.31"/><path class="cls-3" d="M68.52 40.03v12.85h12.84"/><path class="cls-4" d="M85.21 83.7h11.56V37.46L83.93 24.62h-33.4v11.56"/><path class="cls-3" d="M83.93 24.62v12.84h12.84"/><circle class="cls-1" cx="64.29" cy="64.29" r="64.29"/><path class="cls-2" d="M39.2 92.77v9.5m11.07-9.5v9.5M47 69.59c2.09-1 3.51-.42 4.28 1.77q3.47-.21 3.27 3.27 3.27 1.14 1.76 4.27 2.59 2.31 0 4.62 1.51 3.14-1.76 4.27.19 3.46-3.27 3.27c-.77 2.19-2.19 2.78-4.28 1.77q-2.31 2.6-4.62 0c-2.08 1-3.51.42-4.27-1.77q-3.46.19-3.27-3.27-3.29-1.14-1.77-4.27-2.59-2.31 0-4.62-1.51-3.14 1.77-4.27-.2-3.48 3.27-3.27c.76-2.19 2.19-2.78 4.27-1.77q2.35-2.59 4.62 0z"/><path class="cls-2" d="M51.32 91.06c-.77 2.19-2.19 2.78-4.28 1.77q-2.31 2.6-4.62 0c-2.08 1-3.51.42-4.27-1.77a4.75 4.75 0 01-1.41-.06v13l8-5.54 8 5.54V91a4.78 4.78 0 01-1.42.06z"/><path class="cls-3" d="M35.12 66.12V40.03h33.4l12.84 12.85v46.24H59.31"/><path class="cls-3" d="M68.52 40.03v12.85h12.84"/><path class="cls-4" d="M85.21 83.7h11.56V37.46L83.93 24.62h-33.4v11.56"/><path class="cls-3" d="M83.93 24.62v12.84h12.84"/><circle class="cls-1" cx="64.29" cy="64.79" r="64.29"/><path class="cls-2" d="M39.2 93.27v9.5m11.07-9.5v9.5M47 70.09c2.09-1 3.51-.42 4.28 1.77q3.47-.21 3.27 3.27 3.27 1.14 1.76 4.27 2.59 2.31 0 4.62 1.51 3.14-1.76 4.27.19 3.46-3.27 3.27c-.77 2.19-2.19 2.78-4.28 1.77q-2.31 2.6-4.62 0c-2.08 1-3.51.42-4.27-1.77q-3.46.19-3.27-3.27-3.25-1.14-1.73-4.29-2.59-2.31 0-4.62-1.51-3.14 1.77-4.27-.2-3.48 3.27-3.27c.76-2.19 2.19-2.78 4.27-1.77q2.31-2.57 4.58.02z"/><path class="cls-2" d="M51.32 91.56c-.77 2.19-2.19 2.78-4.28 1.77q-2.31 2.6-4.62 0c-2.08 1-3.51.42-4.27-1.77a4.75 4.75 0 01-1.41-.11v13l8-5.54 8 5.54v-13a4.78 4.78 0 01-1.42.11z"/><path class="cls-3" d="M35.12 66.62V40.53h33.4l12.84 12.85v46.24H59.31"/><path class="cls-3" d="M68.52 40.53v12.85h12.84"/><path class="cls-4" d="M85.21 84.2h11.56V37.96L83.93 25.12h-33.4v11.56"/><path class="cls-3" d="M83.93 25.12v12.84h12.84"/><circle class="cls-1" cx="64.29" cy="64.79" r="64.29"/><path class="cls-2" d="M39.2 93.27v9.5m11.07-9.5v9.5M47 70.09c2.09-1 3.51-.42 4.28 1.77q3.47-.21 3.27 3.27 3.27 1.14 1.76 4.27 2.59 2.31 0 4.62 1.51 3.14-1.76 4.27.19 3.46-3.27 3.27c-.77 2.19-2.19 2.78-4.28 1.77q-2.31 2.6-4.62 0c-2.08 1-3.51.42-4.27-1.77q-3.46.19-3.27-3.27-3.25-1.14-1.73-4.29-2.59-2.31 0-4.62-1.51-3.14 1.77-4.27-.2-3.48 3.27-3.27c.76-2.19 2.19-2.78 4.27-1.77q2.31-2.57 4.58.02z"/><path class="cls-2" d="M51.32 91.56c-.77 2.19-2.19 2.78-4.28 1.77q-2.31 2.6-4.62 0c-2.08 1-3.51.42-4.27-1.77a4.75 4.75 0 01-1.41-.11v13l8-5.54 8 5.54v-13a4.78 4.78 0 01-1.42.11z"/><path class="cls-3" d="M35.12 66.62V40.53h33.4l12.84 12.85v46.24H59.31"/><path class="cls-3" d="M68.52 40.53v12.85h12.84"/><path class="cls-4" d="M85.21 84.2h11.56V37.96L83.93 25.12h-33.4v11.56"/><path class="cls-3" d="M83.93 25.12v12.84h12.84"/><circle class="cls-1" cx="64.29" cy="64.79" r="64.29"/><path class="cls-2" d="M39.2 93.27v9.5m11.07-9.5v9.5M47 70.09c2.09-1 3.51-.42 4.28 1.77q3.47-.21 3.27 3.27 3.27 1.14 1.76 4.27 2.59 2.31 0 4.62 1.51 3.14-1.76 4.27.19 3.46-3.27 3.27c-.77 2.19-2.19 2.78-4.28 1.77q-2.31 2.6-4.62 0c-2.08 1-3.51.42-4.27-1.77q-3.46.19-3.27-3.27-3.25-1.14-1.73-4.29-2.59-2.31 0-4.62-1.51-3.14 1.77-4.27-.2-3.48 3.27-3.27c.76-2.19 2.19-2.78 4.27-1.77q2.31-2.57 4.58.02z"/><path class="cls-2" d="M51.32 91.56c-.77 2.19-2.19 2.78-4.28 1.77q-2.31 2.6-4.62 0c-2.08 1-3.51.42-4.27-1.77a4.75 4.75 0 01-1.41-.11v13l8-5.54 8 5.54v-13a4.78 4.78 0 01-1.42.11z"/><path class="cls-3" d="M35.12 66.62V40.53h33.4l12.84 12.85v46.24H59.31"/><path class="cls-3" d="M68.52 40.53v12.85h12.84"/><path class="cls-4" d="M85.21 84.2h11.56V37.96L83.93 25.12h-33.4v11.56"/><path class="cls-3" d="M83.93 25.12v12.84h12.84"/><circle class="cls-1" cx="64.29" cy="64.79" r="64.29"/><path class="cls-2" d="M39.2 93.27v9.5m11.07-9.5v9.5M47 70.09c2.09-1 3.51-.42 4.28 1.77q3.47-.21 3.27 3.27 3.27 1.14 1.76 4.27 2.59 2.31 0 4.62 1.51 3.14-1.76 4.27.19 3.46-3.27 3.27c-.77 2.19-2.19 2.78-4.28 1.77q-2.31 2.6-4.62 0c-2.08 1-3.51.42-4.27-1.77q-3.46.19-3.27-3.27-3.25-1.14-1.73-4.29-2.59-2.31 0-4.62-1.51-3.14 1.77-4.27-.2-3.48 3.27-3.27c.76-2.19 2.19-2.78 4.27-1.77q2.31-2.57 4.58.02z"/><path class="cls-2" d="M51.32 91.56c-.77 2.19-2.19 2.78-4.28 1.77q-2.31 2.6-4.62 0c-2.08 1-3.51.42-4.27-1.77a4.75 4.75 0 01-1.41-.11v13l8-5.54 8 5.54v-13a4.78 4.78 0 01-1.42.11z"/><path class="cls-3" d="M35.12 66.62V40.53h33.4l12.84 12.85v46.24H59.31"/><path class="cls-3" d="M68.52 40.53v12.85h12.84"/><path class="cls-4" d="M85.21 84.2h11.56V37.96L83.93 25.12h-33.4v11.56"/><path class="cls-3" d="M83.93 25.12v12.84h12.84"/></g></g></svg>