<svg xmlns="http://www.w3.org/2000/svg" viewBox="0 0 119.73 158.95"><defs><clipPath id="clip-path" transform="translate(.04 .05)"><path fill="none" d="M0 0h119.69v158.89H0z"/></clipPath><style>.cls-13{fill-rule:evenodd;fill:#6d6e71}</style></defs><g id="Слой_2" data-name="Слой 2"><g clip-path="url(#clip-path)" id="Свой_транспорт" data-name="Свой транспорт"><path d="M66.9 62.32H64v55.31h10.64a38.4 38.4 0 00-7.74-55.31m15.66 55.31h36.78V94.56a38.38 38.38 0 00-36.78 23.07m-4.48-55.31A38.35 38.35 0 00119.34 87V62.32z" transform="translate(.04 .05)" fill-rule="evenodd" fill="#da1c5c"/><path d="M92.88 103.7a38.23 38.23 0 0113.79 13.93h12.67V94.56a38.27 38.27 0 00-26.46 9.14M64 93v24.6h10.64a38.42 38.42 0 007.71-31.4A38.24 38.24 0 0164 93m41.41-30.71H78.08a38.31 38.31 0 0021.43 22.18 38.37 38.37 0 015.93-22.15" transform="translate(.04 .05)" fill="#9e1f63" fill-rule="evenodd"/><path d="M42.56 90A56.21 56.21 0 0057 62.32H1.66v55.31H57A56.22 56.22 0 0042.56 90" transform="translate(.04 .05)" fill="#58b7dd" fill-rule="evenodd"/><path d="M41.23 62.32H1.66v10.09a56.15 56.15 0 0127.05 6.9 68.34 68.34 0 0012.52-17m-12.52 38.34a56.26 56.26 0 01-27 6.89v10.09h39.52a68.29 68.29 0 00-12.52-17" transform="translate(.04 .05)" fill="#afdfe4" fill-rule="evenodd"/><path d="M1.66 72.41v11.81A66.52 66.52 0 0114.7 90a68.55 68.55 0 0014-10.67 56.15 56.15 0 00-27-6.9m0 23.33v11.8a56.26 56.26 0 0027.05-6.89A68.19 68.19 0 0014.7 90a67.12 67.12 0 01-13 5.76" transform="translate(.04 .05)" fill="#0092c8" fill-rule="evenodd"/><path d="M30.28 38.53a29.28 29.28 0 01-9-8.76 15.48 15.48 0 1125.71 7.49 18.13 18.13 0 01-8.38 3A20.92 20.92 0 0057 32V0H1.66v55.26H57v-14.6a29.33 29.33 0 01-26.69-2.13" transform="translate(.04 .05)" fill="#fdb913" fill-rule="evenodd"/><path d="M18.73 25.15A25.82 25.82 0 0125.83 0h-6.15a29.32 29.32 0 00-.95 25.2m30 30.11H57v-5.63a36 36 0 01-8.25 5.58M5 0H1.66v4.67c.15-.25.3-.51.46-.76A35.42 35.42 0 015 0M1.66 41.08v14.18h15.25c-1-.51-2.05-1.07-3.05-1.69a36 36 0 01-12.2-12.49" transform="translate(.04 .05)" fill="#f7941e" fill-rule="evenodd"/><path d="M30.27 38.53A29.37 29.37 0 0119.68 0h-8.51A31.07 31.07 0 0057 40.66a29.36 29.36 0 01-26.7-2.13m21-36.9A20.36 20.36 0 0047.93 0H32.72a20.88 20.88 0 00-13.24 18.14 17.76 17.76 0 012.19-5.3 18 18 0 1116.89 27.37A20.92 20.92 0 0057 32V6.78a20.64 20.64 0 00-5.7-5.15" transform="translate(.04 .05)" fill="#f57e20" fill-rule="evenodd"/><path d="M64 55.26h55.31V31.33H64zm0-29h55.31V0H64z" transform="translate(.04 .05)" fill="#abd037" fill-rule="evenodd"/><path d="M64 47.7h55.31V36.42H64zm0-28.16h55.31V0H64z" transform="translate(.04 .05)" fill="#3eb549" fill-rule="evenodd"/><path class="cls-13" d="M115.36 128.27v8.41h-6.88v-8.41h-4v20.36h4v-8.41h6.88v8.41h4v-20.36zm-21.42 3c1.92 0 3.1 1.14 3.43 3.21h4c-.56-4.47-3.57-6.76-7.49-6.76a7.46 7.46 0 00-5.46 2.28 5.93 5.93 0 00-1.66 3.06 42.81 42.81 0 000 10.77 6 6 0 001.66 3.07 7.5 7.5 0 005.49 2.23 7.12 7.12 0 007.49-6.76h-4c-.29 2.06-1.51 3.21-3.43 3.21a3.13 3.13 0 01-2.54-1.06c-.83-.88-1-2.13-1-6.07s.17-5.19 1-6.08a3.15 3.15 0 012.54-1.05m-23.59 17.31h13.41v-3.55h-9.43v-4.86h8v-3.54h-8v-4.87h9.43v-3.54H70.38zM53 131.81h5.3v16.82h4v-16.82h5.3v-3.54H53zm-6.37 10c0 2.35-1.4 3.75-3.55 3.75s-3.51-1.4-3.51-3.75v-13.54h-4V142c0 4.32 3.32 7.15 7.49 7.15s7.5-2.83 7.5-7.15v-13.73h-4zm-22.12-13.54h-4v20.36h13.23v-3.55h-9.23zM6.45 141.68L9 134.27l2.48 7.41zm.92-13.41L0 148.63h4.11L5.34 145h7.23l1.2 3.6h4.15l-7.44-20.36zM41.65 156H39.9v.55H41v1.59a2.26 2.26 0 01-.92.14 2 2 0 01-2.08-2.14 2 2 0 012.15-2.14 2.65 2.65 0 011.17.23l.17-.57a3.33 3.33 0 00-1.33-.24 2.67 2.67 0 00-2.88 2.75 2.49 2.49 0 002.72 2.69 5 5 0 001.64-.29zm1.47 2.81h.69v-2.31h.64c.63 0 .91.3 1.07 1a8.15 8.15 0 00.35 1.27h.72a9 9 0 01-.42-1.47 1.31 1.31 0 00-.78-1.07 1.41 1.41 0 001-1.36 1.33 1.33 0 00-.42-1 2.18 2.18 0 00-1.54-.43 7.32 7.32 0 00-1.32.1zm.69-4.77a2.75 2.75 0 01.68-.07c.72 0 1.22.31 1.22 1s-.47 1-1.2 1h-.7zm6.12-.64a2.52 2.52 0 00-2.47 2.79 2.44 2.44 0 002.39 2.7 2.49 2.49 0 002.47-2.8 2.42 2.42 0 00-2.39-2.69m0 .56c1.14 0 1.7 1.1 1.7 2.16 0 1.21-.62 2.21-1.71 2.21s-1.7-1-1.7-2.15.54-2.18 1.68-2.18m3.71-.52v3.14c0 1.65.82 2.27 1.91 2.27s2-.67 2-2.3v-3.11h-.7v3.16c0 1.17-.5 1.69-1.29 1.69s-1.24-.5-1.24-1.69v-3.16zm5.51 5.33h.68v-2.13a3.13 3.13 0 00.56 0 2.21 2.21 0 001.62-.58 1.58 1.58 0 00.41-1.14 1.43 1.43 0 00-.46-1.11 2.17 2.17 0 00-1.49-.44 7.46 7.46 0 00-1.32.1zm.68-4.81a3.11 3.11 0 01.65 0c.76 0 1.26.34 1.26 1s-.51 1.14-1.34 1.14a2.26 2.26 0 01-.57-.06zm8.13-.6a2.52 2.52 0 00-2.47 2.79 2.44 2.44 0 002.4 2.7 2.49 2.49 0 002.47-2.8 2.42 2.42 0 00-2.4-2.69zm0 .56c1.15 0 1.7 1.1 1.7 2.16 0 1.21-.61 2.21-1.7 2.21s-1.7-1-1.7-2.15.57-2.22 1.7-2.22" transform="translate(.04 .05)"/><path class="cls-13" d="M71.68 158.86h.69v-2.41h2.02v-.57h-2.02v-1.77h2.18v-.58h-2.87v5.33z"/><path class="cls-13" d="M81.53 158.09a2.79 2.79 0 01-1.12.22 1.93 1.93 0 01-2-2.14 2 2 0 012.07-2.2 2.6 2.6 0 011.08.22l.16-.56a2.94 2.94 0 00-1.26-.23 2.65 2.65 0 00-2.78 2.79 2.49 2.49 0 002.63 2.7 3.28 3.28 0 001.4-.26zm3.3-4.69a2.52 2.52 0 00-2.46 2.79 2.44 2.44 0 002.39 2.7 2.49 2.49 0 002.47-2.8 2.42 2.42 0 00-2.4-2.69m0 .56c1.15 0 1.7 1.1 1.7 2.16 0 1.21-.61 2.21-1.7 2.21s-1.7-1-1.7-2.15.57-2.22 1.7-2.22m8.29 4.85h.67l-.33-5.33h-.88l-.94 2.58c-.24.67-.43 1.25-.57 1.79-.13-.55-.31-1.14-.53-1.79l-.91-2.58h-.88l-.37 5.33H89l.15-2.29c0-.79.08-1.69.1-2.35.15.63.36 1.32.61 2.07l.86 2.53h.52l.94-2.58c.27-.73.49-1.4.68-2 0 .66 0 1.56.08 2.3zm2.14 0H96v-2.13a3 3 0 00.55 0 2.21 2.21 0 001.62-.58 1.58 1.58 0 00.42-1.14 1.44 1.44 0 00-.47-1.11 2.17 2.17 0 00-1.49-.44 7.54 7.54 0 00-1.32.1zM96 154a2.93 2.93 0 01.64 0c.76 0 1.26.34 1.26 1s-.51 1.14-1.34 1.14a2.23 2.23 0 01-.56-.06zm6.13 3.13l.57 1.68h.73l-1.82-5.33h-.83L99 158.81h.71l.55-1.68zm-1.75-.53l.52-1.54c.11-.33.19-.65.27-1 .08.31.16.63.27 1l.53 1.54zm4.83 2.21v-2.28c0-.88 0-1.52-.06-2.19a15.05 15.05 0 001 1.77l1.69 2.71h.7v-5.33h-.65v2.23a21.51 21.51 0 00.08 2.19 14.57 14.57 0 00-1-1.73l-1.71-2.7h-.75v5.33z" transform="translate(.04 .05)"/><path fill="#6d6e71" d="M110.19 153.54h.69v5.32h-.69z"/><path class="cls-13" d="M115.23 155.8h-2.07v-1.68h2.18v-.58h-2.87v5.32h2.99v-.58h-2.3v-1.92h2.07v-.56z"/><path class="cls-13" d="M116.47 158.55a2.86 2.86 0 001.36.34c1.25 0 1.86-.72 1.86-1.54s-.46-1.21-1.36-1.56c-.73-.28-1-.53-1-1s.27-.79 1-.79a2.09 2.09 0 011 .25l.19-.56a2.36 2.36 0 00-1.18-.26 1.53 1.53 0 00-1.72 1.44c0 .75.54 1.2 1.4 1.51s1 .56 1 1.06-.41.91-1.11.91a2.45 2.45 0 01-1.24-.35z" transform="translate(.04 .05)"/></g></g></svg>