<svg xmlns="http://www.w3.org/2000/svg" viewBox="0 0 223.85 56.03"><g data-name="Слой 2"><g data-name="Главная Дилерам"><path fill="#00813e" d="M0 0h223.85v56.03H0z"/><path d="M136.07 34.77l-17.65-24.56h-17.74v33.81a1 1 0 00.18.5c.1.16.26.29.19.21h10.25c.17-8.22-.12-16.25.2-25.52 4.1 4.81 6.61 9.11 9.39 13.25S127 40.7 130 44.67h18V10.14h-11.9s-.03 16.64-.03 24.63zM57 11.56v31.82l1.45 1.42h36.04v-9.3H68.6c.09-1.28.15-2.33.23-3.55h22.39c-.12-3.19.15-6.19-.21-9.35H68.77v-3.35H94.6v-9.1H58.42zm116.88 24.05a.86.86 0 01-.48-.25 1.84 1.84 0 01-.25-.39l22.35-15.88V10.2h-41.45c.12 3.19-.16 6.18.21 9.33h21.9l-23 17v8.27h43.45v-9.2zM16.63 45c3.63-.08 7.08.11 10.69-.15v-10.4h22.61a.94.94 0 00.51-.19c.16-.11.28-.27.2-.19v-8.93h-22a4.16 4.16 0 01-1.27-.36v-5.41c8.77-.2 17.35.19 25.66-.22v-9h-36.4zm193.11-34.8h-10.58v33.81a1.07 1.07 0 00.17.51c.11.15.27.27.21.21h10.19z" fill="#fff"/></g></g></svg>