<svg xmlns="http://www.w3.org/2000/svg" viewBox="0 0 444.47 73.03"><defs><style>.cls-1{fill:#008303;fill-rule:evenodd}</style></defs><g id="Слой_2" data-name="Слой 2"><g id="Свой_транспорт" data-name="Свой транспорт"><path class="cls-1" d="M84.85 20.15h-11.9L60.6 32.49v8.03l12.25 12.25 12.39-.01-16.28-16.28 15.89-16.33z"/><path class="cls-1" d="M80.85 44.4l6.1 6.13 17.76-17.33.06 3.39-7.78 8.03 7.87.14.02 8h8.25V20.15l-8.25.06L80.85 44.4zm68.62-4.02l.03 12.38 20.05-19.56.05 3.39-7.78 8.03 7.88.14.01 8h8.25V20.15l-8.25.06-20.24 20.17zm-32.4.29v12.21l20.16-19.68.17 19.56h8.25V20.15l-8.25.06-20.33 20.46zm64.57 12.09l28.38-.1-.02-12.45-3.67-4 3.67-3.84V20.15h-28.38zM190 28.51h11.61l-8 8 8 7.88h-11.68zm56.31-8.42v8.42h7.94v24.25h8.38V28.51h6.13l8.73-8.42h-31.18z"/><path class="cls-1" d="M295.31 20.15l-12.37-.03-12.42 12.25v8.05l12.35 12.34h12.39L279 36.46l16.31-16.31z"/><path class="cls-1" d="M298.91 20.09l-8.29 8.42h11.32v24.25h8.96V28.51h5.55l8.74-8.42h-26.28z"/><path class="cls-1" d="M331.29 20.12l-12.43 12.25v8.05l12.35 12.35 12.4-.01-12.04-12.07h12.09v-8.32h-12.22l12.22-12.22-12.37-.03zm48.75.03l-12.37-.03-12.01 11.84V20.15h-8.38v32.61h8.38V40.84l11.93 11.92h12.4L363.9 36.51l16.14-16.36z"/><path class="cls-1" d="M375.55 44.44l6.13 6.36 18.07-17.84v19.8h8.38V20.15l-8.25.06-24.33 24.23zm56.8-24.23h-8.09L412 32.48l.05 8 12.11 12.29 8 .07 12.32-12.36v-8.15zm-4.17 24.13l-7.84-7.83 7.84-7.83 7.82 7.83zm-213.97-3.96l.04 12.38 20.04-19.56.06 3.39-7.78 8.03h7.88l.01 8.14h8.25V20.15l-8.25.06-20.25 20.17zM60.74 12.16V0L48.39.08 36.55 11.91V0L24.2.08 0 24.26v24.51L24.2 73h12.35V61.11L48.39 73h12.35V60.86l-24-24.35zM59.93 1.1v10.73l-23.5 23.88h-11.1zm-24.19 0v10.73l-23.5 23.88H1.13zM25 71.88L1.13 48V37.32l34.61 34.61zm34.93.05l-10.73-.05L25.33 48V37.32zM24.19 48.32L12.57 36.51l11.62-11.8v23.61z"/></g></g></svg>