<svg xmlns="http://www.w3.org/2000/svg" viewBox="0 0 202.78 82.6"><defs><style>.cls-1{fill:#e10026}</style></defs><g id="Слой_2" data-name="Слой 2"><g id="Главная_Дилерам" data-name="Главная Дилерам"><path id="path3" class="cls-1" d="M117.37 82.6c-7.09 0-11.34-4.68-11.34-11.5s4.25-11.51 11.34-11.51 11.33 4.67 11.33 11.51-4.23 11.5-11.33 11.5m0-4.34c4 0 4.64-3.71 4.64-7.16s-.66-7.18-4.64-7.18-4.62 3.72-4.62 7.18.65 7.16 4.62 7.16"/><path id="path5" class="cls-1" d="M135 60.24V56l6.48-2.34v6.62h4.89v4.32h-4.89v10.04c0 2.85.44 3.62 2.69 3.62.7 0 1.38-.08 2.08-.12v3.8a23.57 23.57 0 01-5.1.66c-5.07 0-6.15-2.64-6.15-7.36V64.56h-4.4v-4.32z"/><path id="path7" class="cls-1" d="M160.59 82.6c-7.07 0-11.3-4.68-11.3-11.5s4.23-11.51 11.3-11.51 11.33 4.67 11.33 11.51-4.21 11.5-11.33 11.5m0-4.34c4 0 4.64-3.71 4.64-7.16s-.63-7.18-4.64-7.18S156 67.64 156 71.1s.66 7.16 4.61 7.16"/><path id="path9" class="cls-1" d="M104.59 81.89l-8.53-13.83c3.78-1.87 5.88-5.11 5.88-8.52 0-6.06-5.48-9-10.84-9H77.76V81.9h6.76V69.16h4.36l7.8 12.73zM84.5 55.75h5.63c2.94 0 4.68 1.21 4.68 4s-1.74 4.25-4.68 4.3H84.5z"/><path id="polygon11" class="cls-1" d="M202.78 81.88h-6.75L118.19 4 40.63 81.88H0L81.88 0h39.02l81.88 81.88z"/></g></g></svg>