<svg xmlns="http://www.w3.org/2000/svg" viewBox="0 0 335.04 91.18"><defs><style>.cls-2{fill:#1d70b6}</style></defs><g id="Слой_2" data-name="Слой 2"><g id="Свой_транспорт" data-name="Свой транспорт"><path d="M143.65 25.16a6.48 6.48 0 01-2 4.79 6.74 6.74 0 01-11.51-4.79v-9.44h2.69v9.44A3.81 3.81 0 00134 28a3.86 3.86 0 002.87 1.19 4.12 4.12 0 004.06-4v-9.47h2.69zm5.6-9.46l10.77 9.7v-9.7h2.71v16.19-.02.05l-10.79-9.71v9.68h-2.69V15.7zm19.14.02h2.68v16.2h-2.68zm15.94 0A7.74 7.74 0 01190 18.1a8 8 0 010 11.44 8.1 8.1 0 01-13.81-5.72 7.77 7.77 0 012.38-5.72 7.71 7.71 0 015.72-2.38m0 2.7A5.31 5.31 0 00180.5 20a5.24 5.24 0 00-1.57 3.81 5.34 5.34 0 005.4 5.38 5.38 5.38 0 005.39-5.38 5.14 5.14 0 00-1.59-3.81 5.23 5.23 0 00-3.8-1.59m13.29-2.71l10.77 9.7v-9.7h2.72v16.19-.02.05l-10.81-9.71v9.68h-2.68V15.7zm-64.76 32.71v5.39h-2.68V37.6h8.09a5.41 5.41 0 010 10.81zm0-8.09v5.38h5.41A2.73 2.73 0 00141 43a2.59 2.59 0 00-.81-1.92 2.5 2.5 0 00-1.88-.79zm23.46-2.72a8.18 8.18 0 018.12 8.1 8.1 8.1 0 01-13.84 5.72 8 8 0 010-11.44 7.71 7.71 0 015.72-2.38m0 2.72a5.38 5.38 0 00-5.4 5.38 5.36 5.36 0 005.4 5.4 5.21 5.21 0 003.79-1.57 5.27 5.27 0 001.6-3.83 5.2 5.2 0 00-1.6-3.8 5.14 5.14 0 00-3.79-1.58m13.28-2.72h2.69v13.5h8.09v2.7H169.6V37.6zm24.68 0h3.43l-6.66 8.5v7.7h-2.67v-7.56l-6.78-8.64h3.46l4.6 5.91 4.62-5.91zm10.74 6.52v9.68h-2.69V37.6l8.11 8.1 8.11-8.1v16.2h-2.72v-9.68l-5.39 5.41-5.42-5.41zM235 37.6v2.72h-8.09v4.05H235v2.68h-8.09v4.05H235v2.7h-10.79V37.6H235zm15.89 16.2l-3.13-5.39h-4.57v5.39h-2.67V37.6h8.09A5.41 5.41 0 01254 43a5.47 5.47 0 01-3.33 5l3.33 5.8zm-2.28-13.48h-5.42v5.36h5.42a2.59 2.59 0 001.89-.79 2.68 2.68 0 000-3.8 2.55 2.55 0 00-1.89-.79M130.18 60.07h13.5v2.71h-5.4v13.49h-2.7V62.78h-5.4v-2.71zm28.92 0v2.71H151v4.07h8.1v2.68H151v4.04h8.1v2.7h-10.78v-16.2h10.78zm12.9 0a8.05 8.05 0 013.15.63 8.22 8.22 0 012.58 1.76l-1.92 1.91a5.34 5.34 0 00-5.9-1.16 5.58 5.58 0 00-1.72 1.15 6.11 6.11 0 00-1.19 1.71 5.49 5.49 0 000 4.21 6.17 6.17 0 001.17 1.72 5.63 5.63 0 001.73 1.15 5.32 5.32 0 002.1.42 5.27 5.27 0 003.81-1.57l1.92 1.89a8.36 8.36 0 01-2.58 1.75 7.88 7.88 0 01-3.15.63 7.55 7.55 0 01-3.14-.65 7.92 7.92 0 01-2.57-1.73 8 8 0 01-1.77-8.83 8.13 8.13 0 011.77-2.58 8.37 8.37 0 012.57-1.77 8 8 0 013.14-.64m10.59 0h2.68v6.76h8.1v-6.76h2.7v16.2h-2.7v-6.74h-8.1v6.74h-2.68v-16.2zm19.14-.02l10.78 9.72v-9.72h2.71v16.19-.02.06l-10.79-9.7v9.66h-2.7V60.05zm26.77.02a8.18 8.18 0 018.12 8.11 7.63 7.63 0 01-2.4 5.71 7.8 7.8 0 01-5.72 2.39 8.09 8.09 0 01-5.72-13.82 7.62 7.62 0 015.72-2.39m0 2.71a5.41 5.41 0 00-5.41 5.4 5.38 5.38 0 005.41 5.39 5.21 5.21 0 003.8-1.57 5.28 5.28 0 001.58-3.82 5.41 5.41 0 00-5.38-5.4m13.28-2.71h2.68v13.5h8.11v2.7h-10.79v-16.2zm22.61 0a8.18 8.18 0 018.12 8.11 7.6 7.6 0 01-2.4 5.71 8.08 8.08 0 11-11.43-11.43 7.64 7.64 0 015.71-2.39m0 2.71a5.38 5.38 0 00-5.38 5.4 5.34 5.34 0 005.38 5.39 5.4 5.4 0 000-10.79m20.86-2.71a8.16 8.16 0 013.15.63 7.93 7.93 0 012.6 1.76l-1.93 1.91a5.15 5.15 0 00-3.81-1.59 5.4 5.4 0 100 10.79 5.35 5.35 0 002.25-.48 5.8 5.8 0 001.82-1.34v-2.22h-4.07v-2.68H292v5.79a8.68 8.68 0 01-1.29 1.49 9.6 9.6 0 01-1.6 1.16 8.4 8.4 0 01-1.84.73 8.06 8.06 0 01-2 .25 8.1 8.1 0 010-16.2m12.16 0h2.68v16.21h-2.68zm19.12 0v2.71h-8.09v4.07h8.09v2.68h-8.09v4.04h8.09v2.7h-10.77v-16.2h10.77zm9.72 9.46a4.73 4.73 0 01-4.73-4.75 4.78 4.78 0 014.73-4.71H335v2.71h-8.77a2.08 2.08 0 00-.8.16 2.16 2.16 0 00-.65.43 2.07 2.07 0 00-.44.65 2.31 2.31 0 00-.14.76 2 2 0 00.58 1.46 1.91 1.91 0 001.45.61h4a4.54 4.54 0 013.33 1.38 4.64 4.64 0 010 6.66 4.51 4.51 0 01-3.33 1.39h-8.76v-2.71h8.76a1.75 1.75 0 00.79-.16 1.91 1.91 0 00.66-.42 2 2 0 00.58-1.44 1.9 1.9 0 00-.61-1.41 1.88 1.88 0 00-1.42-.61zM108.83 8.34h3.06v74.48h-3.06z" fill="#9b9a9a"/><path class="cls-2" d="M78.68 58.1l-33.1-33.09-8.04 8.06L62.56 58.1 45.58 75.07 8.04 37.53 0 45.59l45.58 45.59 33.1-33.08z"/><path class="cls-2" d="M53.64 58.1L28.62 33.07l16.97-16.98 37.54 37.55 8.06-8.05L45.59 0 12.51 33.07l33.07 33.08 8.06-8.05z"/></g></g></svg>