<svg xmlns="http://www.w3.org/2000/svg" viewBox="0 0 219.07 109.56"><defs><style>.cls-1{fill:#00adee}</style></defs><g id="Слой_2" data-name="Слой 2"><g id="Свой_транспорт" data-name="Свой транспорт"><path class="cls-1" d="M53.51 28.74l-3.42.85-6.32 1.56-9.84 16.95-10.34 17.86-2.05-.49V36.56l-7.17 1.8V71.2l12.71 3.13 6.85-11.86 16.16-27.86 3.42-5.87zm25.49 48a2.14 2.14 0 01-.82 1.7 2.11 2.11 0 01-1.86.42l-13.45-3.32-12.78-3.1-1.73-.44a2.18 2.18 0 01-1.49-1.27 2.29 2.29 0 01.12-2l3.1-5.34 12.78-22 4.56-7.89a2.06 2.06 0 011.33-1l7.56-1.86A2.15 2.15 0 0179 32.82zm3.61-51.36a9.25 9.25 0 00-8-1.79l-7.5 1.86a9.39 9.39 0 00-5.9 4.43L50.09 49l-9.25 16a9.56 9.56 0 00-.56 8.57 9.42 9.42 0 006.42 5.54l3.39.82 12.78 3.13L74.6 86a9.25 9.25 0 008-1.79 9.61 9.61 0 003.59-7.5V32.85a9.61 9.61 0 00-3.59-7.47m75.39 40.03l-8.96-22.56-8.02-20.1-8.14-2.02V88.8l7.17-1.76V39.76l8.99 22.55 8.15 20.53 8.01-1.96v-52.2l-7.2-1.76v38.49z"/><path class="cls-1" d="M62.87 90.6l-12.78-3.13-16.16-4L7.2 76.94V32.62L33.93 26l16.16-3.9L62.87 19l46.66-11.51L149 17.21l39.5 9.68 23.33 5.73v44.32l-23.33 5.71-39.5 9.71-39.47 9.64zm0-79.13L50.09 14.6l-16.16 3.94L0 26.89v55.79L33.93 91l16.16 4 12.78 3.13 46.66 11.47L149 99.85l39.5-9.68 30.54-7.49V26.89l-30.54-7.5L149 9.71 109.53 0z"/><path class="cls-1" d="M172.37 30.44v48.69l16.16-3.98 16.16-3.98v-7.49l-16.16 3.97-9 2.22V58.43h17.99v-7.3h-17.99V39.69l9 2.22 16.16 3.97v-7.52l-16.16-3.95-16.16-3.97zM118.5 42.4a9 9 0 01-2.5 6.19 8.67 8.67 0 01-6.13 2.57h-9.29V24.73l7.3-1.79a7.62 7.62 0 011.67-.26 8.63 8.63 0 015.66 1.89 8.78 8.78 0 013.3 6.88zm1.14-23.53a15.61 15.61 0 00-10.1-3.46 14.87 14.87 0 00-3.4.43L93.4 19v71.6l7.17 1.75V58.43h7l2 6.13 9.22 27.89 6.94-1.89-11-32.91a16.07 16.07 0 0011-15.32V31.51a16.15 16.15 0 00-6.06-12.64M212 9.35h-2.68v8h1.21v-3.47H212l.07.1v-1.11h-1.47v-2.51h1.4zm0 11a7.52 7.52 0 01-3.49-.91 7.15 7.15 0 01-2.61-2.51 6.73 6.73 0 01-1-3.55 7 7 0 01.56-2.74 7.18 7.18 0 011.56-2.22 7 7 0 012.25-1.43 6.89 6.89 0 012.73-.57v1.14a5.71 5.71 0 00-4 1.63 6.15 6.15 0 00-1.21 1.86 6.07 6.07 0 00-.42 2.28 6 6 0 00.42 2.28 5.59 5.59 0 001.21 1.86 5.66 5.66 0 001.79 1.23 5.49 5.49 0 002.22.43zm0-6.35l2.05 3.36h1.37l-2.25-3.52a2.44 2.44 0 001-.33 1.82 1.82 0 00.72-.71 2.31 2.31 0 00.26-1.18 2 2 0 00-.68-1.69 3.16 3.16 0 00-2.09-.56H212v1h.19a3.87 3.87 0 01.88.1 1 1 0 01.62.33 1 1 0 01.26.74c0 .56-.16.92-.52 1.08a3.2 3.2 0 01-1.43.26zm0 6.32v-1.19a5.45 5.45 0 002.21-.43 5.15 5.15 0 001.79-1.23 5.62 5.62 0 001.21-1.83 6.12 6.12 0 00.42-2.31 5.82 5.82 0 00-.42-2.28A5.35 5.35 0 00216 9.19a5.57 5.57 0 00-4-1.63V6.42a6.87 6.87 0 012.7.52 7 7 0 012.3 1.43 6.51 6.51 0 011.53 2.19 7.21 7.21 0 01.56 2.77 7 7 0 01-.56 2.77 6.9 6.9 0 01-1.53 2.21 6.82 6.82 0 01-2.25 1.44 6.9 6.9 0 01-2.7.55"/></g></g></svg>