<svg width="97" height="97" fill="none" xmlns="http://www.w3.org/2000/svg"><g clip-path="url(#clip0_29_3757)"><path d="M48.5 97C75.286 97 97 75.286 97 48.5S75.286 0 48.5 0 0 21.714 0 48.5 21.714 97 48.5 97z" fill="#FFF6F3"/><g stroke="#ED7E06" stroke-width="2.01" stroke-linecap="round" stroke-linejoin="round"><path d="M34 14.566c-1.955-1.123-4.129-.517-5.608 1.311C25.424 14.814 22 16.602 22 20m10 2a3.495 3.495 0 013.466-3.02c.208 0 .417.02.615.06A3.998 3.998 0 0139.974 16a4.02 4.02 0 013.327 1.758 3.496 3.496 0 012.185-.765 3.495 3.495 0 013.475 3.08A5.008 5.008 0 0152 21.99M72 46H24v18h48V46zm-24 0v18m6-18v18m6-18v18m6-18v18M42 46v18m-6-18v18m-6-18v18m42-12H24m48 6H24m52 10H20"/><path d="M59.997 41.999V30.006L44.004 42V30.006L28.001 42V24H20v48h56V30.006L59.997 42zM20 28h8"/></g></g><defs><clipPath id="clip0_29_3757"><path fill="#fff" d="M0 0h97v97H0z"/></clipPath></defs></svg>