<svg width="97" height="97" fill="none" xmlns="http://www.w3.org/2000/svg"><path d="M49 97c26.786 0 48-21.214 48-48S75.786 0 49 0 0 22.214 0 49s22.214 48 49 48z" fill="#FFF6F3"/><g stroke="#ED7E06" stroke-width="2.45" stroke-linecap="round" stroke-linejoin="round"><path d="M27 50v22h-1c-5.966 0-11-4.928-11-11s5.034-11 11-11h1v0zm5-1v23c0 1.353-.622 2-2 2-1.378 0-3-.647-3-2V49c0-1.353 1.622-2 3-2s2 .647 2 2zm37 1v22h1c5.966 0 11-4.928 11-11s-5.034-11-11-11h-1v0zm-5-1v23c0 1.353 1.622 2 3 2s2-.647 2-2V49c0-1.353-.622-2-2-2-1.378 0-3 .647-3 2zM51 79h-4c-1.379 0-3 .622-3 2 0 1.378 1.621 3 3 3h4c1.379 0 3-1.622 3-3s-1.621-2-3-2z"/><path d="M76 52V41c0-15.717-12.537-28-28-28S20 25.283 20 41v11m34 30h12c5.403 0 10-4.423 10-10v-2"/></g></svg>