<svg xmlns="http://www.w3.org/2000/svg" viewBox="0 0 120.74 94.57"><defs><style>.cls-1{fill:none;stroke:#d91c5c;stroke-linecap:round;stroke-linejoin:round;stroke-width:3.1px}</style></defs><g id="Слой_2" data-name="Слой 2"><g id="Герметик"><path class="cls-1" d="M67.38 54.43l4.32 4.32a3 3 0 010 4.31l-8.64 8.64a3 3 0 01-4.31 0l-4.32-4.32"/><path class="cls-1" d="M64.14 70.62l6.48-6.48 14.17 18.22a1.74 1.74 0 01-.14 2.29 1.74 1.74 0 01-2.29.14zM29.61 10.18l39.93 42.09-17.27 17.27-42.09-39.93"/><path class="cls-1" d="M1.55 20.97L20.97 1.55l10.8 6.47L8.02 31.77l-6.47-10.8z"/><circle class="cls-1" cx="37.87" cy="37.87" r="12.99" transform="rotate(-45 37.868 37.875)"/><path class="cls-1" d="M41.68 41.73l-4.1-4.11 4.93-4.84m46.63 54.78h30.05M1.55 93.02h117.64M93.24 82.26h25.95m-117.64 0h65.73"/></g></g></svg>