<svg xmlns="http://www.w3.org/2000/svg" viewBox="0 0 108.43 35.49"><defs><style>.cls-2{fill:#585857}.cls-3{fill:#68c0bd}</style></defs><g id="Слой_2" data-name="Слой 2"><g id="BLITZ"><path d="M13.01 17.35h3.15v3.15h-3.15zm-4.34 0h3.15v3.15H8.67zm8.68-4.34h3.15v3.15h-3.15zm-4.34 0h3.15v3.15h-3.15zm-4.34 0h3.15v3.15H8.67zm-4.33 0h3.15v3.15H4.34z" fill="#e30042"/><path class="cls-2" d="M17.35 8.67h3.15v3.15h-3.15zm-4.34 0h3.15v3.15h-3.15z"/><path class="cls-3" d="M8.67 8.67h3.15v3.15H8.67zm-4.33 0h3.15v3.15H4.34zM0 8.67h3.15v3.15H0z"/><path class="cls-2" d="M17.35 4.34h3.15v3.15h-3.15zm-4.34 0h3.15v3.15h-3.15z"/><path class="cls-3" d="M8.67 4.34h3.15v3.15H8.67zm-4.33 0h3.15v3.15H4.34zM0 4.34h3.15v3.15H0z"/><path class="cls-2" d="M13.01 0h3.15v3.15h-3.15z"/><path class="cls-3" d="M8.67 0h3.15v3.15H8.67zM4.34 0h3.15v3.15H4.34z"/><path d="M108.43 11.83v19.71c0 2-1.18 4-3.55 4H94.43v-4.79h6.51c1 0 1.18-.39 1.18-1.18v-1.38H96.8c-2.37 0-3.55-2-3.55-3.94V11.83h6.31v11.24c0 1 .39 1.18 1.18 1.18h1.38V11.83zm-29.57 0c-2.37 0-3.55 2-3.55 3.94v19.71h6.31v-9.85h2.56v9.86h6.31V11.83zm5.32 9.86h-2.56V17c0-1 .39-1.17 1.18-1.17h1.38zM72.55 27.6v7.89h-6.31v-9.86h-1.38c-.79 0-1.18.2-1.18 1.18v8.67h-6.31V27.6c0-2 1-3.75 2.56-4-1.57-.19-2.56-2-2.56-3.94v-7.83h6.31v9.86h1.38c.79 0 1.18-.2 1.18-1.19v-8.67h6.31v7.88c0 2-1 3.75-2.56 3.94 1.57.2 2.56 2 2.56 4m-22.47-5.96h3.93v3.94h-3.93v5.11l4.53.01v4.74H43.77V11.83h10.84v4.73h-4.53v5.13zm-12.62-9.86H26.61v23.65h6.31v-6.3h4.54c2.36 0 3.55-2 3.55-3.95v-9.46c0-2-1.19-3.94-3.55-3.94m-2 12.22c0 1-.4 1.18-1.19 1.18h-1.35v-9.46h1.38c.79 0 1.19.2 1.19 1.18z" fill="#1d1e1c"/></g></g></svg>