<svg xmlns="http://www.w3.org/2000/svg" viewBox="0 0 44.98 109.41"><defs><style>.cls-2,.cls-3{stroke:#1d1d1b;stroke-miterlimit:10;fill:#fff;stroke-width:.34px}.cls-3{fill:#c6c6c6}</style></defs><g id="Слой_2" data-name="Слой 2"><g id="Ручки"><path d="M33.27 2h-6a9.73 9.73 0 00-9.72 9.72v4.36h-7A8.53 8.53 0 002 24.6V103a4.39 4.39 0 004.39 4.38h11.82A4.39 4.39 0 0022.6 103V46.2a9.71 9.71 0 004.67 1.2h6A9.73 9.73 0 0043 37.68v-26A9.73 9.73 0 0033.27 2z" stroke="#1d1d1b" stroke-miterlimit="10" fill="#1d1d1b" stroke-width="4"/><path class="cls-2" d="M33 47.23h-5.8c-5.19-.07-3.8-4.34-3.8-9.55v-26c0-5.24-1.34-9.52 3.88-9.55H33a9.57 9.57 0 019.55 9.55v26A9.58 9.58 0 0133 47.23z"/><rect class="cls-2" x="17.4" y="2.17" width="19.1" height="45.06" rx="9.55"/><path class="cls-3" d="M23.74 34.25h-8.58c-4.53-.08.23-3.81.23-8.35v-1.3c0-4.56-9.74-8.3-5.19-8.35h13.54a8.38 8.38 0 018.35 8.35v1.3a8.38 8.38 0 01-8.35 8.35z"/><path class="cls-3" d="M22.12 24.61V103a4.23 4.23 0 01-4.22 4.22h-3.56a4.23 4.23 0 004.22-4.22V24.61A8.38 8.38 0 0012 16.45a8.67 8.67 0 011.78-.19 8.36 8.36 0 018.35 8.35z"/><path d="M22.45 9.93h.32v.32h-.32zm-.44 0h.32v.32h-.32zm.88-.44h.32v.32h-.32zm-.44 0h.32v.32h-.32zm-.44 0h.32v.32h-.32zm-.44 0h.32v.32h-.32zm1.32-.44h.32v.32h-.32zm-.44 0h.32v.32h-.32zm-.44 0h.32v.32h-.32zm-.44 0h.32v.32h-.32zm-.43 0h.32v.32h-.32zm1.75-.43h.32v.32h-.32zm-.44 0h.32v.32h-.32zm-.44 0h.32v.32h-.32zm-.44 0h.32v.32h-.32zm-.43 0h.32v.32h-.32zm1.31-.44h.32v.32h-.32zm-.44 0h.32v.32h-.32zm-.44 0h.32v.32h-.32zm10.52 1.19v2a.37.37 0 01-.36.4h-1.06v-.48h.66c.1 0 .12 0 .12-.12V11h-.54a.37.37 0 01-.36-.4V9.37h.64v1.14c0 .1 0 .12.12.12h.14V9.37zm-2.99 0a.37.37 0 00-.36.4v2h.64v-1h.26v1h.63v-2.4zm.54 1h-.26v-.48c0-.1 0-.12.12-.12h.14zm-1.18.63v.79h-.63v-1h-.14c-.08 0-.12 0-.12.12v.87h-.64V11c0-.2.1-.38.26-.4-.16 0-.26-.2-.26-.4v-.8h.64v1h.14c.08 0 .12 0 .12-.12v-.91h.63v.8c0 .2-.1.38-.26.4.16 0 .26.2.26.4m-2.27-.6h.4v.4h-.4v.51h.46v.48h-1.09V9.37h1.09v.48h-.46v.52zm-1.27-1h-1.1v2.39h.64v-.63h.46a.37.37 0 00.36-.4v-1a.37.37 0 00-.36-.4m-.2 1.24c0 .1 0 .12-.12.12h-.14v-1h.14c.08 0 .12 0 .12.12z" fill="#706f6f"/><path class="cls-2" d="M10.2 16.25a8.35 8.35 0 018.35 8.35V103a4.22 4.22 0 01-4.22 4.22H6.07A4.22 4.22 0 011.85 103V24.6a8.35 8.35 0 018.35-8.35z"/></g></g></svg>