<svg xmlns="http://www.w3.org/2000/svg" viewBox="0 0 128.59 128.59"><defs><pattern id="Grid_1_pica_Lines" data-name="Grid 1 pica Lines" width="72" height="72" patternTransform="matrix(.1 0 0 .1 -27.09 -23.17)" patternUnits="userSpaceOnUse"><path fill="none" d="M0 0h72v72H0z"/><path d="M6 71.75v72.5m24-72.5v72.5m24-72.5v72.5m-36-72.5v72.5m24-72.5v72.5m24-72.5v72.5M71.75 66h72.5m-72.5-24h72.5m-72.5-24h72.5m-72.5 36h72.5m-72.5-24h72.5M71.75 6h72.5M6-.25v72.5M30-.25v72.5M54-.25v72.5M-.25 66h72.5M-.25 42h72.5M-.25 18h72.5M-.25 54h72.5M-.25 30h72.5M-.25 6h72.5M18-.25v72.5M42-.25v72.5M66-.25v72.5M-72.25 66H.25m-72.5-24H.25m-72.5-24H.25m-72.5 36H.25m-72.5-24H.25m-72.5-24H.25M6-72.25V.25m24-72.5V.25m24-72.5V.25m-36-72.5V.25m24-72.5V.25m24-72.5V.25" stroke="#1d1d1b" stroke-width=".3" fill="none"/></pattern><style>.cls-6{fill:none;stroke-linecap:round;stroke-linejoin:round;stroke:#ef5a24;stroke-width:2.41px}</style></defs><g id="Слой_2" data-name="Слой 2"><g id="СТАТЬ_ДИЛЕРОМ_ВИДЕО" data-name="СТАТЬ ДИЛЕРОМ+ВИДЕО"><circle cx="64.29" cy="64.29" r="64.29" fill="#fff4f1"/><path d="M44.94 48.12h55.12v55.12H44.94zm0 24.7h55.12M72.5 48.71v24.11" stroke-width="3.24" stroke-linecap="round" stroke-linejoin="round" stroke="#eb7e06" fill="none"/><path stroke-width="3.24" fill="url(#Grid_1_pica_Lines)" stroke-linecap="round" stroke-linejoin="round" stroke="#eb7e06" d="M51.85 41.77h55.12v55.12H51.85z"/><path class="cls-6" d="M28.84 70.61l.02-39.05"/><path fill-rule="evenodd" stroke="#ef5a24" stroke-width="2.41" stroke-linecap="round" stroke-linejoin="round" fill="none" d="M26.46 23.35v4.81l1.2 2.4 2.4-.01 1.21-2.4v-4.8h-4.81z"/><path d="M36.05 73v-2.4H21.63V73a2.41 2.41 0 002.4 2.4h0v2.4h0a2.41 2.41 0 00-2.4 2.4v16.54a7.39 7.39 0 007 7.5A7.22 7.22 0 0036 97V80.21a2.4 2.4 0 00-2.4-2.4h0v-2.4h0A2.41 2.41 0 0036.05 73z" fill="#fff" fill-rule="evenodd" stroke="#ef5a24" stroke-width="2.41" stroke-linecap="round" stroke-linejoin="round"/><path class="cls-6" d="M26.42 97.04l.01-14.42m4.8 14.41l.01-14.41"/></g></g></svg>