<svg xmlns="http://www.w3.org/2000/svg" viewBox="0 0 128.59 129.09"><defs><style>.cls-1{fill:#fff4f1}.cls-2{fill:none;stroke:#eb7e06;stroke-linecap:round;stroke-linejoin:round;stroke-width:3.65px}</style></defs><g id="Слой_2" data-name="Слой 2"><g id="СТАТЬ_ДИЛЕРОМ_ВИДЕО" data-name="СТАТЬ ДИЛЕРОМ+ВИДЕО"><circle class="cls-1" cx="64.29" cy="64.29" r="64.29"/><path class="cls-2" d="M69.66 25.88q7.26-3.51 9.92 4.11 8.06-.46 7.59 7.59 7.62 2.66 4.11 9.92 6 5.37 0 10.74 3.51 7.26-4.11 9.91.47 8.05-7.59 7.6-2.65 7.6-9.92 4.1-5.37 6-10.73 0-7.27 3.51-9.92-4.1-8.05.45-7.59-7.6-7.62-2.66-4.11-9.91-6-5.37 0-10.74-3.51-7.26 4.11-9.92Q41 29.53 49 30q2.66-7.62 9.92-4.11 5.37-6.02 10.74-.01z"/><path class="cls-2" d="M44.26 74.93l-6.97 25.99 12.25-7.07 7.07 11.87 6.28-23.07m2.81 0l6.28 23.07 7.07-11.87 12.24 7.07-6.96-25.99"/><circle class="cls-1" cx="64.29" cy="64.79" r="64.29"/><path class="cls-2" d="M69.66 26.38q7.26-3.51 9.92 4.11 8.06-.46 7.59 7.59 7.62 2.66 4.11 9.92 6 5.37 0 10.74 3.51 7.26-4.11 9.91.47 8.05-7.59 7.6-2.65 7.6-9.92 4.1-5.37 6-10.73 0-7.27 3.51-9.92-4.1-8.05.45-7.59-7.6-7.62-2.65-4.11-9.91-6-5.37 0-10.74-3.51-7.26 4.11-9.92Q41 30 49 30.49q2.66-7.62 9.92-4.11 5.37-6.01 10.74 0z"/><path class="cls-2" d="M44.26 75.43l-6.97 25.99 12.25-7.07 7.07 11.87 6.28-23.07m2.81 0l6.28 23.07 7.07-11.87 12.24 7.07-6.96-25.99"/></g></g></svg>