<svg xmlns="http://www.w3.org/2000/svg" viewBox="0 0 128.59 129.09"><defs><style>.cls-1{fill:#fff4f1}.cls-2{fill:#eb7e06}</style></defs><g id="Слой_2" data-name="Слой 2"><g id="СТАТЬ_ДИЛЕРОМ_ВИДЕО" data-name="СТАТЬ ДИЛЕРОМ+ВИДЕО"><circle class="cls-1" cx="64.29" cy="64.29" r="64.29"/><path class="cls-2" d="M30.26 56.34l1.43 4.28h4.44a.73.73 0 01.45 1.3L33 64.65l1.31 4.19a.72.72 0 01-1.1.81l-3.65-2.51-3.64 2.51a.72.72 0 01-1.1-.81l1.31-4.19-3.57-2.73a.73.73 0 01.44-1.3h4.44l1.44-4.28a.72.72 0 011.38 0zm.58 18.09l3.38 3 3.85-2.22a.72.72 0 011 .9l-1.72 4.16 3.23 3a.72.72 0 01-.55 1.25l-4.41-.35-1.9 4a.72.72 0 01-1.33-.17l-1-4.28L27 83.1a.73.73 0 01-.27-1.35l3.85-2.22-.9-4.42a.72.72 0 011.16-.68zm9.55 15.36l4.42.9L47 86.84a.73.73 0 011.35.27l.65 4.46 4.28 1a.73.73 0 01.16 1.37l-4 1.9.35 4.41a.73.73 0 01-1.26.55l-3-3.24-4.16 1.73a.72.72 0 01-.9-1l2.22-3.85L39.7 91a.73.73 0 01.69-1.21zm15.95 8.54l4.28-1.44v-4.44a.73.73 0 011.3-.44l2.73 3.57 4.19-1.31a.72.72 0 01.81 1.1L67.14 99l2.51 3.64a.72.72 0 01-.81 1.1l-4.19-1.31-2.73 3.57a.73.73 0 01-1.3-.44v-4.44l-4.28-1.42a.72.72 0 010-1.37zm18.09-.59l3-3.37-2.22-3.85a.72.72 0 01.9-1l4.16 1.72 3-3.23a.72.72 0 011.25.55l-.35 4.41 4 1.9A.72.72 0 0188 96.2l-4.28 1-.58 4.46a.73.73 0 01-1.35.27L79.53 98l-4.42.89a.72.72 0 01-.68-1.15zm15.36-9.54l.9-4.42-3.85-2.22a.73.73 0 01.27-1.35l4.46-.58 1-4.28a.73.73 0 011.37-.16l1.9 4 4.41-.35a.72.72 0 01.55 1.25l-3.24 3 1.73 4.15a.72.72 0 01-1 .91l-3.93-2.25-3.38 3a.72.72 0 01-1.19-.7zm8.54-15.95L96.89 68h-4.44a.73.73 0 01-.44-1.3l3.57-2.73-1.31-4.19a.72.72 0 011.1-.81L99 61.44l3.64-2.5a.72.72 0 011.1.81l-1.31 4.19 3.57 2.73a.73.73 0 01-.44 1.3h-4.44l-1.42 4.28a.73.73 0 01-1.37 0zm-.59-18.09l-3.37-3-3.85 2.24a.72.72 0 01-1-.91l1.72-4.15-3.23-3a.73.73 0 01.55-1.26l4.41.35 1.9-4a.72.72 0 011.36.15l1 4.29 4.46.58a.73.73 0 01.27 1.35L98 49.06l.89 4.42a.72.72 0 01-1.15.68zM88.2 38.8l-4.42-.9-2.22 3.85a.73.73 0 01-1.35-.27L79.63 37l-4.28-1a.72.72 0 01-.16-1.36l4-1.9-.35-4.41a.72.72 0 011.25-.55l3 3.23 4.15-1.72a.72.72 0 01.91 1l-2.25 3.94 3 3.37a.73.73 0 01-.7 1.2zm-15.95-8.54L68 31.69v4.44a.73.73 0 01-1.3.45L63.94 33l-4.19 1.31a.72.72 0 01-.81-1.1l2.5-3.65-2.5-3.64a.72.72 0 01.81-1.1l4.19 1.31 2.73-3.57A.73.73 0 0168 23v4.44l4.28 1.44a.73.73 0 01-.03 1.38zm-18.09.58l-3 3.38 2.22 3.85a.72.72 0 01-.91 1l-4.15-1.72-3 3.23a.73.73 0 01-1.26-.55l.35-4.41-4-1.9a.72.72 0 01.15-1.36l4.29-1 .64-4.36a.73.73 0 011.35-.27l2.22 3.85 4.42-.9a.72.72 0 01.68 1.16zM38.8 40.39l-.9 4.42L41.75 47a.73.73 0 01-.27 1.35L37 49l-1 4.28a.72.72 0 01-1.36.16l-1.9-4-4.41.35a.73.73 0 01-.55-1.26l3.23-3-1.72-4.16a.72.72 0 011-.9l3.85 2.22 3.37-3a.73.73 0 011.29.7z"/><circle class="cls-1" cx="64.29" cy="64.79" r="64.29"/><path class="cls-2" d="M30.26 56.84l1.43 4.28h4.44a.73.73 0 01.45 1.3L33 65.15l1.31 4.19a.72.72 0 01-1.1.81l-3.65-2.51-3.64 2.51a.72.72 0 01-1.1-.81l1.31-4.19-3.57-2.73a.73.73 0 01.44-1.3h4.44l1.44-4.28a.72.72 0 011.38 0zm.58 18.09l3.38 3 3.85-2.22a.72.72 0 011 .9l-1.72 4.16 3.23 3a.72.72 0 01-.52 1.23l-4.41-.35-1.9 4a.72.72 0 01-1.36-.16l-1-4.28L27 83.6a.73.73 0 01-.27-1.35L30.55 80l-.9-4.42a.72.72 0 011.19-.65zm9.55 15.36l4.42.9L47 87.34a.73.73 0 011.35.27l.65 4.46 4.28 1a.73.73 0 01.16 1.37l-4 1.9.35 4.41a.73.73 0 01-1.26.55l-3-3.24-4.16 1.73a.72.72 0 01-.9-1l2.22-3.85-3-3.38a.73.73 0 01.7-1.27zm15.95 8.54l4.28-1.44V93a.73.73 0 011.3-.44l2.73 3.57 4.19-1.31a.72.72 0 01.81 1.1l-2.51 3.65 2.51 3.64a.72.72 0 01-.81 1.1L64.65 103l-2.73 3.57a.73.73 0 01-1.3-.44v-4.44l-4.28-1.44a.72.72 0 010-1.42zm18.09-.59l3-3.37L75.19 91a.72.72 0 01.9-1l4.16 1.72 3-3.23a.72.72 0 011.25.55l-.35 4.41 4 1.9A.72.72 0 0188 96.7l-4.28 1-.58 4.46a.73.73 0 01-1.35.27l-2.22-3.85-4.42.89a.72.72 0 01-.72-1.23zm15.36-9.54l.9-4.42-3.85-2.22a.73.73 0 01.27-1.35l4.46-.58 1-4.28a.73.73 0 011.37-.16l1.9 4 4.41-.35a.72.72 0 01.55 1.25l-3.24 3 1.73 4.15a.72.72 0 01-1 .91l-3.93-2.25-3.38 3a.72.72 0 01-1.19-.7zm8.54-15.95l-1.44-4.28h-4.44a.73.73 0 01-.44-1.3l3.57-2.73-1.31-4.19a.72.72 0 011.1-.81l3.63 2.5 3.64-2.5a.72.72 0 011.1.81l-1.31 4.19 3.57 2.73a.73.73 0 01-.44 1.3h-4.44l-1.42 4.28a.73.73 0 01-1.37 0zm-.59-18.09l-3.37-3-3.85 2.24a.72.72 0 01-1-.91l1.72-4.15-3.23-3a.73.73 0 01.55-1.26l4.41.35 1.9-4a.72.72 0 011.36.15l1 4.29 4.46.58a.73.73 0 01.27 1.35L98 49.56l.93 4.44a.72.72 0 01-1.19.66zM88.2 39.3l-4.42-.9-2.22 3.85a.73.73 0 01-1.35-.25l-.58-4.46-4.28-1a.72.72 0 01-.16-1.36l4-1.9-.35-4.41a.72.72 0 011.25-.55l3 3.23 4.15-1.72a.72.72 0 01.91 1l-2.25 3.9 3 3.37a.73.73 0 01-.7 1.2zm-15.95-8.54L68 32.19v4.44a.73.73 0 01-1.3.45l-2.73-3.57-4.19 1.31a.72.72 0 01-.81-1.1l2.5-3.65-2.5-3.64a.72.72 0 01.81-1.1l4.19 1.31 2.73-3.57a.73.73 0 011.3.44V28l4.28 1.44a.73.73 0 01-.03 1.32zm-18.09.58l-3 3.38 2.22 3.85a.72.72 0 01-.91 1l-4.15-1.72-3 3.23a.73.73 0 01-1.26-.55l.35-4.41-4-1.9a.72.72 0 01.15-1.36l4.29-1 .58-4.46a.73.73 0 011.35-.27L49 30.98l4.42-.9a.72.72 0 01.74 1.26zM38.8 40.89l-.9 4.42 3.85 2.22a.73.73 0 01-.27 1.35l-4.48.58-1 4.28a.72.72 0 01-1.36.16l-1.9-4-4.41.35a.73.73 0 01-.49-1.25l3.23-3-1.72-4.16a.72.72 0 011-.9l3.85 2.22 3.37-3a.73.73 0 011.23.73z"/></g></g></svg>