<svg xmlns="http://www.w3.org/2000/svg" viewBox="0 0 36.84 37.96"><defs><style>.cls-2{fill:none;stroke:#ec8200;stroke-linecap:round;stroke-linejoin:round;stroke-width:1.19px}.cls-6{fill:#fff;opacity:.5;mix-blend-mode:screen}</style></defs><g style="isolation:isolate"><g id="Слой_2" data-name="Слой 2"><g id="Слой_1-2" data-name="Слой 1"><ellipse class="cls-2" cx="18.42" cy="30.19" rx="17.82" ry="3.72"/><path class="cls-2" d="M.59 30.19v3.34c0 2 8 3.72 17.83 3.72s17.82-1.67 17.82-3.72v-3.34"/><path fill="#ec8200" stroke="#ec8200" stroke-linecap="round" stroke-linejoin="round" stroke-width="1.19" d="M7.3.59h22.23v28.94H7.3z"/><path d="M17.72 1.49v27.14H8.11V1.49h9.61m.69-.69h-11v28.52h11V.8zm10.32.69v27.14h-9.62V1.49h9.62m.69-.69h-11v28.52h11V.8z" fill="#fff"/><path d="M18.42 37C8.06 37 .84 35.17.84 33.53v-2.36c2 1.95 10 3 17.58 3s15.55-1 17.57-3v2.36C36 35.17 28.77 37 18.42 37z" fill="#ec8200"/><path class="cls-6" d="M7.42 32.2l-1.97 5.39 2.2.31 2.21-5.83-2.44.13z"/><path style="mix-blend-mode:screen" opacity=".4" fill="#fff" d="M14.9.8L7.42 14.71V9.74L12.23.8h2.67z"/><path style="mix-blend-mode:screen" opacity=".3" fill="#fff" d="M16.82.8l-9.4 17.46v-1.64L15.94.8h.88z"/><path class="cls-6" d="M11.61 32.38l-1.97 5.38 1.07.2 2.21-5.82-1.31.24z"/></g></g></g></svg>