<svg xmlns="http://www.w3.org/2000/svg" viewBox="0 0 301.93 73.29"><defs><style>.cls-10{fill:#fff}.cls-7{letter-spacing:0}.cls-9{fill:none;stroke:#fff;stroke-linecap:round;stroke-linejoin:round;stroke-width:2.18px}.cls-10{fill-rule:evenodd}</style></defs><g id="Слой_2" data-name="Слой 2"><g id="Слой_1-2" data-name="Слой 1"><path d="M301.58 73.29H0v-48h257.72l10.19-22.67a4.43 4.43 0 015.74-2.28l25.54 10.55a4.45 4.45 0 012.42 5.77l-3.53 8.67h3.5z"/><text transform="translate(12.98 60.56)" fill="#fff" font-size="31.65" font-family="GoogleSans-Medium,Google Sans" font-weight="500">8 <tspan x="25.44" y="0" letter-spacing="-.01em">8</tspan><tspan x="43.3" y="0" letter-spacing="0">0</tspan><tspan x="64.15" y="0">0 </tspan><tspan x="92.5" y="0" letter-spacing="0">1</tspan><tspan x="105.47" y="0" letter-spacing="0">0</tspan><tspan x="126.31" y="0">0 </tspan><tspan x="154.67" y="0" letter-spacing="-.02em">3</tspan><tspan class="cls-7" x="171.6" y="0">1 </tspan><tspan x="192.04" y="0" letter-spacing="-.02em">9</tspan><tspan class="cls-7" x="209.43" y="0">7</tspan></text><rect class="cls-9" x="244.02" y="20.3" width="58.92" height="30.55" rx="2.18" transform="rotate(-66.43 273.469 35.586)"/><path class="cls-9" d="M280.94 56.69l-28-12.22m14.83-34.01l28.01 12.22M281.52 11.7l4 1.75"/><circle class="cls-9" cx="264.32" cy="56.58" r="2.18"/><path class="cls-10" d="M276.66 31.94a1.15 1.15 0 11-1.49.65 1.14 1.14 0 011.49-.65"/><path class="cls-10" d="M272 26.89a25 25 0 009.38 4.11c-.33.38-.64.77-.95 1.19a24.11 24.11 0 01-7.32-2.95 14 14 0 01-.61 2.76 8.89 8.89 0 003.08 2.37 11 11 0 00-.58 1.23 8.7 8.7 0 01-3-2.33 12.27 12.27 0 01-2.32 3.37c-.4-.25-.79-.51-1.19-.79a12.77 12.77 0 003.55-9"/><path d="M278.22 38.63a15.32 15.32 0 01.48-2.33 7.76 7.76 0 01-3.47-.59 10.94 10.94 0 01.61-1.24 7.84 7.84 0 003.32.54 14.12 14.12 0 012.5-4c.48.09.95.17 1.42.23a13.84 13.84 0 00-3.54 9 23.73 23.73 0 01-9.63-3.42 11.31 11.31 0 00.9-1 23.89 23.89 0 007.41 2.88" fill="#fff"/><path opacity=".8" fill="none" stroke="#fff" stroke-linecap="round" stroke-linejoin="round" stroke-width="2.18" d="M281.77 68l15.81-30.64"/><path opacity=".4" fill="none" stroke="#fff" stroke-linecap="round" stroke-linejoin="round" stroke-width="2.18" d="M286.93 68l11.06-19.05"/><path opacity=".2" fill="none" stroke="#fff" stroke-linecap="round" stroke-linejoin="round" stroke-width="2.18" d="M292.24 68l5.87-9.03"/></g></g></svg>