<svg xmlns="http://www.w3.org/2000/svg" viewBox="0 0 47.96 47.96"><g data-name="Слой 2"><g data-name="Слой 1"><path d="M0 0h47.96v47.96H0z"/><path d="M17.91 25.29l2.83 7.83s.35.73.73.73 6-5.86 6-5.86l6.27-12.1L18 23.27z" fill="#c8daea"/><path d="M21.66 27.3l-.54 5.77s-.23 1.77 1.54 0 3.46-3.13 3.46-3.13" fill="#a9c6d8"/><path d="M18 25.57l-5.82-1.9a.76.76 0 01-.47-.92c.05-.13.14-.24.42-.44 1.29-.9 23.86-9 23.86-9a2 2 0 011-.07.55.55 0 01.37.41 1.73 1.73 0 010 .51v.51c-.14 2.21-4.26 18.77-4.26 18.77s-.24 1-1.12 1A1.6 1.6 0 0130.8 34c-1.73-1.49-7.71-5.51-9-6.4a.21.21 0 01-.1-.17.3.3 0 01.08-.21S32.16 17.94 32.43 17c0-.08-.06-.12-.17-.08-.69.25-12.68 7.82-14 8.66a.57.57 0 01-.26-.01z" fill="#fff"/></g></g></svg>