<svg xmlns="http://www.w3.org/2000/svg" viewBox="0 0 48 54"><defs><style>.cls-1{fill:none;stroke:#000;stroke-linecap:round;stroke-linejoin:round;stroke-width:2px}</style></defs><g id="Слой_2" data-name="Слой 2"><g id="Уплотнитель"><path class="cls-1" d="M31.37 10.83A9 9 0 0023 7.05a9.19 9.19 0 00-8 9.24V23H9v-6.58A15.28 15.28 0 0123.92 1a14.94 14.94 0 0112.29 6.32 3 3 0 01-.35 3.82 3 3 0 01-4.49-.31z"/><rect class="cls-1" x="1" y="23" width="46" height="30" rx="4"/><path class="cls-1" d="M27 34a3 3 0 10-4.41 2.63L21 43h6l-1.59-6.37A3 3 0 0027 34z"/></g></g></svg>