<svg width="97" height="97" fill="none" xmlns="http://www.w3.org/2000/svg"><g clip-path="url(#clip0_29_3781)"><path d="M49 97c26.786 0 48-21.214 48-48S75.786 0 49 0 0 22.214 0 49s22.214 48 49 48z" fill="#FFF6F3"/><g stroke="#ED7E06" stroke-linecap="round" stroke-linejoin="round"><path d="M39 41l2 2 3-5m5 3h12M39 51l2 2 3-5m5 3h12M39 61l2 2 3-5m5 3h12" stroke-width="1.34"/><path d="M61 25v6H38v-6H28v51h43V25H61z" stroke-width="2.68"/><path d="M61 31H39v-6c0-1.108.893-2 2-2h18c1.107 0 2 .892 2 2v6z" stroke-width="2.68"/><path d="M61 29v2H38v-2h-6v43h35V29h-6z" stroke-width="1.34"/><path d="M55 22H45v-1c0-2.765 2.238-5 5-5s5 2.235 5 5v1z" stroke-width="2.68"/><g stroke-width="2.01"><path d="M39 41l2 2 3-5m5 3h12M39 51l2 2 3-5m5 3h12M39 61l2 2 3-5m5 3h12"/><path d="M61 25v6H38v-6H28v51h43V25H61z"/><path d="M61 31H39v-6c0-1.108.893-2 2-2h18c1.107 0 2 .892 2 2v6z"/><path d="M61 29v2H38v-2h-6v43h35V29h-6zm-6-7H45v-1c0-2.765 2.238-5 5-5s5 2.235 5 5v1z"/></g></g></g><defs><clipPath id="clip0_29_3781"><path fill="#fff" d="M0 0h97v97H0z"/></clipPath></defs></svg>