<svg width="97" height="97" fill="none" xmlns="http://www.w3.org/2000/svg"><path d="M49 97c26.786 0 48-21.214 48-48S75.786 0 49 0 0 22.214 0 49s22.214 48 49 48z" fill="#FFF6F3"/><path d="M50 61c7.18 0 13-5.82 13-13s-5.82-13-13-13-13 5.82-13 13 5.82 13 13 13z" stroke="#ED7E06" stroke-width="2.68" stroke-linecap="round" stroke-linejoin="round"/><path d="M50 52c1.933 0 3-1.067 3-3s-1.067-4-3-4-4 2.067-4 4c0 1.933 2.067 3 4 3z" stroke="#ED7E06" stroke-width="2.68" stroke-linecap="round" stroke-linejoin="round"/><path d="M82 49v-2c0-.873-.137-1.851-1-2h-4c-.169-1.448-.613-2.641-1-4l3-2c.734-.456 1.327-1.197 1-2l-1-2c-.337-.803-1.157-1.198-2-1l-3 1c-.704-1.26-2.117-2.88-3-4l2-3c.506-.704.615-1.385 0-2l-1-1c-.615-.615-1.296-.506-2 0l-3 2c-1.12-.883-2.75-2.296-4-3l1-3c.198-.843-.197-1.673-1-2l-2-1c-.803-.337-1.534.256-2 1l-2 3c-1.369-.387-2.562-.831-4-1v-4c-.139-.853-1.127-1-2-1h-2c-.873 0-1.851.137-2 1v4c-1.448.169-2.641.613-4 1l-2-3c-.456-.734-1.197-1.327-2-1l-2 1c-.803.337-1.198 1.157-1 2l1 3c-1.26.704-2.88 2.117-4 3l-3-2c-.704-.506-1.385-.615-2 0l-1 1c-.615.615-.506 1.296 0 2l2 3c-.883 1.12-2.296 2.75-3 4l-3-1c-.843-.198-1.673.197-2 1l-1 2c-.337.803.256 1.534 1 2l3 2c-.387 1.369-.831 2.562-1 4h-4c-.853.139-1 1.127-1 2v2c0 .873.137 1.851 1 2h4c.169 1.448.613 2.641 1 4l-3 2c-.734.456-1.327 1.197-1 2l1 2c.337.803 1.157 1.198 2 1l3-1c.704 1.26 2.117 2.88 3 4l-2 3c-.506.704-.615 1.385 0 2l1 1c.615.615 1.296.506 2 0l3-2c1.12.883 2.75 2.296 4 3l-1 3c-.198.843.197 1.673 1 2l2 1c.803.337 1.534-.256 2-1l2-3c1.369.387 2.562.831 4 1v4c.139.853 1.127 1 2 1h2c.873 0 1.851-.137 2-1v-4c1.448-.169 2.641-.613 4-1l2 3c.456.734 1.197 1.327 2 1l2-1c.803-.337 1.198-1.157 1-2l-1-3c1.26-.704 2.88-2.117 4-3l3 2c.704.506 1.385.615 2 0l1-1c.615-.615.506-1.296 0-2l-2-3c.883-1.12 2.296-2.75 3-4l3 1c.843.198 1.673-.197 2-1l1-2c.337-.803-.256-1.534-1-2l-3-2c.387-1.369.831-2.562 1-4h4c.853-.139 1-1.127 1-2z" stroke="#ED7E06" stroke-width="2.68" stroke-linecap="round" stroke-linejoin="round"/></svg>