<svg width="97" height="97" fill="none" xmlns="http://www.w3.org/2000/svg"><path d="M49 97c26.786 0 48-21.214 48-48S75.786 0 49 0 0 22.214 0 49s22.214 48 49 48z" fill="#FFF6F3"/><g stroke="#ED7E06" stroke-width="2.68" stroke-linecap="round" stroke-linejoin="round"><path d="M82 57h5m-8 8h3c2.983 0 5-1.987 5-5v-7c0-2.168-.488-3.473-2-5L75 38c-2.106-2.128-5.017-3-8-3h-7v30h5m-19 0h14V35c0-4.498-3.502-8-8-8H30c-4.498 0-8 3.502-8 8v22c0 4.498 3.502 8 8 8h3"/><path d="M77 41h-9c-1.493 0-3 1.527-3 3v2c0 1.473 1.507 3 3 3h17M40 73c3.59 0 6-3.134 6-7s-2.41-7-6-7-7 3.134-7 7 3.41 7 7 7z"/><path d="M41 68c.828 0 1-.172 1-1 0-.828-.172-2-1-2-.828 0-2 1.172-2 2 0 .828 1.172 1 2 1zm31 0c.828 0 2-.172 2-1 0-.828-1.172-2-2-2-.828 0-1 1.172-1 2 0 .828.172 1 1 1z"/><path d="M71 73c3.59 0 7-3.134 7-7s-3.41-7-7-7-6 3.134-6 7 2.41 7 6 7zM17 54h1m-4-5h4M9 38h9m-6 5h7"/></g></svg>